<svg xmlns="http://www.w3.org/2000/svg" viewBox="0 0 2776.33 2126.35"><defs><style>.cls-1{fill:none;stroke:#000;stroke-miterlimit:10;stroke-width:0.25px;}</style></defs><g id="Capa_2" data-name="Capa 2"><g id="Capa_1-2" data-name="Capa 1"><g id="Capa_2-2" data-name="Capa 2"><g id="Capa_1-2-2" data-name="Capa 1-2"><polygon class="cls-1" points="0.17 2101.18 21.17 2126.18 564.17 1668.18 547.17 1636.18 154.17 1955.18 0.17 2101.18"/><polygon class="cls-1" points="578.17 1611.18 547.17 1636.18 564.17 1668.18 595.17 1642.18 578.17 1611.18"/><polygon class="cls-1" points="602.17 1591.18 578.17 1611.18 595.17 1642.18 619.17 1621.18 602.17 1591.18"/><polygon class="cls-1" points="627.17 1572.18 602.17 1591.18 619.17 1621.18 644.17 1602.18 627.17 1572.18"/><polygon class="cls-1" points="651.17 1552.18 627.17 1572.18 644.17 1602.18 669.17 1582.18 651.17 1552.18"/><polygon class="cls-1" points="677.17 1531.18 651.17 1552.18 669.17 1582.18 694.17 1563.18 677.17 1531.18"/><polygon class="cls-1" points="701.17 1510.18 677.17 1531.18 694.17 1563.18 720.17 1544.18 701.17 1510.18"/><polygon class="cls-1" points="725.17 1489.18 701.17 1510.18 720.17 1544.18 745.17 1525.18 725.17 1489.18"/><polygon class="cls-1" points="750.17 1468.18 725.17 1489.18 745.17 1525.18 771.17 1506.18 750.17 1468.18"/><polygon class="cls-1" points="776.17 1451.18 750.17 1468.18 771.17 1506.18 797.17 1489.18 776.17 1451.18"/><polygon class="cls-1" points="802.17 1433.18 776.17 1451.18 797.17 1489.18 824.17 1472.18 802.17 1433.18"/><polygon class="cls-1" points="829.17 1416.18 802.17 1433.18 824.17 1472.18 850.17 1455.18 829.17 1416.18"/><polygon class="cls-1" points="856.17 1399.18 829.17 1416.18 850.17 1455.18 876.17 1437.18 856.17 1399.18"/><polygon class="cls-1" points="882.17 1381.18 856.17 1399.18 877.17 1436.18 903.17 1419.18 882.17 1381.18"/><polygon class="cls-1" points="909.17 1364.18 882.17 1381.18 903.17 1420.18 930.17 1402.18 909.17 1364.18"/><polygon class="cls-1" points="935.17 1347.18 909.17 1364.18 930.17 1402.18 956.17 1385.18 935.17 1347.18"/><polygon class="cls-1" points="962.17 1330.18 935.17 1347.18 956.17 1385.18 983.17 1367.18 962.17 1330.18"/><polygon class="cls-1" points="987.17 1310.18 962.17 1330.18 983.17 1367.18 1009.17 1350.18 987.17 1310.18"/><polygon class="cls-1" points="1013.17 1293.18 987.17 1310.18 1009.17 1350.18 1036.17 1333.18 1013.17 1293.18"/><polygon class="cls-1" points="1040.17 1274.18 1013.17 1293.18 1036.17 1333.18 1063.17 1315.18 1040.17 1274.18"/><polygon class="cls-1" points="1065.17 1254.18 1040.17 1274.18 1063.17 1315.18 1089.17 1298.18 1065.17 1254.18"/><polygon class="cls-1" points="1091.17 1237.18 1065.62 1255 1089.17 1298.18 1115.17 1281.18 1091.17 1237.18"/><polygon class="cls-1" points="1117.17 1218.18 1090.17 1237.18 1115.17 1281.18 1142.17 1263.18 1117.17 1218.18"/><polygon class="cls-1" points="1143.17 1199.18 1117.17 1218.18 1142.17 1263.18 1168.17 1246.18 1143.17 1199.18"/><polygon class="cls-1" points="1168.17 1181.18 1143.64 1200.07 1168.17 1246.18 1195.17 1228.18 1168.17 1181.18"/><polygon class="cls-1" points="1168.17 1181.18 1194.17 1162.18 1222.17 1211.18 1195.17 1228.18 1168.17 1181.18"/><polygon class="cls-1" points="1220.17 1144.18 1194.17 1162.18 1222.17 1211.18 1248.17 1194.18 1220.17 1144.18"/><polygon class="cls-1" points="1246.17 1125.18 1220.17 1144.18 1248.17 1194.18 1274.17 1177.18 1246.17 1125.18"/><polygon class="cls-1" points="1271.17 1106.18 1246.17 1125.18 1274.17 1177.18 1301.17 1159.18 1271.17 1106.18"/><polygon class="cls-1" points="1297.17 1087.18 1271.17 1106.18 1301.17 1159.18 1327.17 1141.18 1297.17 1087.18"/><polygon class="cls-1" points="1323.17 1068.18 1297.17 1087.18 1327.17 1141.18 1354.17 1125.18 1323.17 1068.18"/><polygon class="cls-1" points="1349.17 1049.18 1323.17 1068.18 1354.17 1125.18 1381.17 1108.18 1349.17 1049.18"/><polygon class="cls-1" points="1374.17 1030.18 1349.17 1049.18 1381.17 1108.18 1407.17 1090.18 1374.17 1030.18"/><polygon class="cls-1" points="1400.17 1011.18 1374.17 1030.18 1407.17 1090.18 1434.17 1072.18 1400.17 1011.18"/><polygon class="cls-1" points="1426.17 993.18 1400.17 1011.18 1434.17 1072.18 1460.17 1055.18 1426.17 993.18"/><polygon class="cls-1" points="1451.17 974.18 1426.17 993.18 1460.17 1055.18 1487.17 1038.18 1451.17 974.18"/><polygon class="cls-1" points="1477.17 955.18 1451.17 974.18 1487.17 1038.18 1513.17 1021.18 1477.17 955.18"/><polygon class="cls-1" points="1502.17 936.18 1477.17 955.18 1513.17 1021.18 1540.17 1003.18 1502.17 936.18"/><polygon class="cls-1" points="1528.17 917.18 1502.17 936.18 1540.17 1003.18 1566.17 986.18 1528.17 917.18"/><polygon class="cls-1" points="1554.17 898.18 1528.17 917.18 1566.17 986.18 1593.17 969.18 1554.17 898.18"/><polygon class="cls-1" points="1580.17 878.18 1554.17 898.18 1593.17 969.18 1619.17 951.18 1580.17 878.18"/><polygon class="cls-1" points="1605.17 860.18 1580.17 878.18 1619.17 951.18 1645.17 933.18 1605.17 860.18"/><polygon class="cls-1" points="1631.17 840.18 1605.17 860.18 1645.17 933.18 1672.17 915.18 1631.17 840.18"/><polygon class="cls-1" points="1657.17 822.18 1631.17 840.18 1672.17 915.18 1698.17 897.18 1657.17 822.18"/><polygon class="cls-1" points="1682.17 803.18 1657.17 822.18 1698.17 897.18 1724.17 878.18 1682.17 803.18"/><polygon class="cls-1" points="1708.17 783.18 1682.17 803.18 1724.17 878.18 1750.17 860.18 1708.17 783.18"/><polygon class="cls-1" points="1734.17 764.18 1708.17 783.18 1750.17 860.18 1776.17 842.18 1734.17 764.18"/><polygon class="cls-1" points="1759.17 746.18 1734.17 764.18 1776.17 842.18 1802.17 825.18 1759.17 746.18"/><polygon class="cls-1" points="1785.17 727.18 1759.17 746.18 1802.17 825.18 1828.17 807.18 1785.17 727.18"/><polygon class="cls-1" points="1810.17 706.18 1785.17 727.18 1828.17 807.18 1854.17 787.18 1810.17 706.18"/><polygon class="cls-1" points="1834.17 685.18 1810.17 706.18 1854.17 787.18 1880.17 769.18 1834.17 685.18"/><polygon class="cls-1" points="1859.17 665.18 1834.17 685.18 1880.17 769.18 1905.17 750.18 1859.17 665.18"/><polygon class="cls-1" points="1883.17 643.18 1859.17 665.18 1905.17 750.18 1931.17 731.18 1883.17 643.18"/><polygon class="cls-1" points="1908.17 623.18 1883.17 643.18 1931.17 731.18 1956.17 712.18 1908.17 623.18"/><polygon class="cls-1" points="1933.17 602.18 1908.17 623.18 1956.17 712.18 1983.17 692.18 1933.17 602.18"/><polygon class="cls-1" points="1957.17 582.18 1933.17 602.18 1983.17 692.18 2009.17 674.18 1957.17 582.18"/><polygon class="cls-1" points="1983.17 562.18 1957.17 582.18 2009.17 674.18 2034.17 657.18 1983.17 562.18"/><polygon class="cls-1" points="2007.17 541.18 1983.17 562.18 2034.17 657.18 2060.17 637.18 2007.17 541.18"/><polygon class="cls-1" points="2033.17 521.18 2007.17 541.18 2060.17 637.18 2085.17 618.18 2033.17 521.18"/><polygon class="cls-1" points="2058.17 501.18 2033.17 521.18 2085.17 618.18 2111.17 598.18 2058.17 501.18"/><polygon class="cls-1" points="2082.17 480.18 2058.17 501.18 2111.17 598.18 2136.17 579.18 2082.17 480.18"/><polygon class="cls-1" points="2108.17 461.18 2082.17 480.18 2136.17 579.18 2162.17 559.18 2108.17 461.18"/><polygon class="cls-1" points="2132.17 440.18 2108.17 461.18 2162.17 559.18 2187.17 541.18 2132.17 440.18"/><polygon class="cls-1" points="2157.17 420.18 2132.17 440.18 2187.17 541.18 2213.17 521.18 2157.17 420.18"/><polygon class="cls-1" points="2181.17 398.18 2157.17 420.18 2213.17 521.18 2239.17 501.18 2181.17 398.18"/><polygon class="cls-1" points="2206.17 380.18 2181.17 398.18 2239.17 501.18 2264.17 483.18 2206.17 380.18"/><polygon class="cls-1" points="2232.17 359.18 2206.17 380.18 2264.17 483.18 2289.17 464.18 2232.17 359.18"/><polygon class="cls-1" points="2258.17 340.18 2232.17 359.18 2289.17 464.18 2315.17 445.18 2258.17 340.18"/><polygon class="cls-1" points="2282.17 320.18 2258.17 340.18 2315.17 445.18 2340.17 425.18 2282.17 320.18"/><polygon class="cls-1" points="2308.17 301.18 2282.17 320.18 2340.17 425.18 2366.17 406.18 2308.17 301.18"/><polygon class="cls-1" points="2332.17 281.18 2308.17 301.18 2366.17 406.18 2392.17 387.18 2332.17 281.18"/><polygon class="cls-1" points="2358.17 262.18 2332.17 281.18 2392.17 387.18 2418.17 369.18 2358.17 262.18"/><polygon class="cls-1" points="2384.17 242.18 2358.17 262.18 2418.17 369.18 2443.17 350.18 2384.17 242.18"/><polygon class="cls-1" points="2410.17 222.18 2384.17 242.18 2443.17 350.18 2469.17 331.18 2410.17 222.18"/><polygon class="cls-1" points="2435.17 204.18 2410.17 222.18 2469.17 331.18 2494.17 311.18 2435.17 204.18"/><polygon class="cls-1" points="2460.17 184.18 2435.17 204.18 2494.17 311.18 2519.17 293.18 2460.17 184.18"/><polygon class="cls-1" points="2486.17 166.18 2460.17 184.18 2519.17 293.18 2546.17 273.18 2486.17 166.18"/><polygon class="cls-1" points="2512.17 147.18 2486.17 166.18 2546.17 273.18 2571.17 254.18 2512.17 147.18"/><polygon class="cls-1" points="2537.17 128.18 2512.17 147.18 2571.17 254.18 2596.17 235.18 2537.17 128.18"/><polygon class="cls-1" points="2563.17 108.18 2537.17 128.18 2596.17 235.18 2623.17 216.18 2563.17 108.18"/><polygon class="cls-1" points="2588.17 89.18 2563.17 108.18 2623.17 216.18 2649.17 197.18 2588.17 89.18"/><polygon class="cls-1" points="2615.17 72.18 2588.17 89.18 2649.17 197.18 2673.17 178.18 2615.17 72.18"/><polygon class="cls-1" points="2641.17 53.18 2615.17 72.18 2673.17 178.18 2699.17 158.18 2641.17 53.18"/><polygon class="cls-1" points="2666.17 35.18 2641.17 53.18 2699.17 158.18 2724.17 140.18 2666.17 35.18"/><polygon class="cls-1" points="2693.17 17.18 2666.17 35.18 2724.17 140.18 2750.17 120.18 2693.17 17.18"/><polygon class="cls-1" points="2719.17 0.18 2693.17 17.18 2750.17 120.18 2776.17 100.18 2719.17 0.18"/></g></g><path d="M237.6,1906h0l-1.36.73-.2-.8,1.7-.91h.9v7.79h-1Z"/><path d="M242.08,1912.09a4.43,4.43,0,0,0,.85,0,2.9,2.9,0,0,0,1.63-.75,3.38,3.38,0,0,0,1-2.08h0a2.29,2.29,0,0,1-1.84.84,2.25,2.25,0,0,1-2.3-2.38,2.67,2.67,0,0,1,2.66-2.77c1.6,0,2.58,1.29,2.58,3.28a4.91,4.91,0,0,1-1.34,3.66,3.85,3.85,0,0,1-2.27,1,4.35,4.35,0,0,1-1,.06Zm.38-4.49a1.5,1.5,0,0,0,1.5,1.66,1.75,1.75,0,0,0,1.54-.82.67.67,0,0,0,.09-.38c0-1.33-.49-2.35-1.59-2.35C243.1,1905.71,242.46,1906.5,242.46,1907.6Z"/><path d="M252.07,1905.78a3.83,3.83,0,0,0-.79,0,3.17,3.17,0,0,0-2.71,2.77h0a2.37,2.37,0,0,1,4.23,1.62,2.61,2.61,0,0,1-2.59,2.75c-1.67,0-2.76-1.3-2.76-3.33a4.89,4.89,0,0,1,1.32-3.51,4.22,4.22,0,0,1,2.5-1.15,4.73,4.73,0,0,1,.76-.06Zm-.3,4.5a1.58,1.58,0,0,0-1.6-1.79,1.73,1.73,0,0,0-1.51,1,.84.84,0,0,0-.12.47c0,1.28.61,2.23,1.71,2.23C251.16,1912.15,251.77,1911.39,251.77,1910.28Z"/><path d="M564,1637.42h0l-1.36.73-.2-.8,1.7-.91h.9v7.8h-1Z"/><path d="M568.46,1643.49a4.31,4.31,0,0,0,.85,0,3,3,0,0,0,1.63-.76,3.38,3.38,0,0,0,1-2.07h0a2.32,2.32,0,0,1-1.84.84,2.26,2.26,0,0,1-2.3-2.39,2.67,2.67,0,0,1,2.66-2.77c1.6,0,2.58,1.29,2.58,3.28a4.91,4.91,0,0,1-1.34,3.66,3.92,3.92,0,0,1-2.27,1,5,5,0,0,1-1,.06Zm.38-4.48a1.5,1.5,0,0,0,1.5,1.65,1.77,1.77,0,0,0,1.54-.81.73.73,0,0,0,.09-.39c0-1.33-.49-2.35-1.59-2.35C569.48,1637.11,568.84,1637.9,568.84,1639Z"/><path d="M578.66,1637.33h-3l-.3,2a4.75,4.75,0,0,1,.64,0,3.28,3.28,0,0,1,1.68.42,2.23,2.23,0,0,1,1.11,2,2.7,2.7,0,0,1-2.9,2.66,3.8,3.8,0,0,1-1.94-.48l.26-.81a3.42,3.42,0,0,0,1.67.44,1.73,1.73,0,0,0,1.85-1.7c0-1-.69-1.72-2.25-1.72a9.44,9.44,0,0,0-1.08.08l.51-3.74h3.73Z"/><path d="M591.67,1614.67h0l-1.35.73-.21-.8,1.7-.91h.9v7.79h-1Z"/><path d="M596.15,1620.74a5.25,5.25,0,0,0,.85,0,2.94,2.94,0,0,0,1.63-.76,3.44,3.44,0,0,0,1-2.08h0a2.34,2.34,0,0,1-4.14-1.54,2.67,2.67,0,0,1,2.67-2.77c1.59,0,2.57,1.29,2.57,3.28a4.91,4.91,0,0,1-1.34,3.66,3.85,3.85,0,0,1-2.27,1,4.35,4.35,0,0,1-1,.06Zm.39-4.48a1.49,1.49,0,0,0,1.5,1.65,1.76,1.76,0,0,0,1.53-.81.72.72,0,0,0,.1-.39c0-1.33-.5-2.35-1.6-2.35C597.17,1614.36,596.54,1615.15,596.54,1616.26Z"/><path d="M605,1621.48v-2.12h-3.62v-.69l3.48-5H606v4.84h1.1v.83H606v2.12Zm0-3v-2.6c0-.41,0-.81,0-1.22h0c-.24.45-.43.79-.65,1.15l-1.91,2.65v0Z"/><path d="M616.77,1595.68h0l-1.35.73-.21-.8,1.71-.91h.9v7.8h-1Z"/><path d="M621.25,1601.75a4.32,4.32,0,0,0,.85,0,3,3,0,0,0,1.63-.76,3.43,3.43,0,0,0,1-2.07h0a2.29,2.29,0,0,1-1.83.83,2.25,2.25,0,0,1-2.3-2.38,2.66,2.66,0,0,1,2.66-2.77c1.59,0,2.58,1.29,2.58,3.28a4.91,4.91,0,0,1-1.35,3.66,3.82,3.82,0,0,1-2.26,1,4.48,4.48,0,0,1-1,.07Zm.38-4.48a1.5,1.5,0,0,0,1.5,1.65,1.74,1.74,0,0,0,1.53-.81.72.72,0,0,0,.1-.39c0-1.33-.49-2.35-1.6-2.35C622.26,1595.37,621.63,1596.16,621.63,1597.27Z"/><path d="M627,1601.28a3.45,3.45,0,0,0,1.73.5c1.35,0,1.77-.87,1.76-1.52,0-1.09-1-1.55-2-1.55h-.59v-.8h.59c.76,0,1.74-.39,1.74-1.31,0-.63-.4-1.18-1.37-1.18a2.94,2.94,0,0,0-1.56.51l-.28-.76a3.71,3.71,0,0,1,2-.6c1.54,0,2.23.91,2.23,1.86a1.94,1.94,0,0,1-1.44,1.83v0a2,2,0,0,1,1.74,2c0,1.25-1,2.34-2.84,2.34a4,4,0,0,1-2-.53Z"/><path d="M640.07,1576.56h0l-1.36.73-.2-.8,1.7-.91h.9v7.79h-1Z"/><path d="M644.55,1582.63a5.25,5.25,0,0,0,.85,0,3,3,0,0,0,1.63-.76,3.38,3.38,0,0,0,1-2.08h0a2.3,2.3,0,0,1-1.84.84,2.25,2.25,0,0,1-2.3-2.38,2.67,2.67,0,0,1,2.66-2.77c1.6,0,2.58,1.29,2.58,3.28a5,5,0,0,1-1.34,3.66,3.85,3.85,0,0,1-2.27,1,4.35,4.35,0,0,1-1,.06Zm.38-4.49a1.5,1.5,0,0,0,1.5,1.66A1.75,1.75,0,0,0,648,1579a.67.67,0,0,0,.09-.38c0-1.33-.49-2.35-1.59-2.35C645.57,1576.25,644.93,1577,644.93,1578.14Z"/><path d="M650.09,1583.37v-.64l.83-.81c2-1.89,2.89-2.9,2.9-4.07a1.39,1.39,0,0,0-1.54-1.53,2.66,2.66,0,0,0-1.66.66l-.34-.74a3.41,3.41,0,0,1,2.21-.79,2.19,2.19,0,0,1,2.39,2.26c0,1.44-1,2.61-2.69,4.19l-.62.57v0h3.5v.87Z"/><path d="M666.27,1555.73h0l-1.35.73-.21-.8,1.71-.92h.9v7.8h-1Z"/><path d="M670.75,1561.8a4.46,4.46,0,0,0,.85,0,2.94,2.94,0,0,0,1.63-.76,3.4,3.4,0,0,0,1-2.07h0a2.34,2.34,0,0,1-4.13-1.55,2.67,2.67,0,0,1,2.66-2.77c1.59,0,2.58,1.3,2.58,3.29a4.94,4.94,0,0,1-1.35,3.66,4,4,0,0,1-2.26,1,5.09,5.09,0,0,1-1,.06Zm.38-4.49a1.51,1.51,0,0,0,1.5,1.66,1.72,1.72,0,0,0,1.53-.82.71.71,0,0,0,.1-.38c0-1.34-.49-2.35-1.6-2.35C671.76,1555.42,671.13,1556.21,671.13,1557.31Z"/><path d="M678.58,1555.73h0l-1.36.73-.2-.8,1.7-.92h.9v7.8h-1Z"/><path d="M693.08,1535.81h0l-1.36.74-.2-.81,1.7-.91h.9v7.8h-1Z"/><path d="M697.56,1541.88a4.31,4.31,0,0,0,.85,0,3,3,0,0,0,1.63-.76,3.38,3.38,0,0,0,1-2.07h0a2.3,2.3,0,0,1-1.84.84,2.26,2.26,0,0,1-2.3-2.39,2.67,2.67,0,0,1,2.66-2.77c1.6,0,2.58,1.29,2.58,3.29a4.94,4.94,0,0,1-1.34,3.65,3.92,3.92,0,0,1-2.27,1,5,5,0,0,1-1,.06Zm.38-4.48a1.5,1.5,0,0,0,1.5,1.65,1.75,1.75,0,0,0,1.54-.81.73.73,0,0,0,.09-.39c0-1.33-.49-2.35-1.59-2.35C698.58,1535.5,697.94,1536.29,697.94,1537.4Z"/><path d="M708.28,1538.65c0,2.65-1,4.11-2.71,4.11-1.52,0-2.55-1.43-2.57-4s1.12-4,2.71-4S708.28,1536.16,708.28,1538.65Zm-4.23.11c0,2,.62,3.18,1.58,3.18s1.6-1.26,1.6-3.25-.49-3.18-1.58-3.18C704.72,1535.51,704.05,1536.64,704.05,1538.76Z"/><path d="M717.32,1514.58h0l-1.35.74-.21-.81,1.71-.91h.9v7.8h-1Z"/><path d="M721.09,1519.42a2.22,2.22,0,0,1,1.54-2.09v0a1.94,1.94,0,0,1-1.23-1.76,2.18,2.18,0,0,1,2.41-2.07,2,2,0,0,1,2.26,1.92,2,2,0,0,1-1.28,1.82v0a2.15,2.15,0,0,1,1.57,2,2.4,2.4,0,0,1-2.65,2.27C722.07,1521.53,721.09,1520.56,721.09,1519.42Zm4.19-.05c0-.95-.66-1.4-1.71-1.7a1.68,1.68,0,0,0-1.4,1.6,1.43,1.43,0,0,0,1.55,1.49A1.41,1.41,0,0,0,725.28,1519.37Zm-2.9-3.9c0,.78.59,1.2,1.49,1.44a1.54,1.54,0,0,0,1.19-1.41,1.22,1.22,0,0,0-1.32-1.28A1.24,1.24,0,0,0,722.38,1515.47Z"/><path d="M728,1520.65a4.31,4.31,0,0,0,.85,0,3,3,0,0,0,1.63-.76,3.38,3.38,0,0,0,1-2.07h0a2.32,2.32,0,0,1-1.84.84,2.26,2.26,0,0,1-2.3-2.39,2.67,2.67,0,0,1,2.66-2.77c1.6,0,2.58,1.29,2.58,3.29a4.9,4.9,0,0,1-1.34,3.65,3.92,3.92,0,0,1-2.27,1,5,5,0,0,1-1,.06Zm.38-4.48a1.5,1.5,0,0,0,1.5,1.65,1.77,1.77,0,0,0,1.54-.81.73.73,0,0,0,.09-.39c0-1.33-.49-2.35-1.59-2.35C729,1514.27,728.33,1515.06,728.33,1516.17Z"/><path d="M741.77,1495.46h0l-1.35.73-.21-.8,1.71-.91h.9v7.8h-1Z"/><path d="M745.54,1500.3a2.23,2.23,0,0,1,1.55-2.09l0,0a1.91,1.91,0,0,1-1.23-1.75,2.18,2.18,0,0,1,2.41-2.07,2,2,0,0,1,2.26,1.92,2,2,0,0,1-1.28,1.82v0a2.15,2.15,0,0,1,1.57,2,2.4,2.4,0,0,1-2.65,2.27C746.52,1502.41,745.54,1501.44,745.54,1500.3Zm4.2,0c0-1-.66-1.4-1.72-1.7a1.68,1.68,0,0,0-1.4,1.6,1.44,1.44,0,0,0,1.56,1.49A1.42,1.42,0,0,0,749.74,1500.25Zm-2.91-3.9c0,.78.59,1.2,1.49,1.44a1.54,1.54,0,0,0,1.19-1.41,1.21,1.21,0,0,0-1.32-1.28A1.24,1.24,0,0,0,746.83,1496.35Z"/><path d="M751.69,1500.3a2.23,2.23,0,0,1,1.55-2.09v0a1.92,1.92,0,0,1-1.24-1.75,2.19,2.19,0,0,1,2.41-2.07,2,2,0,0,1,2.27,1.92,2,2,0,0,1-1.28,1.82v0a2.15,2.15,0,0,1,1.57,2,2.4,2.4,0,0,1-2.65,2.27C752.68,1502.41,751.69,1501.44,751.69,1500.3Zm4.2,0c0-1-.66-1.4-1.71-1.7a1.68,1.68,0,0,0-1.41,1.6,1.45,1.45,0,0,0,1.56,1.49A1.41,1.41,0,0,0,755.89,1500.25Zm-2.9-3.9c0,.78.59,1.2,1.49,1.44a1.53,1.53,0,0,0,1.18-1.41,1.21,1.21,0,0,0-1.32-1.28A1.24,1.24,0,0,0,753,1496.35Z"/><path d="M769.77,1478h0l-1.35.73-.21-.8,1.71-.91h.9v7.79h-1Z"/><path d="M773.54,1482.8a2.23,2.23,0,0,1,1.55-2.09l0,0a1.93,1.93,0,0,1-1.23-1.75,2.18,2.18,0,0,1,2.41-2.07,2,2,0,0,1,2.26,1.91,2,2,0,0,1-1.28,1.83v0a2.17,2.17,0,0,1,1.57,2,2.4,2.4,0,0,1-2.65,2.27C774.52,1484.91,773.54,1483.93,773.54,1482.8Zm4.2,0c0-1-.66-1.41-1.72-1.71a1.7,1.7,0,0,0-1.4,1.61,1.44,1.44,0,0,0,1.56,1.49A1.42,1.42,0,0,0,777.74,1482.75Zm-2.91-3.9c0,.78.59,1.2,1.49,1.44a1.55,1.55,0,0,0,1.19-1.42,1.21,1.21,0,0,0-1.32-1.27A1.24,1.24,0,0,0,774.83,1478.85Z"/><path d="M784.85,1477v.69l-3.39,7.1h-1.09l3.38-6.89v0h-3.82V1477Z"/><path d="M795.15,1459.07h0l-1.35.73-.21-.8,1.71-.92h.9v7.8h-1Z"/><path d="M798.92,1463.9a2.23,2.23,0,0,1,1.54-2.09v0a1.93,1.93,0,0,1-1.23-1.75,2.18,2.18,0,0,1,2.41-2.08,2,2,0,0,1,2.26,1.92,2,2,0,0,1-1.28,1.82v0a2.16,2.16,0,0,1,1.57,2,2.4,2.4,0,0,1-2.65,2.26C799.9,1466,798.92,1465,798.92,1463.9Zm4.19-.05c0-.94-.66-1.4-1.71-1.7a1.69,1.69,0,0,0-1.4,1.61,1.43,1.43,0,0,0,1.55,1.48A1.41,1.41,0,0,0,803.11,1463.85Zm-2.9-3.89c0,.77.59,1.19,1.49,1.43a1.53,1.53,0,0,0,1.19-1.41,1.22,1.22,0,0,0-1.32-1.27A1.24,1.24,0,0,0,800.21,1460Z"/><path d="M809.62,1458.83a3.8,3.8,0,0,0-.79.05,3.15,3.15,0,0,0-2.71,2.77h0a2.38,2.38,0,0,1,4.24,1.62,2.61,2.61,0,0,1-2.6,2.74c-1.66,0-2.75-1.29-2.75-3.32a4.86,4.86,0,0,1,1.32-3.51,4.2,4.2,0,0,1,2.49-1.16,6.42,6.42,0,0,1,.77-.06Zm-.3,4.5a1.59,1.59,0,0,0-1.61-1.79,1.73,1.73,0,0,0-1.51,1,.9.9,0,0,0-.12.47c0,1.28.61,2.23,1.71,2.23C808.71,1465.2,809.32,1464.44,809.32,1463.33Z"/><path d="M822.31,1442.72h0l-1.36.73-.2-.81,1.7-.91h.9v7.8h-1Z"/><path d="M826.08,1447.55a2.24,2.24,0,0,1,1.55-2.09v0a1.93,1.93,0,0,1-1.24-1.75,2.18,2.18,0,0,1,2.41-2.08,2,2,0,0,1,2.27,1.92,2,2,0,0,1-1.28,1.82v0a2.16,2.16,0,0,1,1.57,2,2.4,2.4,0,0,1-2.65,2.27C827.06,1449.66,826.08,1448.69,826.08,1447.55Zm4.2,0c0-1-.66-1.4-1.72-1.7a1.69,1.69,0,0,0-1.4,1.61,1.44,1.44,0,0,0,1.56,1.48A1.41,1.41,0,0,0,830.28,1447.5Zm-2.9-3.9c0,.78.58,1.2,1.48,1.44a1.52,1.52,0,0,0,1.19-1.41,1.21,1.21,0,0,0-1.32-1.27A1.23,1.23,0,0,0,827.38,1443.6Z"/><path d="M837,1442.62h-3l-.3,2a5,5,0,0,1,.64,0,3.28,3.28,0,0,1,1.68.42,2.2,2.2,0,0,1,1.11,2,2.7,2.7,0,0,1-2.9,2.66,3.8,3.8,0,0,1-1.94-.48l.26-.8a3.54,3.54,0,0,0,1.67.43,1.73,1.73,0,0,0,1.85-1.69c0-1-.69-1.73-2.25-1.73a9.44,9.44,0,0,0-1.08.08l.51-3.74H837Z"/><path d="M846.84,1425.57h0l-1.36.73-.2-.8,1.7-.91h.9v7.8h-1Z"/><path d="M850.61,1430.41a2.23,2.23,0,0,1,1.55-2.09l0,0a1.91,1.91,0,0,1-1.23-1.75,2.18,2.18,0,0,1,2.41-2.07,2,2,0,0,1,2.27,1.92,2,2,0,0,1-1.29,1.82v0a2.15,2.15,0,0,1,1.57,2,2.4,2.4,0,0,1-2.65,2.27C851.59,1432.52,850.61,1431.55,850.61,1430.41Zm4.2-.05c0-.95-.66-1.4-1.72-1.7a1.68,1.68,0,0,0-1.4,1.6,1.44,1.44,0,0,0,1.56,1.49A1.42,1.42,0,0,0,854.81,1430.36Zm-2.91-3.9c0,.78.59,1.2,1.49,1.44a1.54,1.54,0,0,0,1.19-1.41,1.21,1.21,0,0,0-1.32-1.28A1.24,1.24,0,0,0,851.9,1426.46Z"/><path d="M860.12,1432.39v-2.13H856.5v-.69l3.48-5h1.14v4.85h1.09v.82h-1.09v2.13Zm0-3v-2.61c0-.4,0-.81,0-1.22h0c-.24.46-.43.79-.64,1.15l-1.91,2.65v0Z"/><path d="M875.06,1409h0l-1.36.73-.2-.8,1.7-.91h.9v7.79h-1Z"/><path d="M878.83,1413.8a2.23,2.23,0,0,1,1.55-2.09l0,0a1.93,1.93,0,0,1-1.23-1.75,2.18,2.18,0,0,1,2.41-2.07,2,2,0,0,1,2.27,1.91,2,2,0,0,1-1.29,1.83v0a2.17,2.17,0,0,1,1.57,2,2.4,2.4,0,0,1-2.65,2.27C879.81,1415.91,878.83,1414.93,878.83,1413.8Zm4.2,0c0-1-.66-1.41-1.72-1.71a1.7,1.7,0,0,0-1.4,1.61,1.44,1.44,0,0,0,1.56,1.49A1.42,1.42,0,0,0,883,1413.75Zm-2.91-3.9c0,.78.59,1.2,1.49,1.44a1.55,1.55,0,0,0,1.19-1.42,1.21,1.21,0,0,0-1.32-1.27A1.24,1.24,0,0,0,880.12,1409.85Z"/><path d="M885.33,1414.56a3.57,3.57,0,0,0,1.73.49c1.36,0,1.78-.86,1.76-1.51,0-1.09-1-1.56-2-1.56h-.59v-.79h.59c.77,0,1.74-.39,1.74-1.32,0-.62-.4-1.17-1.37-1.17a2.89,2.89,0,0,0-1.56.51l-.28-.76a3.71,3.71,0,0,1,2-.6c1.54,0,2.23.91,2.23,1.86a1.94,1.94,0,0,1-1.44,1.83v0a2,2,0,0,1,1.74,2c0,1.24-1,2.34-2.84,2.34a4,4,0,0,1-2-.53Z"/><path d="M902.77,1391.55h0l-1.35.73-.21-.8,1.71-.91h.9v7.79h-1Z"/><path d="M906.54,1396.39a2.23,2.23,0,0,1,1.55-2.09l0,0a1.93,1.93,0,0,1-1.23-1.75,2.18,2.18,0,0,1,2.41-2.07,2,2,0,0,1,2.26,1.92,2,2,0,0,1-1.28,1.82v0a2.15,2.15,0,0,1,1.57,2,2.4,2.4,0,0,1-2.65,2.27C907.52,1398.5,906.54,1397.52,906.54,1396.39Zm4.2-.05c0-.95-.66-1.41-1.72-1.7a1.68,1.68,0,0,0-1.4,1.6,1.44,1.44,0,0,0,1.56,1.49A1.42,1.42,0,0,0,910.74,1396.34Zm-2.91-3.9c0,.78.59,1.2,1.49,1.44a1.55,1.55,0,0,0,1.19-1.42,1.21,1.21,0,0,0-1.32-1.27A1.24,1.24,0,0,0,907.83,1392.44Z"/><path d="M912.79,1398.36v-.64l.83-.81c2-1.89,2.89-2.9,2.9-4.07a1.39,1.39,0,0,0-1.55-1.53,2.63,2.63,0,0,0-1.65.66l-.34-.74a3.41,3.41,0,0,1,2.21-.79,2.19,2.19,0,0,1,2.39,2.26c0,1.44-1.05,2.61-2.69,4.19l-.63.58v0h3.51v.87Z"/><path d="M928.77,1374.14h0l-1.35.73-.21-.8,1.71-.91h.9V1381h-1Z"/><path d="M932.54,1379a2.23,2.23,0,0,1,1.55-2.09l0,0a1.93,1.93,0,0,1-1.23-1.75,2.18,2.18,0,0,1,2.41-2.07,2,2,0,0,1,2.26,1.92,2,2,0,0,1-1.28,1.82v0a2.17,2.17,0,0,1,1.57,2,2.4,2.4,0,0,1-2.65,2.27C933.52,1381.09,932.54,1380.11,932.54,1379Zm4.2,0c0-1-.66-1.41-1.72-1.71a1.7,1.7,0,0,0-1.4,1.61,1.44,1.44,0,0,0,1.56,1.49A1.42,1.42,0,0,0,936.74,1378.93Zm-2.91-3.9c0,.78.59,1.2,1.49,1.44a1.55,1.55,0,0,0,1.19-1.42,1.21,1.21,0,0,0-1.32-1.27A1.24,1.24,0,0,0,933.83,1375Z"/><path d="M941.08,1374.14h0l-1.36.73-.2-.8,1.7-.91h.9V1381h-1Z"/><path d="M955.23,1357.27h0l-1.35.73-.21-.81,1.7-.91h.9v7.8h-1Z"/><path d="M959,1362.1a2.24,2.24,0,0,1,1.55-2.09v0a1.94,1.94,0,0,1-1.24-1.75,2.19,2.19,0,0,1,2.41-2.08,2,2,0,0,1,2.27,1.92,2,2,0,0,1-1.28,1.82v0a2.16,2.16,0,0,1,1.57,2,2.4,2.4,0,0,1-2.65,2.27C960,1364.21,959,1363.24,959,1362.1Zm4.2,0c0-1-.66-1.4-1.71-1.7a1.7,1.7,0,0,0-1.41,1.61,1.44,1.44,0,0,0,1.56,1.48A1.41,1.41,0,0,0,963.2,1362.05Zm-2.9-3.9c0,.78.59,1.2,1.49,1.44a1.52,1.52,0,0,0,1.18-1.41,1.2,1.2,0,0,0-1.31-1.27A1.24,1.24,0,0,0,960.3,1358.15Z"/><path d="M970.44,1360.1c0,2.65-1,4.11-2.71,4.11-1.53,0-2.56-1.43-2.58-4s1.13-4,2.71-4S970.44,1357.61,970.44,1360.1Zm-4.24.12c0,2,.63,3.17,1.59,3.17s1.59-1.25,1.59-3.25-.49-3.17-1.58-3.17C966.88,1357,966.2,1358.09,966.2,1360.22Z"/><path d="M980.77,1339h0l-1.35.73-.21-.8,1.71-.91h.9v7.79h-1Z"/><path d="M989.69,1338v.69l-3.39,7.1h-1.09l3.38-6.89v0h-3.81V1338Z"/><path d="M991.4,1345a4.43,4.43,0,0,0,.85,0,2.9,2.9,0,0,0,1.63-.75,3.44,3.44,0,0,0,1-2.08h0a2.29,2.29,0,0,1-1.84.84,2.25,2.25,0,0,1-2.3-2.38,2.67,2.67,0,0,1,2.66-2.77c1.6,0,2.58,1.29,2.58,3.28a4.91,4.91,0,0,1-1.34,3.66,3.85,3.85,0,0,1-2.27,1,4.35,4.35,0,0,1-1,.06Zm.39-4.49a1.49,1.49,0,0,0,1.49,1.66,1.75,1.75,0,0,0,1.54-.82.66.66,0,0,0,.1-.38c0-1.33-.5-2.35-1.6-2.35C992.42,1338.65,991.79,1339.44,991.79,1340.54Z"/><path d="M1007.59,1320.66h0l-1.35.73-.21-.8,1.71-.92h.9v7.8h-1Z"/><path d="M1016.51,1319.67v.7l-3.39,7.1H1012l3.38-6.9v0h-3.81v-.88Z"/><path d="M1017.51,1325.49a2.24,2.24,0,0,1,1.55-2.09v0a1.93,1.93,0,0,1-1.24-1.75,2.19,2.19,0,0,1,2.41-2.08,2,2,0,0,1,2.27,1.92,2,2,0,0,1-1.28,1.82v0a2.16,2.16,0,0,1,1.57,2,2.4,2.4,0,0,1-2.65,2.26C1018.5,1327.6,1017.51,1326.63,1017.51,1325.49Zm4.2,0c0-.94-.66-1.4-1.71-1.7a1.69,1.69,0,0,0-1.41,1.61,1.44,1.44,0,0,0,1.56,1.48A1.41,1.41,0,0,0,1021.71,1325.44Zm-2.9-3.89c0,.77.59,1.19,1.48,1.43a1.51,1.51,0,0,0,1.19-1.41,1.21,1.21,0,0,0-1.32-1.27A1.24,1.24,0,0,0,1018.81,1321.55Z"/><path d="M1032.51,1301.69h0l-1.36.74-.2-.81,1.7-.91h.9v7.8h-1Z"/><path d="M1041.44,1300.71v.7l-3.4,7.1H1037l3.38-6.9v0h-3.81v-.88Z"/><path d="M1047.59,1300.71v.7l-3.39,7.1h-1.09l3.38-6.9v0h-3.82v-.88Z"/><path d="M1060.07,1285.66h0l-1.36.73-.2-.8,1.7-.91h.9v7.79h-1Z"/><path d="M1069,1284.68v.69l-3.4,7.1h-1.09l3.38-6.89v0h-3.81v-.87Z"/><path d="M1074.54,1285.42a3.83,3.83,0,0,0-.79,0,3.17,3.17,0,0,0-2.71,2.77h0a2.37,2.37,0,0,1,4.23,1.62,2.61,2.61,0,0,1-2.59,2.75c-1.67,0-2.76-1.3-2.76-3.33a4.89,4.89,0,0,1,1.32-3.51,4.22,4.22,0,0,1,2.49-1.15,4.93,4.93,0,0,1,.77-.06Zm-.3,4.5a1.58,1.58,0,0,0-1.61-1.79,1.75,1.75,0,0,0-1.51,1,.93.93,0,0,0-.12.47c0,1.28.61,2.23,1.72,2.23C1073.63,1291.79,1074.24,1291,1074.24,1289.92Z"/><path d="M1086.18,1269.63h0l-1.36.73-.2-.8,1.7-.91h.9v7.79h-1Z"/><path d="M1095.11,1268.65v.69l-3.4,7.1h-1.09l3.38-6.89v0h-3.81v-.87Z"/><path d="M1100.85,1269.53h-3l-.3,2a3.52,3.52,0,0,1,.64,0,3.22,3.22,0,0,1,1.67.42,2.21,2.21,0,0,1,1.12,2,2.7,2.7,0,0,1-2.9,2.66,3.92,3.92,0,0,1-1.94-.47l.26-.81a3.51,3.51,0,0,0,1.67.43,1.71,1.71,0,0,0,1.84-1.69c0-1-.68-1.73-2.24-1.73a7.42,7.42,0,0,0-1.08.09l.5-3.74h3.73Z"/><path d="M1110.77,1249.42h0l-1.35.73-.21-.8,1.71-.91h.9v7.8h-1Z"/><path d="M1119.69,1248.44v.7l-3.39,7.1h-1.09l3.38-6.9v0h-3.81v-.88Z"/><path d="M1124.05,1256.24v-2.13h-3.62v-.69l3.48-5h1.14v4.85h1.09v.82h-1.09v2.13Zm0-3v-2.61c0-.41,0-.81,0-1.22h0c-.24.46-.43.79-.65,1.15l-1.9,2.65v0Z"/><path d="M1137.24,1232.42h0l-1.35.73-.21-.8,1.71-.91h.9v7.8h-1Z"/><path d="M1146.16,1231.44v.7l-3.39,7.1h-1.09l3.38-6.9v0h-3.81v-.88Z"/><path d="M1147.51,1238a3.45,3.45,0,0,0,1.73.5c1.35,0,1.77-.87,1.76-1.51,0-1.1-1-1.56-2-1.56h-.59v-.8h.59c.76,0,1.74-.39,1.74-1.31,0-.63-.4-1.18-1.37-1.18a2.83,2.83,0,0,0-1.56.52l-.28-.77a3.71,3.71,0,0,1,2-.6c1.54,0,2.23.91,2.23,1.86a1.94,1.94,0,0,1-1.44,1.83v0a2,2,0,0,1,1.74,2c0,1.25-1,2.34-2.84,2.34a4,4,0,0,1-2-.53Z"/><path d="M1163,1213.42h0l-1.36.73-.2-.8,1.7-.91h.9v7.8h-1Z"/><path d="M1171.93,1212.44v.7l-3.39,7.1h-1.1l3.39-6.9v0H1167v-.88Z"/><path d="M1173,1220.24v-.65l.83-.81c2-1.89,2.89-2.9,2.9-4.07a1.39,1.39,0,0,0-1.54-1.53,2.66,2.66,0,0,0-1.66.66l-.33-.74a3.38,3.38,0,0,1,2.2-.79,2.19,2.19,0,0,1,2.39,2.26c0,1.44-1,2.61-2.69,4.19l-.62.58v0h3.5v.88Z"/><path d="M1190.08,1195.89h0l-1.35.73-.21-.81,1.7-.91h.9v7.8h-1Z"/><path d="M1199,1194.9v.7l-3.39,7.1h-1.09l3.38-6.9v0h-3.82v-.88Z"/><path d="M1202.4,1195.89h0l-1.35.73-.21-.81,1.71-.91h.9v7.8h-1Z"/><path d="M1215.77,1178.35h0l-1.35.73-.21-.81,1.71-.91h.9v7.8h-1Z"/><path d="M1224.69,1177.36v.7l-3.39,7.1h-1.09l3.38-6.9v0h-3.81v-.88Z"/><path d="M1231,1181.18c0,2.65-1,4.11-2.71,4.11-1.52,0-2.55-1.43-2.58-4s1.13-4,2.71-4S1231,1178.69,1231,1181.18Zm-4.23.12c0,2,.62,3.17,1.58,3.17s1.6-1.25,1.6-3.25-.5-3.17-1.59-3.17C1227.41,1178.05,1226.74,1179.17,1226.74,1181.3Z"/><path d="M1241.77,1159.2h0l-1.35.73-.21-.8,1.71-.91h.9V1166h-1Z"/><path d="M1250.08,1159a3.83,3.83,0,0,0-.79,0,3.17,3.17,0,0,0-2.71,2.77h0a2.37,2.37,0,0,1,4.23,1.62,2.6,2.6,0,0,1-2.59,2.74c-1.67,0-2.76-1.29-2.76-3.32a4.89,4.89,0,0,1,1.32-3.51,4.22,4.22,0,0,1,2.5-1.15,4.73,4.73,0,0,1,.76-.06Zm-.3,4.5a1.58,1.58,0,0,0-1.6-1.79,1.73,1.73,0,0,0-1.51,1,.84.84,0,0,0-.13.47c0,1.28.62,2.23,1.72,2.23C1249.17,1165.33,1249.78,1164.57,1249.78,1163.46Z"/><path d="M1252.4,1165.27a4.43,4.43,0,0,0,.85,0,2.9,2.9,0,0,0,1.63-.75,3.44,3.44,0,0,0,1-2.08h0a2.29,2.29,0,0,1-1.84.84,2.25,2.25,0,0,1-2.3-2.38,2.67,2.67,0,0,1,2.66-2.77c1.6,0,2.58,1.29,2.58,3.28a4.91,4.91,0,0,1-1.34,3.66,3.85,3.85,0,0,1-2.27,1,5,5,0,0,1-1,.06Zm.39-4.49a1.49,1.49,0,0,0,1.49,1.66,1.75,1.75,0,0,0,1.54-.82.66.66,0,0,0,.1-.38c0-1.33-.5-2.35-1.6-2.35C1253.42,1158.89,1252.79,1159.68,1252.79,1160.78Z"/><path d="M1269.08,1140.05h0l-1.36.74-.2-.81,1.7-.91h.9v7.8h-1Z"/><path d="M1277.4,1139.82a3.81,3.81,0,0,0-.8,0,3.18,3.18,0,0,0-2.71,2.77h0a2.37,2.37,0,0,1,4.23,1.62,2.61,2.61,0,0,1-2.59,2.75c-1.66,0-2.76-1.3-2.76-3.32a4.9,4.9,0,0,1,1.32-3.52,4.28,4.28,0,0,1,2.5-1.15,4.76,4.76,0,0,1,.77-.06Zm-.31,4.49a1.58,1.58,0,0,0-1.6-1.78,1.71,1.71,0,0,0-1.51,1,.87.87,0,0,0-.12.46c0,1.29.61,2.23,1.71,2.23C1276.48,1146.18,1277.09,1145.43,1277.09,1144.31Z"/><path d="M1279,1144.89a2.24,2.24,0,0,1,1.55-2.09v0a1.94,1.94,0,0,1-1.23-1.76,2.18,2.18,0,0,1,2.41-2.07,2,2,0,0,1,2.26,1.92,2,2,0,0,1-1.28,1.82v0a2.16,2.16,0,0,1,1.57,2,2.4,2.4,0,0,1-2.65,2.27C1280,1147,1279,1146,1279,1144.89Zm4.2-.05c0-.95-.66-1.4-1.71-1.7a1.68,1.68,0,0,0-1.4,1.6,1.43,1.43,0,0,0,1.55,1.49A1.41,1.41,0,0,0,1283.2,1144.84Zm-2.9-3.9c0,.78.59,1.2,1.49,1.44A1.54,1.54,0,0,0,1283,1141a1.21,1.21,0,0,0-1.32-1.27A1.24,1.24,0,0,0,1280.3,1140.94Z"/><path d="M1294.77,1124h0l-1.35.73-.21-.8,1.71-.91h.9v7.79h-1Z"/><path d="M1303.08,1123.75a3.83,3.83,0,0,0-.79,0,3.18,3.18,0,0,0-2.71,2.77h0a2.37,2.37,0,0,1,4.23,1.62,2.61,2.61,0,0,1-2.59,2.75c-1.67,0-2.76-1.3-2.76-3.33a4.89,4.89,0,0,1,1.32-3.51,4.22,4.22,0,0,1,2.5-1.15,4.73,4.73,0,0,1,.76-.06Zm-.3,4.5a1.58,1.58,0,0,0-1.6-1.79,1.73,1.73,0,0,0-1.51,1,.84.84,0,0,0-.13.47c0,1.28.62,2.23,1.72,2.23C1302.17,1130.12,1302.78,1129.36,1302.78,1128.25Z"/><path d="M1309.85,1123v.69l-3.39,7.1h-1.09l3.38-6.89v0h-3.82V1123Z"/><path d="M1320.77,1105.53h0l-1.35.73-.21-.8,1.71-.91h.9v7.79h-1Z"/><path d="M1329.08,1105.29a3.83,3.83,0,0,0-.79,0,3.17,3.17,0,0,0-2.71,2.77h0a2.37,2.37,0,0,1,4.23,1.62,2.6,2.6,0,0,1-2.59,2.74c-1.67,0-2.76-1.29-2.76-3.32a4.89,4.89,0,0,1,1.32-3.51,4.22,4.22,0,0,1,2.5-1.15,4.73,4.73,0,0,1,.76-.06Zm-.3,4.5a1.58,1.58,0,0,0-1.6-1.79,1.73,1.73,0,0,0-1.51,1,.84.84,0,0,0-.13.47c0,1.28.62,2.23,1.72,2.23C1328.17,1111.66,1328.78,1110.9,1328.78,1109.79Z"/><path d="M1335.24,1105.29a3.8,3.8,0,0,0-.79,0,3.16,3.16,0,0,0-2.71,2.77h0a2.38,2.38,0,0,1,4.24,1.62,2.6,2.6,0,0,1-2.59,2.74c-1.67,0-2.76-1.29-2.76-3.32a4.89,4.89,0,0,1,1.32-3.51,4.22,4.22,0,0,1,2.49-1.15,4.84,4.84,0,0,1,.77-.06Zm-.3,4.5a1.59,1.59,0,0,0-1.61-1.79,1.75,1.75,0,0,0-1.51,1,.93.93,0,0,0-.12.47c0,1.28.61,2.23,1.72,2.23C1334.33,1111.66,1334.94,1110.9,1334.94,1109.79Z"/><path d="M1349.31,1088.89h0l-1.35.73-.21-.81,1.71-.91h.9v7.8h-1Z"/><path d="M1357.62,1088.65a3.75,3.75,0,0,0-.79,0,3.17,3.17,0,0,0-2.71,2.77h0a2.37,2.37,0,0,1,4.23,1.62,2.61,2.61,0,0,1-2.59,2.75c-1.67,0-2.76-1.3-2.76-3.32a4.9,4.9,0,0,1,1.32-3.52,4.28,4.28,0,0,1,2.49-1.15,4.93,4.93,0,0,1,.77-.06Zm-.3,4.49a1.58,1.58,0,0,0-1.61-1.78,1.73,1.73,0,0,0-1.51,1,.87.87,0,0,0-.12.46c0,1.29.61,2.23,1.72,2.23C1356.71,1095,1357.32,1094.26,1357.32,1093.14Z"/><path d="M1364,1088.79h-3l-.3,2a4.58,4.58,0,0,1,.63,0,3.38,3.38,0,0,1,1.68.42,2.24,2.24,0,0,1,1.12,2,2.71,2.71,0,0,1-2.91,2.66,3.8,3.8,0,0,1-1.94-.48l.27-.8a3.46,3.46,0,0,0,1.66.43,1.72,1.72,0,0,0,1.85-1.69c0-1-.68-1.73-2.24-1.73a9.26,9.26,0,0,0-1.08.08l.5-3.74H1364Z"/><path d="M1373.91,1069.89h0l-1.35.73-.21-.81,1.7-.91h.9v7.8h-1Z"/><path d="M1382.23,1069.65a3.72,3.72,0,0,0-.79,0,3.17,3.17,0,0,0-2.71,2.77h0a2.38,2.38,0,0,1,4.24,1.62,2.61,2.61,0,0,1-2.59,2.75c-1.67,0-2.76-1.3-2.76-3.32A4.9,4.9,0,0,1,1379,1070a4.28,4.28,0,0,1,2.49-1.15,4.84,4.84,0,0,1,.77-.06Zm-.3,4.49a1.58,1.58,0,0,0-1.61-1.78,1.73,1.73,0,0,0-1.51,1,.87.87,0,0,0-.12.46c0,1.29.61,2.23,1.72,2.23C1381.32,1076,1381.93,1075.26,1381.93,1074.14Z"/><path d="M1387.2,1076.7v-2.13h-3.62v-.69l3.47-5h1.14v4.85h1.1v.82h-1.1v2.13Zm0-3v-2.61c0-.4,0-.81,0-1.22h0c-.24.46-.43.79-.65,1.15l-1.91,2.65v0Z"/><path d="M1400.77,1052.39h0l-1.35.73-.21-.81,1.71-.91h.9v7.8h-1Z"/><path d="M1409.08,1052.15a3.75,3.75,0,0,0-.79,0,3.18,3.18,0,0,0-2.71,2.77h0a2.37,2.37,0,0,1,4.23,1.62,2.61,2.61,0,0,1-2.59,2.75c-1.67,0-2.76-1.3-2.76-3.32a4.9,4.9,0,0,1,1.32-3.52,4.28,4.28,0,0,1,2.5-1.15,4.73,4.73,0,0,1,.76-.06Zm-.3,4.49a1.58,1.58,0,0,0-1.6-1.78,1.71,1.71,0,0,0-1.51,1,.78.78,0,0,0-.13.46c0,1.29.62,2.23,1.72,2.23C1408.17,1058.51,1408.78,1057.76,1408.78,1056.64Z"/><path d="M1411,1058a3.57,3.57,0,0,0,1.73.49c1.35,0,1.77-.87,1.76-1.51,0-1.09-1-1.56-2-1.56h-.59v-.79h.59c.76,0,1.74-.4,1.74-1.32,0-.63-.4-1.18-1.37-1.18a2.86,2.86,0,0,0-1.56.52l-.28-.77a3.71,3.71,0,0,1,2-.6c1.54,0,2.23.91,2.23,1.86a1.93,1.93,0,0,1-1.44,1.83v0a2,2,0,0,1,1.74,2c0,1.25-1,2.34-2.84,2.34a4,4,0,0,1-2-.53Z"/><path d="M1427.19,1033.42h0l-1.36.73-.2-.8,1.7-.91h.9v7.8h-1Z"/><path d="M1435.5,1033.18a3.83,3.83,0,0,0-.79,0A3.18,3.18,0,0,0,1432,1036h0a2.37,2.37,0,0,1,4.23,1.62,2.61,2.61,0,0,1-2.59,2.75c-1.67,0-2.76-1.3-2.76-3.32a4.9,4.9,0,0,1,1.32-3.52,4.28,4.28,0,0,1,2.5-1.15,4.73,4.73,0,0,1,.76-.06Zm-.29,4.5a1.59,1.59,0,0,0-1.61-1.79,1.74,1.74,0,0,0-1.51,1,.84.84,0,0,0-.12.47c0,1.28.61,2.23,1.71,2.23C1434.59,1039.55,1435.21,1038.8,1435.21,1037.68Z"/><path d="M1437.21,1040.24v-.65l.83-.81c2-1.89,2.89-2.9,2.9-4.07a1.4,1.4,0,0,0-1.55-1.53,2.66,2.66,0,0,0-1.65.66l-.34-.74a3.41,3.41,0,0,1,2.21-.79,2.19,2.19,0,0,1,2.39,2.26c0,1.44-1,2.61-2.69,4.19l-.62.58v0h3.5v.88Z"/><path d="M1451.19,1014.46h0l-1.36.73-.2-.8,1.7-.91h.9v7.79h-1Z"/><path d="M1459.5,1014.22a3.83,3.83,0,0,0-.79,0A3.18,3.18,0,0,0,1456,1017h0a2.37,2.37,0,0,1,4.23,1.62,2.61,2.61,0,0,1-2.59,2.75c-1.67,0-2.76-1.3-2.76-3.33a4.89,4.89,0,0,1,1.32-3.51,4.22,4.22,0,0,1,2.5-1.15,4.73,4.73,0,0,1,.76-.06Zm-.29,4.5a1.59,1.59,0,0,0-1.61-1.79,1.74,1.74,0,0,0-1.51,1,.84.84,0,0,0-.12.47c0,1.28.61,2.23,1.71,2.23C1458.59,1020.59,1459.21,1019.83,1459.21,1018.72Z"/><path d="M1463.5,1014.46h0l-1.36.73-.2-.8,1.7-.91h.9v7.79h-1Z"/><path d="M1480.77,1000.3h0l-1.35.73-.21-.8,1.71-.91h.9v7.79h-1Z"/><path d="M1489.08,1000.06a3.83,3.83,0,0,0-.79.05,3.17,3.17,0,0,0-2.71,2.77h0a2.37,2.37,0,0,1,4.23,1.62,2.6,2.6,0,0,1-2.59,2.74c-1.67,0-2.76-1.29-2.76-3.32a4.89,4.89,0,0,1,1.32-3.51,4.22,4.22,0,0,1,2.5-1.15,4.73,4.73,0,0,1,.76-.06Zm-.3,4.5a1.58,1.58,0,0,0-1.6-1.79,1.73,1.73,0,0,0-1.51,1,.84.84,0,0,0-.13.47c0,1.28.62,2.23,1.72,2.23C1488.17,1006.43,1488.78,1005.67,1488.78,1004.56Z"/><path d="M1496,1003.13c0,2.65-1,4.11-2.71,4.11-1.52,0-2.55-1.42-2.58-4s1.13-4.06,2.71-4.06S1496,1000.65,1496,1003.13Zm-4.23.12c0,2,.62,3.18,1.58,3.18s1.6-1.26,1.6-3.25-.5-3.18-1.59-3.18C1492.41,1000,1491.74,1001.13,1491.74,1003.25Z"/><path d="M1504.46,979.46h0l-1.35.74-.21-.81,1.7-.91h.9v7.8h-1Z"/><path d="M1513,979.37h-3l-.3,2a4.72,4.72,0,0,1,.63,0,3.38,3.38,0,0,1,1.68.42,2.22,2.22,0,0,1,1.12,2,2.7,2.7,0,0,1-2.9,2.66,3.84,3.84,0,0,1-2-.48l.27-.8a3.5,3.5,0,0,0,1.66.43,1.72,1.72,0,0,0,1.85-1.69c0-1-.68-1.73-2.24-1.73a9.26,9.26,0,0,0-1.08.08l.5-3.74H1513Z"/><path d="M1515.1,985.53a4.31,4.31,0,0,0,.85,0,3,3,0,0,0,1.63-.76,3.38,3.38,0,0,0,1-2.07h0a2.33,2.33,0,0,1-1.84.84,2.26,2.26,0,0,1-2.3-2.39,2.67,2.67,0,0,1,2.66-2.77c1.6,0,2.58,1.29,2.58,3.29a4.94,4.94,0,0,1-1.34,3.65,3.92,3.92,0,0,1-2.27,1.05,5,5,0,0,1-1,.06Zm.38-4.48a1.5,1.5,0,0,0,1.5,1.65,1.77,1.77,0,0,0,1.54-.81.73.73,0,0,0,.09-.39c0-1.33-.49-2.35-1.59-2.35C1516.12,979.15,1515.48,979.94,1515.48,981.05Z"/><path d="M1530.84,963.64h0l-1.35.73-.21-.8,1.71-.91h.9v7.79h-1Z"/><path d="M1539.36,963.54h-3l-.3,2a3.52,3.52,0,0,1,.64,0,3.28,3.28,0,0,1,1.68.42,2.22,2.22,0,0,1,1.11,2,2.7,2.7,0,0,1-2.9,2.66,3.8,3.8,0,0,1-1.94-.48l.26-.8a3.51,3.51,0,0,0,1.67.43,1.71,1.71,0,0,0,1.84-1.69c0-1-.68-1.72-2.24-1.72a7.6,7.6,0,0,0-1.08.08l.51-3.74h3.73Z"/><path d="M1540.76,968.47a2.22,2.22,0,0,1,1.55-2.08v0a1.93,1.93,0,0,1-1.24-1.75,2.19,2.19,0,0,1,2.41-2.07,2,2,0,0,1,2.27,1.91,2,2,0,0,1-1.28,1.83v0a2.17,2.17,0,0,1,1.57,2,2.4,2.4,0,0,1-2.65,2.26C1541.75,970.58,1540.76,969.61,1540.76,968.47Zm4.2,0c0-.95-.66-1.41-1.71-1.71a1.7,1.7,0,0,0-1.41,1.61,1.45,1.45,0,0,0,1.56,1.49A1.41,1.41,0,0,0,1545,968.43Zm-2.9-3.9c0,.78.59,1.2,1.49,1.44a1.54,1.54,0,0,0,1.18-1.42,1.21,1.21,0,0,0-1.32-1.27A1.24,1.24,0,0,0,1542.06,964.53Z"/><path d="M1557.47,944.78h0l-1.35.73-.21-.8,1.7-.91h.9v7.8h-1Z"/><path d="M1566,944.69h-3l-.3,2a4.75,4.75,0,0,1,.64-.05,3.24,3.24,0,0,1,1.67.42,2.22,2.22,0,0,1,1.12,2,2.7,2.7,0,0,1-2.9,2.66,3.87,3.87,0,0,1-2-.48l.27-.81a3.38,3.38,0,0,0,1.67.44,1.72,1.72,0,0,0,1.84-1.7c0-1-.68-1.72-2.24-1.72a9.44,9.44,0,0,0-1.08.08l.5-3.74H1566Z"/><path d="M1572.56,943.8v.7l-3.4,7.1h-1.09l3.38-6.9v0h-3.81v-.88Z"/><path d="M1581.44,927.16h0l-1.36.73-.2-.8,1.7-.91h.9V934h-1Z"/><path d="M1590,927.07h-3l-.3,2a4.58,4.58,0,0,1,.63-.05,3.28,3.28,0,0,1,1.68.42,2.23,2.23,0,0,1,1.12,2,2.71,2.71,0,0,1-2.91,2.67,3.8,3.8,0,0,1-1.94-.48l.27-.81a3.45,3.45,0,0,0,1.66.44,1.72,1.72,0,0,0,1.85-1.7c0-1-.68-1.72-2.24-1.72a9.09,9.09,0,0,0-1.08.08l.5-3.74H1590Z"/><path d="M1595.91,926.92a3.83,3.83,0,0,0-.79.05,3.18,3.18,0,0,0-2.71,2.77h0a2.37,2.37,0,0,1,4.23,1.62,2.61,2.61,0,0,1-2.59,2.75c-1.67,0-2.76-1.3-2.76-3.33a4.89,4.89,0,0,1,1.32-3.51,4.28,4.28,0,0,1,2.5-1.15,4.73,4.73,0,0,1,.76-.06Zm-.3,4.5a1.58,1.58,0,0,0-1.6-1.79,1.73,1.73,0,0,0-1.51,1,.84.84,0,0,0-.12.47c0,1.28.61,2.23,1.71,2.23C1595,933.29,1595.61,932.54,1595.61,931.42Z"/><path d="M1609.33,908.87h0l-1.36.73-.2-.81,1.7-.91h.9v7.8h-1Z"/><path d="M1617.85,908.77h-3l-.3,2a4.58,4.58,0,0,1,.63,0,3.38,3.38,0,0,1,1.68.42,2.24,2.24,0,0,1,1.12,2,2.71,2.71,0,0,1-2.91,2.66,3.8,3.8,0,0,1-1.94-.48l.26-.8a3.54,3.54,0,0,0,1.67.43,1.72,1.72,0,0,0,1.85-1.69c0-1-.69-1.73-2.24-1.73a9.26,9.26,0,0,0-1.08.08l.5-3.74h3.73Z"/><path d="M1624,908.77h-3l-.3,2a4.75,4.75,0,0,1,.64,0,3.38,3.38,0,0,1,1.68.42,2.23,2.23,0,0,1,1.11,2,2.7,2.7,0,0,1-2.9,2.66,3.8,3.8,0,0,1-1.94-.48l.26-.8a3.54,3.54,0,0,0,1.67.43,1.72,1.72,0,0,0,1.84-1.69c0-1-.68-1.73-2.24-1.73a9.44,9.44,0,0,0-1.08.08l.51-3.74H1624Z"/><path d="M1636,888.38h0l-1.35.74-.21-.81,1.71-.91h.89v7.8h-1Z"/><path d="M1644.55,888.29h-3l-.3,2a4.75,4.75,0,0,1,.64,0,3.31,3.31,0,0,1,1.67.42,2.22,2.22,0,0,1,1.12,2,2.7,2.7,0,0,1-2.9,2.66,3.8,3.8,0,0,1-1.94-.48l.26-.8a3.51,3.51,0,0,0,1.67.43,1.72,1.72,0,0,0,1.84-1.69c0-1-.68-1.73-2.24-1.73a9.44,9.44,0,0,0-1.08.08l.5-3.74h3.73Z"/><path d="M1649.32,895.2v-2.13h-3.62v-.69l3.48-5h1.13v4.85h1.1v.82h-1.1v2.13Zm0-3v-2.61c0-.4,0-.81,0-1.22h0c-.24.46-.43.79-.65,1.15l-1.91,2.65v0Z"/><path d="M1662.05,872.47h0l-1.35.73-.21-.8,1.71-.91h.9v7.79h-1Z"/><path d="M1670.57,872.37h-3l-.3,2a3.52,3.52,0,0,1,.64,0,3.28,3.28,0,0,1,1.68.42,2.22,2.22,0,0,1,1.11,2,2.7,2.7,0,0,1-2.9,2.66,3.8,3.8,0,0,1-1.94-.48l.26-.8a3.51,3.51,0,0,0,1.67.43,1.71,1.71,0,0,0,1.84-1.69c0-1-.68-1.73-2.24-1.73a7.42,7.42,0,0,0-1.08.09l.51-3.74h3.73Z"/><path d="M1672.32,878.07a3.57,3.57,0,0,0,1.73.49c1.35,0,1.77-.86,1.76-1.51,0-1.09-1-1.56-2-1.56h-.58v-.79h.58c.77,0,1.74-.4,1.74-1.32,0-.62-.39-1.17-1.36-1.17a2.83,2.83,0,0,0-1.56.51l-.28-.77a3.71,3.71,0,0,1,2-.6c1.54,0,2.23.92,2.23,1.86a1.94,1.94,0,0,1-1.44,1.84v0a2,2,0,0,1,1.74,2c0,1.24-1,2.33-2.84,2.33a4,4,0,0,1-2-.52Z"/><path d="M1684.27,852.69h0l-1.35.73-.21-.8,1.71-.91h.9v7.79h-1Z"/><path d="M1692.79,852.59h-3l-.3,2a3.52,3.52,0,0,1,.64-.05,3.28,3.28,0,0,1,1.68.42,2.22,2.22,0,0,1,1.11,2,2.7,2.7,0,0,1-2.9,2.66,3.92,3.92,0,0,1-1.94-.47l.26-.81a3.54,3.54,0,0,0,1.67.43,1.72,1.72,0,0,0,1.85-1.69c0-1-.69-1.72-2.25-1.72a7.6,7.6,0,0,0-1.08.08l.51-3.74h3.73Z"/><path d="M1694.29,859.5v-.64l.83-.81c2-1.89,2.89-2.9,2.9-4.08a1.39,1.39,0,0,0-1.55-1.52,2.63,2.63,0,0,0-1.65.66l-.34-.74a3.41,3.41,0,0,1,2.21-.79,2.19,2.19,0,0,1,2.39,2.26c0,1.44-1,2.6-2.69,4.19l-.63.57v0h3.51v.87Z"/><path d="M1710.9,832.91h0l-1.36.73-.2-.8,1.7-.91h.9v7.79h-1Z"/><path d="M1719.42,832.81h-3l-.3,2a3.48,3.48,0,0,1,.63-.05,3.28,3.28,0,0,1,1.68.42,2.21,2.21,0,0,1,1.12,2,2.71,2.71,0,0,1-2.91,2.66,3.8,3.8,0,0,1-1.94-.48l.27-.8a3.5,3.5,0,0,0,1.66.43,1.72,1.72,0,0,0,1.85-1.69c0-1-.68-1.73-2.24-1.73a7.29,7.29,0,0,0-1.08.09l.5-3.74h3.73Z"/><path d="M1723.22,832.91h0l-1.35.73-.21-.8,1.71-.91h.9v7.79h-1Z"/><path d="M1742.35,816.2h0l-1.36.73-.2-.81,1.7-.91h.9V823h-1Z"/><path d="M1750.87,816.1h-3l-.3,2a4.72,4.72,0,0,1,.63-.05,3.38,3.38,0,0,1,1.68.42,2.22,2.22,0,0,1,1.12,2,2.7,2.7,0,0,1-2.9,2.66,3.84,3.84,0,0,1-2-.48l.27-.8a3.5,3.5,0,0,0,1.66.43,1.72,1.72,0,0,0,1.85-1.69c0-1-.68-1.73-2.24-1.73a9.26,9.26,0,0,0-1.08.08l.5-3.74h3.73Z"/><path d="M1757.56,819c0,2.65-1,4.11-2.71,4.11-1.53,0-2.56-1.43-2.58-4s1.13-4,2.71-4S1757.56,816.54,1757.56,819Zm-4.24.12c0,2,.63,3.17,1.59,3.17s1.59-1.26,1.59-3.25-.49-3.17-1.58-3.17C1754,815.9,1753.32,817,1753.32,819.15Z"/><path d="M1765.43,798.67h0l-1.36.74-.2-.81,1.7-.91h.9v7.8h-1Z"/><path d="M1772.56,805.49v-2.13h-3.62v-.69l3.48-5h1.13v4.85h1.1v.82h-1.1v2.13Zm0-3v-2.61c0-.4,0-.81,0-1.22h0c-.24.46-.43.79-.65,1.15l-1.91,2.65v0Z"/><path d="M1776.06,804.74a4.4,4.4,0,0,0,.86,0,3,3,0,0,0,1.63-.76,3.49,3.49,0,0,0,1-2.07h0a2.3,2.3,0,0,1-1.83.84,2.26,2.26,0,0,1-2.3-2.39,2.66,2.66,0,0,1,2.66-2.77c1.59,0,2.58,1.29,2.58,3.28a4.91,4.91,0,0,1-1.35,3.66,3.93,3.93,0,0,1-2.26,1,5.15,5.15,0,0,1-1,.06Zm.39-4.48a1.5,1.5,0,0,0,1.5,1.65,1.74,1.74,0,0,0,1.53-.81.72.72,0,0,0,.1-.39c0-1.33-.49-2.35-1.6-2.35C1777.08,798.36,1776.45,799.15,1776.45,800.26Z"/><path d="M1792.2,781.79h0l-1.36.74-.2-.81,1.7-.91h.9v7.8h-1Z"/><path d="M1799.33,788.61v-2.13h-3.62v-.69l3.47-5h1.14v4.85h1.09v.82h-1.09v2.13Zm0-3v-2.61c0-.4,0-.81,0-1.22h0c-.24.46-.43.79-.65,1.15l-1.91,2.65v0Z"/><path d="M1802.13,786.63a2.23,2.23,0,0,1,1.54-2.09v0a2,2,0,0,1-1.24-1.76,2.19,2.19,0,0,1,2.42-2.07,2,2,0,0,1,2.26,1.92,2,2,0,0,1-1.28,1.82v0a2.16,2.16,0,0,1,1.57,2,2.4,2.4,0,0,1-2.65,2.27C1803.11,788.74,1802.13,787.77,1802.13,786.63Zm4.19,0c0-1-.66-1.4-1.71-1.7a1.68,1.68,0,0,0-1.4,1.6,1.43,1.43,0,0,0,1.55,1.49A1.41,1.41,0,0,0,1806.32,786.58Zm-2.9-3.9c0,.78.59,1.2,1.49,1.44a1.54,1.54,0,0,0,1.19-1.41,1.21,1.21,0,0,0-1.32-1.27A1.24,1.24,0,0,0,1803.42,782.68Z"/><path d="M1821.74,764.42h0l-1.35.73-.21-.8,1.71-.91h.9v7.8h-1Z"/><path d="M1828.87,771.24v-2.13h-3.63v-.69l3.48-5h1.14v4.85H1831v.82h-1.09v2.13Zm0-3v-2.61c0-.41,0-.81,0-1.22h0c-.24.46-.44.79-.65,1.15l-1.91,2.65v0Z"/><path d="M1836.82,763.44v.7l-3.39,7.1h-1.09l3.38-6.9v0h-3.82v-.88Z"/><path d="M1843,740.78h0l-1.36.73-.2-.8,1.7-.91h.9v7.8h-1Z"/><path d="M1850.1,747.6v-2.13h-3.63v-.69l3.48-5h1.14v4.85h1.09v.82h-1.09v2.13Zm0-3V742c0-.4,0-.81,0-1.22h0c-.24.46-.43.79-.65,1.15l-1.91,2.65v0Z"/><path d="M1857.44,740.54a3.8,3.8,0,0,0-.79.05,3.17,3.17,0,0,0-2.71,2.77h0a2.35,2.35,0,0,1,1.89-.9,2.32,2.32,0,0,1,2.35,2.52,2.61,2.61,0,0,1-2.59,2.75c-1.67,0-2.76-1.3-2.76-3.32a4.9,4.9,0,0,1,1.32-3.52,4.28,4.28,0,0,1,2.49-1.15,4.84,4.84,0,0,1,.77-.06Zm-.3,4.5a1.59,1.59,0,0,0-1.61-1.79,1.75,1.75,0,0,0-1.51,1,.93.93,0,0,0-.12.47c0,1.29.61,2.23,1.72,2.23C1856.53,746.91,1857.14,746.16,1857.14,745Z"/><path d="M1869.74,725h0l-1.35.73-.21-.8,1.71-.91h.9v7.79h-1Z"/><path d="M1876.87,731.77v-2.12h-3.63V729l3.48-5h1.14v4.84H1879v.83h-1.09v2.12Zm0-2.95v-2.6c0-.41,0-.81,0-1.22h0c-.24.45-.44.79-.65,1.15l-1.91,2.65v0Z"/><path d="M1884.41,724.87h-3l-.3,2a3.48,3.48,0,0,1,.63,0,3.28,3.28,0,0,1,1.68.42,2.21,2.21,0,0,1,1.12,2,2.7,2.7,0,0,1-2.9,2.67,3.84,3.84,0,0,1-2-.48l.27-.81a3.5,3.5,0,0,0,1.66.43,1.72,1.72,0,0,0,1.85-1.69c0-1-.68-1.72-2.24-1.72a7.48,7.48,0,0,0-1.08.08l.5-3.74h3.73Z"/><path d="M1894,702.28h0l-1.36.73-.2-.8,1.7-.92h.9v7.8h-1Z"/><path d="M1901.13,709.09V707h-3.62v-.7l3.48-5h1.13v4.85h1.1V707h-1.1v2.12Zm0-3v-2.6c0-.41,0-.82,0-1.23h0c-.24.46-.43.8-.65,1.16l-1.91,2.65v0Z"/><path d="M1907.29,709.09V707h-3.63v-.7l3.48-5h1.14v4.85h1.09V707h-1.09v2.12Zm0-3v-2.6q0-.62,0-1.23h0c-.24.46-.44.8-.65,1.16l-1.91,2.65v0Z"/><path d="M1920.23,685.46h0l-1.36.73-.2-.8,1.7-.91h.9v7.79h-1Z"/><path d="M1927.36,692.27v-2.12h-3.63v-.69l3.48-5h1.14v4.84h1.09v.83h-1.09v2.12Zm0-2.95v-2.6c0-.41,0-.81,0-1.22h0c-.24.45-.44.79-.65,1.15l-1.91,2.65v0Z"/><path d="M1930.5,691.06a3.57,3.57,0,0,0,1.73.49c1.36,0,1.77-.86,1.76-1.51,0-1.09-1-1.56-2-1.56h-.59v-.79h.59c.77,0,1.74-.39,1.74-1.32,0-.62-.4-1.17-1.37-1.17a2.89,2.89,0,0,0-1.56.51l-.28-.76a3.71,3.71,0,0,1,2-.6c1.54,0,2.23.91,2.23,1.86a1.94,1.94,0,0,1-1.44,1.83v0a2,2,0,0,1,1.74,2c0,1.24-1,2.34-2.84,2.34a4,4,0,0,1-2-.53Z"/><path d="M1945.23,664.3h0l-1.36.73-.2-.8,1.7-.91h.9v7.79h-1Z"/><path d="M1952.36,671.11V669h-3.62v-.7l3.47-5h1.14v4.84h1.09V669h-1.09v2.12Zm0-3v-2.6c0-.41,0-.82,0-1.22h0c-.24.45-.44.79-.65,1.15l-1.91,2.65v0Z"/><path d="M1955.25,671.11v-.64l.83-.81c2-1.89,2.89-2.9,2.9-4.08a1.39,1.39,0,0,0-1.55-1.52,2.66,2.66,0,0,0-1.65.66l-.34-.74a3.41,3.41,0,0,1,2.21-.8,2.2,2.2,0,0,1,2.39,2.27c0,1.44-1,2.6-2.69,4.19l-.62.57v0h3.5v.87Z"/><path d="M1970.81,648.87h0l-1.35.73-.21-.8,1.71-.91h.9v7.79h-1Z"/><path d="M1977.93,655.68v-2.12h-3.62v-.69l3.48-5h1.14v4.84H1980v.83h-1.09v2.12Zm0-2.95v-2.6c0-.41,0-.81,0-1.22h0c-.24.45-.43.79-.64,1.15l-1.91,2.65v0Z"/><path d="M1983.12,648.87h0l-1.35.73-.2-.8,1.7-.91h.9v7.79h-1Z"/><path d="M1997.52,626h0l-1.35.73-.21-.8,1.71-.91h.9v7.79h-1Z"/><path d="M2001.64,631.56a3.52,3.52,0,0,0,1.72.49c1.36,0,1.78-.86,1.77-1.51,0-1.09-1-1.56-2-1.56h-.59v-.79h.59c.77,0,1.74-.39,1.74-1.32,0-.62-.4-1.17-1.37-1.17a2.89,2.89,0,0,0-1.56.51l-.27-.76a3.69,3.69,0,0,1,2-.6c1.53,0,2.23.91,2.23,1.86a1.94,1.94,0,0,1-1.44,1.83v0a2,2,0,0,1,1.74,2c0,1.24-1,2.34-2.85,2.34a4,4,0,0,1-2-.53Z"/><path d="M2012.72,628.79c0,2.65-1,4.12-2.71,4.12-1.52,0-2.55-1.43-2.58-4s1.13-4,2.71-4S2012.72,626.31,2012.72,628.79Zm-4.23.12c0,2,.62,3.18,1.58,3.18s1.6-1.26,1.6-3.25-.5-3.18-1.59-3.18C2009.16,625.66,2008.49,626.79,2008.49,628.91Z"/><path d="M2021.23,607h0l-1.36.73-.2-.8,1.7-.91h.9v7.79h-1Z"/><path d="M2025.09,613.77v-.64l.83-.81c2-1.89,2.89-2.9,2.9-4.08a1.39,1.39,0,0,0-1.54-1.52,2.66,2.66,0,0,0-1.66.66l-.33-.74a3.38,3.38,0,0,1,2.2-.79,2.19,2.19,0,0,1,2.39,2.26c0,1.44-1,2.61-2.69,4.19l-.62.57v0h3.5v.87Z"/><path d="M2031.86,613a4.43,4.43,0,0,0,.85,0,2.87,2.87,0,0,0,1.63-.75,3.44,3.44,0,0,0,1-2.08h0a2.34,2.34,0,0,1-4.14-1.54,2.67,2.67,0,0,1,2.67-2.77c1.59,0,2.57,1.29,2.57,3.28a4.91,4.91,0,0,1-1.34,3.66,3.85,3.85,0,0,1-2.27,1,4.35,4.35,0,0,1-1,.06Zm.39-4.49a1.5,1.5,0,0,0,1.5,1.66,1.75,1.75,0,0,0,1.53-.82.66.66,0,0,0,.1-.38c0-1.33-.5-2.35-1.6-2.35C2032.88,606.65,2032.25,607.44,2032.25,608.54Z"/><path d="M2045.23,588h0l-1.36.73-.2-.8,1.7-.91h.9v7.79h-1Z"/><path d="M2049.09,594.77v-.64l.83-.81c2-1.89,2.89-2.9,2.9-4.08a1.39,1.39,0,0,0-1.54-1.52,2.66,2.66,0,0,0-1.66.66l-.33-.74a3.38,3.38,0,0,1,2.2-.79,2.19,2.19,0,0,1,2.39,2.26c0,1.44-1,2.61-2.69,4.19l-.62.57v0h3.5v.87Z"/><path d="M2055.15,592.8a2.23,2.23,0,0,1,1.55-2.09v0a1.94,1.94,0,0,1-1.24-1.75,2.19,2.19,0,0,1,2.42-2.07,2,2,0,0,1,2.26,1.91,2,2,0,0,1-1.28,1.83v0a2.17,2.17,0,0,1,1.57,2,2.4,2.4,0,0,1-2.65,2.27C2056.14,594.91,2055.15,593.93,2055.15,592.8Zm4.2,0c0-1-.66-1.41-1.71-1.71a1.71,1.71,0,0,0-1.41,1.61,1.45,1.45,0,0,0,1.56,1.49A1.41,1.41,0,0,0,2059.35,592.75Zm-2.9-3.9c0,.78.59,1.2,1.49,1.44a1.55,1.55,0,0,0,1.19-1.42,1.22,1.22,0,0,0-1.32-1.27A1.24,1.24,0,0,0,2056.45,588.85Z"/><path d="M2070.23,571h0l-1.36.73-.2-.8,1.7-.91h.9v7.79h-1Z"/><path d="M2074.09,577.77v-.64l.83-.81c2-1.89,2.89-2.9,2.9-4.08a1.39,1.39,0,0,0-1.54-1.52,2.66,2.66,0,0,0-1.66.66l-.33-.74a3.38,3.38,0,0,1,2.2-.79,2.19,2.19,0,0,1,2.39,2.26c0,1.44-1,2.61-2.69,4.19l-.62.57v0h3.5v.87Z"/><path d="M2085.31,570v.69l-3.39,7.1h-1.09l3.38-6.89v0h-3.82V570Z"/><path d="M2097.23,554.42h0l-1.36.73-.2-.8,1.7-.91h.9v7.8h-1Z"/><path d="M2101.09,561.24v-.65l.83-.81c2-1.89,2.89-2.9,2.9-4.07a1.39,1.39,0,0,0-1.54-1.53,2.66,2.66,0,0,0-1.66.66l-.33-.74a3.38,3.38,0,0,1,2.2-.79,2.19,2.19,0,0,1,2.39,2.26c0,1.44-1,2.61-2.69,4.19l-.62.58v0h3.5v.88Z"/><path d="M2111.7,554.18a3.8,3.8,0,0,0-.79.05,3.17,3.17,0,0,0-2.71,2.77h0a2.35,2.35,0,0,1,1.89-.9,2.32,2.32,0,0,1,2.35,2.52,2.61,2.61,0,0,1-2.59,2.75c-1.67,0-2.76-1.3-2.76-3.32a4.9,4.9,0,0,1,1.32-3.52,4.28,4.28,0,0,1,2.49-1.15,4.84,4.84,0,0,1,.77-.06Zm-.3,4.5a1.59,1.59,0,0,0-1.61-1.79,1.75,1.75,0,0,0-1.51,1,.93.93,0,0,0-.12.47c0,1.28.61,2.23,1.72,2.23C2110.79,560.55,2111.4,559.8,2111.4,558.68Z"/><path d="M2125.77,534.42h0l-1.35.73-.21-.8,1.71-.91h.9v7.8h-1Z"/><path d="M2129.63,541.24v-.65l.83-.81c2-1.89,2.89-2.9,2.9-4.07a1.39,1.39,0,0,0-1.54-1.53,2.66,2.66,0,0,0-1.66.66l-.33-.74a3.38,3.38,0,0,1,2.2-.79,2.19,2.19,0,0,1,2.39,2.26c0,1.44-1,2.61-2.69,4.19l-.62.58v0h3.5v.88Z"/><path d="M2140.44,534.33h-3l-.3,2a4.72,4.72,0,0,1,.63-.05,3.28,3.28,0,0,1,1.68.42,2.22,2.22,0,0,1,1.12,2,2.7,2.7,0,0,1-2.9,2.66,3.84,3.84,0,0,1-1.95-.48l.27-.81a3.37,3.37,0,0,0,1.66.44,1.72,1.72,0,0,0,1.85-1.7c0-1-.68-1.72-2.24-1.72a9.26,9.26,0,0,0-1.08.08l.5-3.74h3.73Z"/><path d="M2150.77,514.42h0l-1.35.73-.21-.8,1.71-.91h.9v7.8h-1Z"/><path d="M2154.63,521.24v-.65l.83-.81c2-1.89,2.89-2.9,2.9-4.07a1.39,1.39,0,0,0-1.54-1.53,2.66,2.66,0,0,0-1.66.66l-.33-.74a3.38,3.38,0,0,1,2.2-.79,2.19,2.19,0,0,1,2.39,2.26c0,1.44-1,2.61-2.69,4.19l-.62.58v0h3.5v.88Z"/><path d="M2164.05,521.24v-2.13h-3.62v-.69l3.48-5h1.14v4.85h1.09v.82h-1.09v2.13Zm0-3v-2.61c0-.41,0-.81,0-1.22h0c-.24.46-.43.79-.65,1.15l-1.9,2.65v0Z"/><path d="M2174.77,494.42h0l-1.35.73-.21-.8,1.71-.91h.9v7.8h-1Z"/><path d="M2178.63,501.24v-.65l.83-.81c2-1.89,2.89-2.9,2.9-4.07a1.39,1.39,0,0,0-1.54-1.53,2.66,2.66,0,0,0-1.66.66l-.33-.74a3.38,3.38,0,0,1,2.2-.79,2.19,2.19,0,0,1,2.39,2.26c0,1.44-1,2.61-2.69,4.19l-.62.58v0h3.5v.88Z"/><path d="M2185,500a3.45,3.45,0,0,0,1.73.5c1.35,0,1.77-.87,1.76-1.51,0-1.1-1-1.56-2-1.56h-.59v-.8h.59c.76,0,1.74-.39,1.74-1.31,0-.63-.4-1.18-1.37-1.18a2.86,2.86,0,0,0-1.56.52l-.28-.77a3.71,3.71,0,0,1,2-.6c1.54,0,2.23.91,2.23,1.86a1.94,1.94,0,0,1-1.44,1.83v0a2,2,0,0,1,1.74,2c0,1.25-1,2.34-2.84,2.34a4,4,0,0,1-2-.53Z"/><path d="M2199.77,474.42h0l-1.35.73-.21-.8,1.71-.91h.9v7.8h-1Z"/><path d="M2203.63,481.24v-.65l.83-.81c2-1.89,2.89-2.9,2.9-4.07a1.39,1.39,0,0,0-1.54-1.53,2.66,2.66,0,0,0-1.66.66l-.33-.74a3.38,3.38,0,0,1,2.2-.79,2.19,2.19,0,0,1,2.39,2.26c0,1.44-1,2.61-2.69,4.19l-.62.58v0h3.5v.88Z"/><path d="M2209.79,481.24v-.65l.83-.81c2-1.89,2.89-2.9,2.9-4.07a1.4,1.4,0,0,0-1.55-1.53,2.63,2.63,0,0,0-1.65.66l-.34-.74a3.41,3.41,0,0,1,2.21-.79,2.19,2.19,0,0,1,2.39,2.26c0,1.44-1,2.61-2.69,4.19l-.63.58v0h3.51v.88Z"/><path d="M2225.77,454.42h0l-1.35.73-.21-.8,1.71-.91h.9v7.8h-1Z"/><path d="M2229.63,461.24v-.65l.83-.81c2-1.89,2.89-2.9,2.9-4.07a1.39,1.39,0,0,0-1.54-1.53,2.66,2.66,0,0,0-1.66.66l-.33-.74a3.38,3.38,0,0,1,2.2-.79,2.19,2.19,0,0,1,2.39,2.26c0,1.44-1,2.61-2.69,4.19l-.62.58v0h3.5v.88Z"/><path d="M2238.08,454.42h0l-1.36.73-.2-.8,1.7-.91h.9v7.8h-1Z"/><path d="M2251.77,435.92h0l-1.35.73-.21-.8,1.71-.91h.9v7.8h-1Z"/><path d="M2255.63,442.74v-.65l.83-.81c2-1.89,2.89-2.9,2.9-4.07a1.39,1.39,0,0,0-1.54-1.53,2.66,2.66,0,0,0-1.66.66l-.33-.74a3.38,3.38,0,0,1,2.2-.79,2.19,2.19,0,0,1,2.39,2.26c0,1.44-1,2.61-2.69,4.19l-.62.58v0h3.5v.88Z"/><path d="M2267,438.75c0,2.65-1,4.12-2.71,4.12-1.52,0-2.55-1.43-2.58-4s1.13-4.05,2.71-4.05S2267,436.27,2267,438.75Zm-4.23.12c0,2,.62,3.18,1.58,3.18s1.6-1.26,1.6-3.25-.5-3.18-1.59-3.18C2263.41,435.62,2262.74,436.75,2262.74,438.87Z"/><path d="M2275.77,416.42h0l-1.35.73-.21-.8,1.71-.91h.9v7.8h-1Z"/><path d="M2281.92,416.42h0l-1.36.73-.2-.8,1.7-.91h.9v7.8h-1Z"/><path d="M2286.4,422.49a4.31,4.31,0,0,0,.85,0,3,3,0,0,0,1.63-.76,3.44,3.44,0,0,0,1-2.07h0a2.32,2.32,0,0,1-1.84.84,2.26,2.26,0,0,1-2.3-2.39,2.67,2.67,0,0,1,2.66-2.77c1.6,0,2.58,1.29,2.58,3.28a4.91,4.91,0,0,1-1.34,3.66,3.92,3.92,0,0,1-2.27,1.05,5,5,0,0,1-1,.06Zm.39-4.48a1.49,1.49,0,0,0,1.49,1.65,1.77,1.77,0,0,0,1.54-.81.72.72,0,0,0,.1-.39c0-1.33-.5-2.35-1.6-2.35C2287.42,416.11,2286.79,416.9,2286.79,418Z"/><path d="M2301.77,395h0l-1.35.73-.21-.8,1.71-.91h.9v7.79h-1Z"/><path d="M2307.92,395h0l-1.36.73-.2-.8,1.7-.91h.9v7.79h-1Z"/><path d="M2311.69,399.8a2.23,2.23,0,0,1,1.55-2.09v0a1.94,1.94,0,0,1-1.24-1.75,2.19,2.19,0,0,1,2.41-2.07,2,2,0,0,1,2.27,1.91,2,2,0,0,1-1.28,1.83v0a2.17,2.17,0,0,1,1.57,2,2.4,2.4,0,0,1-2.65,2.27C2312.68,401.91,2311.69,400.93,2311.69,399.8Zm4.2-.05c0-.95-.66-1.41-1.71-1.71a1.7,1.7,0,0,0-1.41,1.61,1.45,1.45,0,0,0,1.56,1.49A1.41,1.41,0,0,0,2315.89,399.75Zm-2.9-3.9c0,.78.59,1.2,1.49,1.44a1.54,1.54,0,0,0,1.18-1.42,1.21,1.21,0,0,0-1.32-1.27A1.24,1.24,0,0,0,2313,395.85Z"/><path d="M2325.77,373.5h0l-1.35.73-.21-.8,1.71-.91h.9v7.79h-1Z"/><path d="M2331.92,373.5h0l-1.36.73-.2-.8,1.7-.91h.9v7.79h-1Z"/><path d="M2340.85,372.52v.69l-3.39,7.1h-1.09l3.38-6.89v0h-3.82v-.87Z"/><path d="M2351.77,358h0l-1.35.73-.21-.8,1.71-.91h.9v7.79h-1Z"/><path d="M2357.92,358h0l-1.36.73-.2-.8,1.7-.91h.9v7.79h-1Z"/><path d="M2366.24,357.72a3.8,3.8,0,0,0-.79,0,3.17,3.17,0,0,0-2.71,2.77h0a2.38,2.38,0,0,1,4.24,1.62,2.61,2.61,0,0,1-2.59,2.75c-1.67,0-2.76-1.3-2.76-3.33a4.89,4.89,0,0,1,1.32-3.51,4.22,4.22,0,0,1,2.49-1.15,4.84,4.84,0,0,1,.77-.06Zm-.3,4.5a1.59,1.59,0,0,0-1.61-1.79,1.75,1.75,0,0,0-1.51,1,.93.93,0,0,0-.12.47c0,1.28.61,2.23,1.72,2.23C2365.33,364.09,2365.94,363.33,2365.94,362.22Z"/><path d="M2375.81,335.42h0l-1.35.73-.21-.8,1.71-.91h.9v7.8h-1Z"/><path d="M2382,335.42h0l-1.36.73-.2-.8,1.7-.91h.9v7.8h-1Z"/><path d="M2390.48,335.33h-3l-.3,2a4.58,4.58,0,0,1,.63-.05,3.28,3.28,0,0,1,1.68.42,2.24,2.24,0,0,1,1.12,2,2.71,2.71,0,0,1-2.91,2.66,3.8,3.8,0,0,1-1.94-.48l.27-.81a3.34,3.34,0,0,0,1.66.44,1.72,1.72,0,0,0,1.85-1.7c0-1-.68-1.72-2.24-1.72a9.26,9.26,0,0,0-1.08.08l.5-3.74h3.73Z"/><path d="M2403.77,319.92h0l-1.35.73-.21-.8,1.71-.91h.9v7.8h-1Z"/><path d="M2409.92,319.92h0l-1.36.73-.2-.8,1.7-.91h.9v7.8h-1Z"/><path d="M2417.05,326.74v-2.13h-3.62v-.69l3.48-5h1.14v4.85h1.09v.82h-1.09v2.13Zm0-2.95v-2.61c0-.41,0-.81,0-1.22h0c-.24.46-.43.79-.65,1.15l-1.9,2.65v0Z"/><path d="M2428.77,300.92h0l-1.35.73-.21-.8,1.71-.91h.9v7.8h-1Z"/><path d="M2434.92,300.92h0l-1.36.73-.2-.8,1.7-.91h.9v7.8h-1Z"/><path d="M2439,306.52a3.45,3.45,0,0,0,1.73.5c1.35,0,1.77-.87,1.76-1.51,0-1.1-1-1.56-2-1.56h-.59v-.8h.59c.76,0,1.74-.39,1.74-1.31,0-.63-.4-1.18-1.37-1.18a2.86,2.86,0,0,0-1.56.52l-.28-.77a3.71,3.71,0,0,1,2-.6c1.54,0,2.23.91,2.23,1.86a1.94,1.94,0,0,1-1.44,1.83v0a2,2,0,0,1,1.74,2c0,1.25-1,2.34-2.84,2.34a4,4,0,0,1-2-.53Z"/><path d="M2455.23,285.11h0l-1.36.74-.2-.81,1.7-.91h.9v7.8h-1Z"/><path d="M2461.38,285.11h0l-1.35.74-.21-.81,1.7-.91h.9v7.8h-1Z"/><path d="M2465.25,291.93v-.65l.83-.8c2-1.9,2.89-2.91,2.9-4.08a1.39,1.39,0,0,0-1.55-1.52,2.65,2.65,0,0,0-1.65.65l-.34-.74a3.46,3.46,0,0,1,2.21-.79,2.2,2.2,0,0,1,2.39,2.27c0,1.44-1.05,2.6-2.69,4.18l-.62.58v0h3.5v.88Z"/><path d="M2481.23,263.88h0l-1.36.74-.2-.81,1.7-.91h.9v7.8h-1Z"/><path d="M2487.38,263.88h0l-1.35.74-.21-.81,1.7-.91h.9v7.8h-1Z"/><path d="M2493.54,263.88h0l-1.36.74-.2-.81,1.7-.91h.9v7.8h-1Z"/><path d="M2505.77,249.42h0l-1.35.73-.21-.8,1.71-.91h.9v7.8h-1Z"/><path d="M2511.92,249.42h0l-1.36.73-.2-.8,1.7-.91h.9v7.8h-1Z"/><path d="M2521,252.25c0,2.65-1,4.12-2.71,4.12-1.52,0-2.55-1.43-2.58-4s1.13-4.05,2.71-4.05S2521,249.77,2521,252.25Zm-4.23.12c0,2,.62,3.18,1.58,3.18s1.6-1.26,1.6-3.25-.5-3.18-1.59-3.18C2517.41,249.12,2516.74,250.25,2516.74,252.37Z"/><path d="M2534.88,229h0l-1.36.73-.2-.8,1.7-.92h.9v7.8h-1Z"/><path d="M2543.93,231.86c0,2.65-1,4.11-2.71,4.11-1.53,0-2.56-1.43-2.58-4s1.12-4.06,2.71-4.06S2543.93,229.37,2543.93,231.86Zm-4.24.12c0,2,.63,3.18,1.59,3.18s1.59-1.26,1.59-3.25-.49-3.18-1.58-3.18C2540.36,228.73,2539.69,229.86,2539.69,232Z"/><path d="M2545.51,235.1a4.43,4.43,0,0,0,.85,0,2.94,2.94,0,0,0,1.64-.76,3.46,3.46,0,0,0,1-2.07h0a2.34,2.34,0,0,1-4.14-1.55,2.68,2.68,0,0,1,2.67-2.77c1.59,0,2.57,1.3,2.57,3.29a4.94,4.94,0,0,1-1.34,3.66,4,4,0,0,1-2.27,1,5,5,0,0,1-1,.06Zm.39-4.49a1.5,1.5,0,0,0,1.5,1.66,1.74,1.74,0,0,0,1.53-.82.71.71,0,0,0,.1-.38c0-1.33-.49-2.35-1.6-2.35C2546.53,228.72,2545.9,229.51,2545.9,230.61Z"/><path d="M2560.73,208.63h0l-1.35.73-.21-.8,1.7-.91h.91v7.79h-1Z"/><path d="M2569.77,211.46c0,2.65-1,4.12-2.71,4.12-1.52,0-2.55-1.43-2.58-4s1.13-4,2.71-4S2569.77,209,2569.77,211.46Zm-4.23.12c0,2,.62,3.18,1.58,3.18s1.6-1.26,1.6-3.25-.49-3.18-1.59-3.18C2566.21,208.33,2565.54,209.46,2565.54,211.58Z"/><path d="M2570.65,213.47a2.23,2.23,0,0,1,1.55-2.09v0a1.93,1.93,0,0,1-1.24-1.75,2.19,2.19,0,0,1,2.41-2.07,2,2,0,0,1,2.27,1.91,2,2,0,0,1-1.29,1.83v0a2.17,2.17,0,0,1,1.58,2,2.41,2.41,0,0,1-2.65,2.27C2571.63,215.58,2570.65,214.6,2570.65,213.47Zm4.2-.05c0-.95-.66-1.41-1.72-1.71a1.7,1.7,0,0,0-1.4,1.61,1.44,1.44,0,0,0,1.56,1.49A1.41,1.41,0,0,0,2574.85,213.42Zm-2.9-3.9c0,.78.58,1.2,1.48,1.44a1.55,1.55,0,0,0,1.19-1.42,1.21,1.21,0,0,0-1.32-1.27A1.24,1.24,0,0,0,2572,209.52Z"/><path d="M2581.77,188.23h0l-1.35.74-.21-.81,1.71-.91h.9v7.8h-1Z"/><path d="M2590.81,191.07c0,2.65-1,4.11-2.71,4.11-1.52,0-2.55-1.43-2.57-4s1.12-4,2.71-4S2590.81,188.58,2590.81,191.07Zm-4.23.11c0,2,.63,3.18,1.58,3.18s1.6-1.26,1.6-3.25-.49-3.18-1.58-3.18C2587.25,187.93,2586.58,189.06,2586.58,191.18Z"/><path d="M2596.85,187.25v.7l-3.39,7.1h-1.09l3.38-6.9v0h-3.82v-.88Z"/><path d="M2608.77,167.84h0l-1.35.73-.21-.8,1.71-.91h.9v7.79h-1Z"/><path d="M2617.81,170.67c0,2.65-1,4.11-2.71,4.11-1.52,0-2.55-1.42-2.57-4s1.12-4.06,2.71-4.06S2617.81,168.19,2617.81,170.67Zm-4.23.12c0,2,.63,3.18,1.58,3.18s1.6-1.26,1.6-3.25-.49-3.18-1.58-3.18C2614.25,167.54,2613.58,168.67,2613.58,170.79Z"/><path d="M2623.24,167.6a3.8,3.8,0,0,0-.79.05,3.15,3.15,0,0,0-2.71,2.77h0A2.38,2.38,0,0,1,2624,172a2.6,2.6,0,0,1-2.59,2.74c-1.67,0-2.76-1.29-2.76-3.32A4.88,4.88,0,0,1,2620,168a4.22,4.22,0,0,1,2.49-1.15,4.84,4.84,0,0,1,.77-.06Zm-.3,4.5a1.59,1.59,0,0,0-1.61-1.79,1.73,1.73,0,0,0-1.51,1,.9.9,0,0,0-.12.47c0,1.28.61,2.23,1.72,2.23C2622.33,174,2622.94,173.21,2622.94,172.1Z"/><path d="M2634.77,153.42h0l-1.35.73-.21-.8,1.71-.91h.9v7.8h-1Z"/><path d="M2643.81,156.25c0,2.65-1,4.12-2.71,4.12-1.52,0-2.55-1.43-2.57-4s1.12-4.05,2.71-4.05S2643.81,153.77,2643.81,156.25Zm-4.23.12c0,2,.63,3.18,1.58,3.18s1.6-1.26,1.6-3.25-.49-3.18-1.58-3.18C2640.25,153.12,2639.58,154.25,2639.58,156.37Z"/><path d="M2649.44,153.33h-3l-.3,2a4.72,4.72,0,0,1,.63-.05,3.28,3.28,0,0,1,1.68.42,2.22,2.22,0,0,1,1.12,2,2.7,2.7,0,0,1-2.9,2.66,3.84,3.84,0,0,1-1.95-.48l.27-.81a3.37,3.37,0,0,0,1.66.44,1.72,1.72,0,0,0,1.85-1.7c0-1-.68-1.72-2.24-1.72a9.26,9.26,0,0,0-1.08.08l.5-3.74h3.73Z"/><path d="M2659.77,132.15h0l-1.35.73-.21-.8,1.71-.92h.9V139h-1Z"/><path d="M2668.81,135c0,2.65-1,4.11-2.71,4.11-1.52,0-2.55-1.42-2.57-4s1.12-4.06,2.71-4.06S2668.81,132.5,2668.81,135Zm-4.23.12c0,2,.63,3.18,1.58,3.18s1.6-1.26,1.6-3.25-.49-3.18-1.58-3.18C2665.25,131.85,2664.58,133,2664.58,135.1Z"/><path d="M2673.05,139v-2.12h-3.62v-.7l3.48-5h1.14V136h1.09v.83h-1.09V139Zm0-3v-2.6c0-.41,0-.82,0-1.23h0c-.24.46-.43.8-.65,1.16l-1.9,2.65v0Z"/><path d="M2686.77,115.42h0l-1.35.73-.21-.8,1.71-.91h.9v7.8h-1Z"/><path d="M2695.81,118.25c0,2.65-1,4.12-2.71,4.12-1.52,0-2.55-1.43-2.57-4s1.12-4,2.71-4S2695.81,115.77,2695.81,118.25Zm-4.23.12c0,2,.63,3.18,1.58,3.18s1.6-1.26,1.6-3.25-.49-3.18-1.58-3.18C2692.25,115.12,2691.58,116.25,2691.58,118.37Z"/><path d="M2697,121a3.45,3.45,0,0,0,1.73.5c1.35,0,1.77-.87,1.76-1.51,0-1.1-1-1.56-2-1.56h-.59v-.8h.59c.76,0,1.74-.39,1.74-1.31,0-.63-.4-1.18-1.37-1.18a2.86,2.86,0,0,0-1.56.52l-.28-.77a3.71,3.71,0,0,1,2-.6c1.54,0,2.23.91,2.23,1.86a1.94,1.94,0,0,1-1.44,1.83v0a2,2,0,0,1,1.74,2c0,1.25-1,2.34-2.84,2.34a4,4,0,0,1-2-.53Z"/><path d="M2715.27,98.7h0l-1.35.73-.21-.8,1.7-.91h.9v7.79h-1Z"/><path d="M2724.32,101.53c0,2.65-1,4.11-2.71,4.11-1.52,0-2.55-1.42-2.58-4s1.13-4.06,2.71-4.06S2724.32,99.05,2724.32,101.53Zm-4.23.12c0,2,.62,3.18,1.58,3.18s1.6-1.26,1.6-3.25-.5-3.18-1.59-3.18C2720.76,98.4,2720.09,99.53,2720.09,101.65Z"/><path d="M2725.3,105.51v-.65l.82-.8c2-1.89,2.89-2.9,2.91-4.08a1.39,1.39,0,0,0-1.55-1.52,2.66,2.66,0,0,0-1.66.66l-.33-.74a3.41,3.41,0,0,1,2.21-.8,2.19,2.19,0,0,1,2.38,2.27c0,1.44-1,2.6-2.68,4.19l-.63.57v0h3.5v.87Z"/><path d="M2739.77,82h0l-1.35.74-.21-.81,1.71-.91h.9v7.8h-1Z"/><path d="M2748.81,84.8c0,2.66-1,4.12-2.71,4.12-1.52,0-2.55-1.43-2.57-4s1.12-4,2.71-4S2748.81,82.32,2748.81,84.8Zm-4.23.12c0,2,.63,3.18,1.58,3.18s1.6-1.26,1.6-3.25-.49-3.18-1.58-3.18C2745.25,81.67,2744.58,82.8,2744.58,84.92Z"/><path d="M2752.08,82h0l-1.36.74-.2-.81,1.7-.91h.9v7.8h-1Z"/></g></g></svg>