<svg width="118" height="118" viewBox="0 0 118 118" fill="none" xmlns="http://www.w3.org/2000/svg">
<g clip-path="url(#clip0_159_54)">
<path d="M117.798 16.3633C117.827 12.2437 115.955 9.79492 112.584 8.00879C107.888 5.50244 102.789 4.26367 97.6035 3.25537C87.7798 1.354 77.8408 0.576172 67.873 0.20166C67.873 0.172852 67.873 0.144043 67.873 0.144043H65.5396C64.3296 0.0864258 63.0908 0.288086 61.852 0.0288086H55.8887C54.6787 0.288086 53.4399 0.0864258 52.2012 0.144043H49.8677C49.8677 0.172852 49.8677 0.20166 49.8677 0.20166C44.0195 0.345703 38.1714 0.777832 32.3809 1.44043C24.084 2.39111 15.8447 3.57227 8.00879 6.68359C6.56836 7.25977 5.15674 7.97998 3.86035 8.81543C2.0166 9.96777 0.720215 11.5522 0.0288086 13.5977V104.662C1.41162 107.975 4.29248 109.559 7.375 110.884C12.6758 113.16 18.2646 114.312 23.9111 115.206C36.9038 117.28 50.0117 117.942 63.1484 117.741C70.2354 117.625 77.2934 117.136 84.3516 116.444C90.9199 115.782 97.4595 114.831 103.855 113.131C107.744 112.123 111.518 110.827 114.831 108.436C116.819 106.966 117.798 105.065 117.798 102.472C117.741 73.75 117.683 45.0566 117.798 16.3633ZM14.75 25.438V108.176C11.8403 107.341 9.10352 106.505 6.59717 105.123C5.47363 104.489 4.95508 103.653 4.95508 102.271C4.98389 75.5073 4.98389 48.7153 4.98389 21.9521V20.6558C8.0376 22.269 11.1489 23.335 14.3755 24.1704C14.6636 24.228 14.75 24.3721 14.75 24.6313C14.75 24.8906 14.75 25.1787 14.75 25.438ZM19.6763 81.8164C19.6763 81.0962 19.8491 80.9233 20.5693 80.9233C26.5039 80.9521 32.4385 80.9521 38.373 80.9233C39.0933 80.9233 39.2661 81.125 39.2373 81.8164C39.2085 84.4668 39.1797 87.0884 39.2373 89.7388C39.2661 90.603 38.9204 90.7183 38.1714 90.7183C35.2329 90.6895 32.2656 90.6894 29.3272 90.6894C26.4463 90.6894 23.5942 90.6606 20.7134 90.7183C19.9355 90.7183 19.6475 90.5742 19.6475 89.7388C19.7339 87.1172 19.7051 84.4668 19.6763 81.8164ZM19.6763 37.7393C19.6763 36.9902 19.8491 36.7886 20.5981 36.7886C23.5366 36.8462 26.5039 36.8174 29.4424 36.8174C32.3809 36.8174 35.3481 36.8462 38.2866 36.7886C39.0356 36.7886 39.2373 36.9902 39.2373 37.7393C39.1797 40.332 39.1797 42.9536 39.2373 45.5464C39.2373 46.3242 39.0933 46.6123 38.2578 46.5835C32.4097 46.5547 26.5327 46.5547 20.6846 46.5835C19.8491 46.5835 19.6763 46.3242 19.6763 45.5464C19.7051 42.9536 19.7051 40.3608 19.6763 37.7393ZM39.2373 75.104C39.2373 75.7954 39.0933 76.0259 38.3442 76.0259C32.4097 75.9971 26.4751 75.9971 20.5405 76.0259C19.7915 76.0259 19.6475 75.7666 19.6763 75.104C19.7051 72.4248 19.7051 69.7456 19.6763 67.0664C19.6763 66.4038 19.8491 66.231 20.5117 66.231C23.5078 66.2598 26.4751 66.231 29.4712 66.231C32.4097 66.231 35.377 66.2598 38.3154 66.2021C39.0933 66.2021 39.2661 66.4326 39.2373 67.1528C39.1797 69.832 39.2085 72.4536 39.2373 75.104ZM39.2373 60.3828C39.2373 61.0454 39.0933 61.3047 38.3442 61.3047C32.4097 61.2759 26.4751 61.2759 20.5405 61.3047C19.7915 61.3047 19.6475 61.0454 19.6763 60.3828C19.7051 57.7036 19.7051 55.0244 19.6763 52.3452C19.6763 51.6826 19.8491 51.5098 20.5117 51.5098C23.5078 51.5386 26.4751 51.5386 29.4712 51.5386C32.4097 51.5386 35.377 51.5674 38.3154 51.5098C39.0933 51.481 39.2661 51.7402 39.2373 52.4604C39.1797 55.1108 39.2085 57.7324 39.2373 60.3828ZM38.2002 112.008C32.2944 111.403 26.3599 110.769 20.5405 109.559C19.8491 109.415 19.6763 109.213 19.6763 108.551C19.7051 104.518 19.7051 100.513 19.6763 96.5088C19.6763 95.8462 19.8779 95.6733 20.5117 95.7021C23.5078 95.731 26.4751 95.7021 29.4712 95.7021C32.4097 95.7021 35.3481 95.731 38.3154 95.6733C39.0645 95.6733 39.2661 95.875 39.2661 96.624C39.2373 101.435 39.2373 106.275 39.2661 111.086C39.2373 111.921 38.978 112.094 38.2002 112.008ZM36.27 31.8623H29.3848C26.5039 31.8623 23.6519 31.8047 20.771 31.8911C19.8491 31.9199 19.6187 31.603 19.6475 30.7388C19.7051 29.2983 19.7051 27.8291 19.6475 26.3887C19.6187 25.582 19.9067 25.438 20.627 25.5532C23.1333 25.9854 25.6685 26.3887 28.1748 26.7632C31.459 27.2529 34.772 27.5986 38.085 27.8291C38.8916 27.8867 39.2085 28.002 39.2085 28.9238C39.2085 31.8623 39.2661 31.8623 36.27 31.8623ZM14.6348 19.1001C11.8979 18.3799 9.21875 17.5444 6.74121 16.1328C4.43652 14.8364 4.43652 13.8569 6.74121 12.5605C9.93896 10.7744 13.4248 9.82373 16.9683 8.98828C24.2568 7.25977 31.6894 6.33789 39.1509 5.7041C48.5713 4.92627 57.9917 4.81104 67.4121 5.09912C79.2812 5.44482 91.064 6.48193 102.616 9.44922C105.411 10.1694 108.205 11.0049 110.74 12.4165C111.547 12.8774 112.67 13.252 112.699 14.3179C112.728 15.499 111.576 15.8735 110.74 16.3345C106.851 18.3511 102.616 19.3882 98.3813 20.2812C85.4463 22.9893 72.3096 23.7095 56.9546 23.7671C53.3823 23.8535 47.6206 23.623 41.8877 23.2197C32.6978 22.5283 23.5366 21.52 14.6348 19.1001ZM110.711 105.382C107.571 107.024 104.201 107.946 100.801 108.781C93.5127 110.51 86.0801 111.432 78.6187 112.065C69.2271 112.872 59.8066 112.843 50.3862 112.699C48.5425 112.67 46.6987 112.526 44.8838 112.469C44.3364 112.469 44.106 112.296 44.1924 111.749C44.2212 111.518 44.1924 111.288 44.1924 111.057C44.1924 83.8906 44.1924 56.7241 44.1636 29.5864C44.1636 28.5493 44.394 28.2324 45.46 28.3188C50.415 28.6646 55.3989 28.8374 60.3828 28.751C68.9102 28.6357 77.4375 28.2036 85.936 27.1953C93.1382 26.3599 100.312 25.2939 107.226 23.0469C109.098 22.4419 110.913 21.6353 112.814 20.6846V22.0386C112.814 48.6865 112.786 75.3633 112.843 102.04C112.843 103.74 112.123 104.662 110.711 105.382Z" fill="#8CCBF0"/>
<path d="M67.9019 0.230469C67.8442 0.20166 67.7866 0.172852 67.7866 0.172852V0.144043C67.8154 0.0864258 67.8442 0.0576172 67.873 0.0576172C67.873 0.0864258 67.9019 0.144043 67.9019 0.172852C67.873 0.172852 67.9019 0.20166 67.9019 0.230469Z" fill="white"/>
<path d="M50.0117 0.144043C49.9829 0.144043 49.9829 0.144043 50.0117 0.144043C49.9541 0.20166 49.9253 0.20166 49.8965 0.20166C49.8965 0.172852 49.8965 0.144043 49.8965 0.144043C49.8965 0.115234 49.8965 0.0576172 49.9253 0.0288086C49.9829 0.0576172 50.0117 0.115234 50.0117 0.144043Z" fill="white"/>
<path d="M55.8887 0.0288086C54.6787 0.460938 53.4111 0.20166 52.1724 0.230469C52.1147 0.144043 52.1147 0.0864258 52.2012 0.0288086C53.4399 0.0288086 54.6787 0.0288086 55.8887 0.0288086Z" fill="#444247"/>
<path d="M65.5972 0.230469C64.3584 0.230469 63.0908 0.489746 61.8809 0.0288086C63.1196 0.0288086 64.3296 0.0288086 65.5684 0.0288086C65.626 0.0576172 65.6548 0.115234 65.6548 0.144043C65.626 0.20166 65.5972 0.230469 65.5972 0.230469Z" fill="#444247"/>
<path d="M52.23 0.0288086C52.23 0.0576172 52.23 0.115234 52.2012 0.144043C52.2012 0.172852 52.2012 0.20166 52.1724 0.230469C51.3945 0.230469 50.6455 0.230469 49.8677 0.230469C49.8677 0.20166 49.8677 0.172852 49.8677 0.172852C49.8677 0.144043 49.8677 0.0864258 49.8965 0.0576172H52.23V0.0288086Z" fill="#8C898E"/>
<path d="M67.9019 0.230469C67.124 0.230469 66.375 0.230469 65.5972 0.230469C65.5972 0.20166 65.5972 0.172852 65.5684 0.144043C65.5684 0.115234 65.5684 0.0576172 65.5396 0.0288086H67.8442C67.8442 0.0576172 67.873 0.115234 67.873 0.144043C67.873 0.172852 67.9019 0.20166 67.9019 0.230469Z" fill="#8C898E"/>
</g>
<defs>
<clipPath id="clip0_159_54">
<rect width="118" height="118" fill="white"/>
</clipPath>
</defs>
</svg>
