<svg width="167" height="167" viewBox="0 0 167 167" fill="none" xmlns="http://www.w3.org/2000/svg">
<g clip-path="url(#clip0_159_39)">
<path d="M133.47 123.782C133.535 134.84 129.392 143.744 120.39 150.267C119.705 150.757 119.607 151.311 119.607 152.029C119.607 154.41 119.77 156.791 119.02 159.107C117.65 163.216 114.878 165.858 110.54 166.641C110.409 166.674 110.344 166.837 110.246 166.935C110.246 166.25 110.833 166.217 111.257 166.054C116.639 164.325 119.053 160.411 119.216 154.997C119.346 149.909 119.118 150.822 122.445 148.017C128.283 143.092 131.643 136.731 132.785 129.164C132.915 128.251 132.948 127.338 132.948 126.392C132.948 105.191 133.013 83.9893 132.915 62.7555C132.883 55.7102 130.175 49.5456 125.511 44.2616C121.369 39.5973 116.28 36.4009 110.181 34.9005C108.452 34.4764 108.224 34.085 108.191 32.0628C108.159 25.0501 108.191 18.07 108.191 11.0573C108.191 9.68738 108.061 8.35007 107.767 7.01277C106.984 3.4575 104.082 0.880738 100.298 0.848121C89.0124 0.750269 77.6942 0.750269 66.3761 0.848121C62.038 0.880738 58.8741 4.30554 58.8741 8.67625C58.8415 16.3739 58.8741 24.0716 58.8741 31.7692C58.8741 34.3134 58.7437 34.4764 56.2974 35.0962C43.0548 38.521 33.7589 50.4915 33.7589 64.1581C33.7589 84.6091 33.6937 105.06 33.7915 125.511C33.8241 135.198 37.9013 143.026 45.4358 148.995C46.8384 150.137 47.4907 151.311 47.4907 153.105C47.4581 156.204 47.6864 159.27 49.6108 161.977C50.8829 163.771 52.5464 164.978 54.5687 165.826C55.1558 166.087 56.0038 166.087 56.1343 167C55.4167 166.348 54.4382 166.413 53.6554 165.989C49.2521 163.738 47.0667 160.053 47.2298 155.225C47.3276 152.322 46.5448 150.463 44.1312 148.474C36.8575 142.472 33.3022 134.481 33.3022 124.989C33.3022 104.799 33.3022 84.6417 33.3022 64.4843C33.3022 49.9696 42.8265 37.9339 57.0476 34.5417C58.0587 34.2807 58.3849 33.8567 58.3849 32.813C58.3522 24.5608 58.3196 16.3413 58.4501 8.08914C58.5153 3.88152 62.1685 0.424097 66.3761 0.424097C77.6942 0.326246 89.045 0.326246 100.396 0.358863C105.093 0.39148 108.452 4.24031 108.485 9.52429C108.517 17.222 108.517 24.9196 108.452 32.6173C108.452 33.7915 108.746 34.2807 109.953 34.5417C121.891 37.1511 131.35 47.5233 133.111 59.7221C133.404 61.7118 133.437 63.7014 133.437 65.7237C133.47 85.0657 133.404 104.44 133.47 123.782Z" fill="white"/>
<path d="M105.81 99.8412C103.299 94.8508 99.4499 91.002 95.2097 87.4793C92.0784 84.8699 88.8167 82.4237 85.979 79.5207C84.3482 77.8572 83.0109 75.9981 82.913 73.5844C82.8478 71.66 84.3808 70.5836 85.6528 69.4094C86.664 68.4635 86.7618 67.224 86.1747 65.9846C85.555 64.6473 84.4134 64.0928 83.0109 64.1906C82.2607 64.2559 81.5431 64.4842 80.7929 64.7125C77.0419 65.7889 74.3673 68.2352 72.3777 71.4643C68.9528 77.107 67.2241 83.076 69.1486 89.6647C69.8661 92.0783 71.236 94.1658 72.4755 96.286C73.1605 97.4602 73.715 98.667 73.715 100.07C73.715 101.309 73.3888 102.222 71.8558 102.027C70.1597 101.831 69.8009 101.439 70.0944 99.7434C70.1597 99.4172 70.2902 99.1236 70.3554 98.7975C70.6489 97.2971 70.4859 95.9598 69.0507 95.1117C67.7786 94.3615 66.4087 94.6551 65.104 95.9272C62.0054 98.9606 59.9831 102.581 58.9068 106.756C56.5583 115.758 60.7007 124.402 69.2138 128.186C73.715 130.175 78.4118 130.893 83.6958 130.795C86.5009 130.925 89.6974 130.567 92.796 129.784C100.2 127.892 105.908 123.978 107.8 116.182C109.235 110.605 108.42 105.06 105.81 99.8412ZM102.744 112.138C102.516 117.291 100.07 121.075 95.3401 122.999C87.3816 126.261 79.2273 126.261 71.3013 122.967C63.6036 119.77 62.6577 111.29 65.1366 105.745C65.5933 104.734 65.8868 105.19 66.3761 105.647C68.4636 107.669 71.0077 108.159 73.7476 107.604C78.2814 106.691 80.4667 102.32 79.0968 97.3297C78.6402 95.6336 77.9552 94.068 76.9441 92.6655C72.5734 86.6313 73.6171 80.6297 77.2376 74.302C77.8573 79.0315 80.4015 82.228 83.4675 85.033C87.3816 88.6209 91.7849 91.6869 95.5685 95.4053C100.233 100.004 103.07 105.386 102.744 112.138Z" fill="#020203"/>
<path d="M97.1992 16.5694C97.0035 13.6013 94.7529 11.4485 91.7521 11.4485C86.1094 11.4159 80.4666 11.3833 74.8238 11.4485C71.823 11.4812 69.5398 13.8622 69.442 16.8304C69.4094 18.4938 69.4094 20.1899 69.4094 21.8534C69.442 25.9958 71.5295 28.1159 75.7045 28.1812C78.216 28.2138 80.6949 28.1812 83.2064 28.1812H90.8715C90.9693 28.1812 91.0998 28.1812 91.1977 28.1812C94.9813 28.0507 97.134 25.9632 97.2318 22.2448C97.3297 20.353 97.3297 18.4612 97.1992 16.5694ZM91.3934 22.2448C90.741 23.0929 88.8492 22.4405 87.5119 22.5058C86.1094 22.5384 84.6742 22.5058 83.2717 22.5058C80.8906 22.5058 78.477 22.4731 76.0959 22.5384C75.2805 22.5384 74.9217 22.4079 74.9869 21.4946C75.0848 20.353 75.0521 19.2114 74.9869 18.0698C74.9217 17.1565 75.3457 17.0261 76.1285 17.0261C80.9232 17.0587 85.6853 17.0587 90.4801 17.0261C91.3934 17.0261 91.7522 17.2544 91.6869 18.2003C91.5891 19.5702 92.0783 21.3315 91.3934 22.2448ZM97.1992 16.5694C97.0035 13.6013 94.7529 11.4485 91.7521 11.4485C86.1094 11.4159 80.4666 11.3833 74.8238 11.4485C71.823 11.4812 69.5398 13.8622 69.442 16.8304C69.4094 18.4938 69.4094 20.1899 69.4094 21.8534C69.442 25.9958 71.5295 28.1159 75.7045 28.1812C78.216 28.2138 80.6949 28.1812 83.2064 28.1812H90.8715C90.9693 28.1812 91.0998 28.1812 91.1977 28.1812C94.9813 28.0507 97.134 25.9632 97.2318 22.2448C97.3297 20.353 97.3297 18.4612 97.1992 16.5694ZM91.3934 22.2448C90.741 23.0929 88.8492 22.4405 87.5119 22.5058C86.1094 22.5384 84.6742 22.5058 83.2717 22.5058C80.8906 22.5058 78.477 22.4731 76.0959 22.5384C75.2805 22.5384 74.9217 22.4079 74.9869 21.4946C75.0848 20.353 75.0521 19.2114 74.9869 18.0698C74.9217 17.1565 75.3457 17.0261 76.1285 17.0261C80.9232 17.0587 85.6853 17.0587 90.4801 17.0261C91.3934 17.0261 91.7522 17.2544 91.6869 18.2003C91.5891 19.5702 92.0783 21.3315 91.3934 22.2448ZM133.437 65.7235C133.437 63.7339 133.404 61.7442 133.111 59.722C131.349 47.5231 121.89 37.1509 109.953 34.5415C108.746 34.2806 108.452 33.7913 108.452 32.6171C108.517 24.9194 108.517 17.2218 108.485 9.52412C108.452 4.24014 105.125 0.391309 100.396 0.358691C89.0449 0.326074 77.6941 0.326074 66.3434 0.358691C62.1357 0.358691 58.4826 3.84873 58.4174 8.02373C58.2869 16.2759 58.3195 24.4954 58.3521 32.7476C58.3521 33.8239 58.026 34.2479 57.0148 34.4763C42.7938 37.8685 33.2695 49.9042 33.2695 64.4188C33.2695 84.5763 33.2695 104.766 33.2695 124.924C33.2695 134.415 36.8248 142.407 44.0984 148.408C46.5121 150.398 47.2623 152.257 47.1971 155.16C47.034 159.987 49.2193 163.673 53.6227 165.924C54.4381 166.348 55.4166 166.282 56.1016 166.935H110.246C110.344 166.837 110.442 166.641 110.54 166.641C114.91 165.826 117.65 163.216 119.02 159.107C119.803 156.791 119.64 154.41 119.607 152.029C119.607 151.311 119.705 150.757 120.39 150.267C129.392 143.744 133.502 134.839 133.47 123.782C133.404 104.44 133.47 85.0655 133.437 65.7235ZM127.827 124.858C127.794 132.1 125.25 138.362 119.933 143.418C114.943 148.18 108.909 150.3 102.092 150.333C89.5994 150.365 77.107 150.398 64.6147 150.333C53.166 150.267 44.4246 144.135 40.3475 133.404C39.2711 130.534 38.8797 127.533 38.8797 124.5C38.8471 104.636 38.8471 84.8046 38.8797 64.9407C38.9123 52.5788 46.4795 42.9241 58.45 39.9233C60.2439 39.4667 62.0705 39.3362 63.9297 39.3362C77.4658 39.3362 91.0019 39.271 104.505 39.4341C115.693 39.5646 126.326 49.5128 127.566 60.6026C127.762 62.4944 127.859 64.3862 127.859 66.278C127.859 75.6718 127.859 85.0329 127.859 94.4267C127.859 104.571 127.892 114.715 127.827 124.858ZM63.9297 9.45889C63.9297 6.94736 64.9408 5.90361 67.485 5.90361C78.0855 5.90361 88.6535 5.90361 99.2541 5.90361C101.798 5.90361 102.777 6.91475 102.777 9.45889C102.777 17.0587 102.744 24.6259 102.809 32.2257C102.809 33.3999 102.451 33.6282 101.342 33.5956C95.3074 33.5304 89.3059 33.563 83.2717 33.563C77.3027 33.563 71.3338 33.5304 65.3648 33.5956C64.2559 33.5956 63.8971 33.3999 63.8971 32.2257C63.9623 24.6585 63.9297 17.0587 63.9297 9.45889ZM107.408 161.455C91.4912 161.455 75.6066 161.39 59.6895 161.488C55.2535 161.52 52.1223 158.911 52.9377 153.888C57.7977 155.812 62.7555 155.975 67.7459 155.943C77.368 155.877 86.9574 155.91 96.5795 155.943C102.385 155.943 108.191 156.204 113.704 153.92C114.454 158.715 112.138 161.455 107.408 161.455ZM75.7697 28.1812C78.2812 28.2138 80.7602 28.1812 83.2717 28.1812H90.9367C91.0346 28.1812 91.165 28.1812 91.2629 28.1812C95.0465 28.0507 97.1992 25.9632 97.2971 22.2448C97.3297 20.353 97.3623 18.4612 97.2318 16.5694C97.0361 13.6013 94.7855 11.4485 91.7848 11.4485C86.142 11.4159 80.4992 11.3833 74.8564 11.4485C71.8557 11.4812 69.5725 13.8622 69.4746 16.8304C69.442 18.4938 69.442 20.1899 69.442 21.8534C69.4746 25.9958 71.5947 28.1159 75.7697 28.1812ZM76.1611 16.9935C80.9559 17.0261 85.718 17.0261 90.5127 16.9935C91.426 16.9935 91.7848 17.2218 91.7195 18.1677C91.6217 19.5702 92.1109 21.3315 91.426 22.2448C90.7736 23.0929 88.8818 22.4405 87.5445 22.5058C86.142 22.5384 84.7068 22.5058 83.3043 22.5058C80.9232 22.5058 78.5096 22.4731 76.1285 22.5384C75.3131 22.5384 74.9543 22.4079 75.0195 21.4946C75.1174 20.353 75.0848 19.2114 75.0195 18.0698C74.9543 17.1239 75.3457 16.9935 76.1611 16.9935Z" fill="#8CCBF0"/>
<path d="M105.81 99.8412C103.299 94.8508 99.4499 91.002 95.2097 87.4793C92.0784 84.8699 88.8167 82.4237 85.979 79.5207C84.3482 77.8572 83.0109 75.9981 82.913 73.5844C82.8478 71.66 84.3808 70.5836 85.6528 69.4094C86.664 68.4635 86.7618 67.224 86.1747 65.9846C85.555 64.6473 84.4134 64.0928 83.0109 64.1906C82.2607 64.2559 81.5431 64.4842 80.7929 64.7125C77.0419 65.7889 74.3673 68.2352 72.3777 71.4643C68.9528 77.107 67.2241 83.076 69.1486 89.6647C69.8661 92.0783 71.236 94.1658 72.4755 96.286C73.1605 97.4602 73.715 98.667 73.715 100.07C73.715 101.309 73.3888 102.222 71.8558 102.027C70.1597 101.831 69.8009 101.439 70.0944 99.7434C70.1597 99.4172 70.2902 99.1236 70.3554 98.7975C70.6489 97.2971 70.4859 95.9598 69.0507 95.1117C67.7786 94.3615 66.4087 94.6551 65.104 95.9272C62.0054 98.9606 59.9831 102.581 58.9068 106.756C56.5583 115.758 60.7007 124.402 69.2138 128.186C73.715 130.175 78.4118 130.893 83.6958 130.795C86.5009 130.925 89.6974 130.567 92.796 129.784C100.2 127.892 105.908 123.978 107.8 116.182C109.235 110.605 108.42 105.06 105.81 99.8412ZM102.744 112.138C102.516 117.291 100.07 121.075 95.3401 122.999C87.3816 126.261 79.2273 126.261 71.3013 122.967C63.6036 119.77 62.6577 111.29 65.1366 105.745C65.5933 104.734 65.8868 105.19 66.3761 105.647C68.4636 107.669 71.0077 108.159 73.7476 107.604C78.2814 106.691 80.4667 102.32 79.0968 97.3297C78.6402 95.6336 77.9552 94.068 76.9441 92.6655C72.5734 86.6313 73.6171 80.6297 77.2376 74.302C77.8573 79.0315 80.4015 82.228 83.4675 85.033C87.3816 88.6209 91.7849 91.6869 95.5685 95.4053C100.233 100.004 103.07 105.386 102.744 112.138Z" fill="white"/>
<path d="M97.1993 16.5695C97.0036 13.6013 94.753 11.4486 91.7522 11.4486C86.1094 11.4159 80.4666 11.3833 74.8239 11.4486C71.8231 11.4812 69.5399 13.8622 69.442 16.8304C69.4094 18.4939 69.4094 20.19 69.4094 21.8534C69.442 25.9958 71.5295 28.1159 75.7045 28.1812C78.2161 28.2138 80.695 28.1812 83.2065 28.1812H90.8715C90.9694 28.1812 91.0999 28.1812 91.1977 28.1812C94.9813 28.0507 97.134 25.9632 97.2319 22.2448C97.3297 20.353 97.3297 18.4612 97.1993 16.5695ZM91.3934 22.2448C90.7411 23.0929 88.8493 22.4405 87.512 22.5058C86.1094 22.5384 84.6743 22.5058 83.2717 22.5058C80.8907 22.5058 78.477 22.4732 76.0959 22.5384C75.2805 22.5384 74.9217 22.4079 74.987 21.4946C75.0848 20.353 75.0522 19.2114 74.987 18.0698C74.9217 17.1566 75.3457 17.0261 76.1286 17.0261C80.9233 17.0587 85.6854 17.0587 90.4801 17.0261C91.3934 17.0261 91.7522 17.2544 91.687 18.2003C91.5891 19.5702 92.0784 21.3316 91.3934 22.2448Z" fill="white"/>
<path d="M105.81 99.8412C103.299 94.8508 99.4499 91.002 95.2097 87.4793C92.0784 84.8699 88.8167 82.4237 85.979 79.5207C84.3482 77.8572 83.0109 75.9981 82.913 73.5844C82.8478 71.66 84.3808 70.5836 85.6528 69.4094C86.664 68.4635 86.7618 67.224 86.1747 65.9846C85.555 64.6473 84.4134 64.0928 83.0109 64.1906C82.2607 64.2559 81.5431 64.4842 80.7929 64.7125C77.0419 65.7889 74.3673 68.2352 72.3777 71.4643C68.9528 77.107 67.2241 83.076 69.1486 89.6647C69.8661 92.0783 71.236 94.1658 72.4755 96.286C73.1605 97.4602 73.715 98.667 73.715 100.07C73.715 101.309 73.3888 102.222 71.8558 102.027C70.1597 101.831 69.8009 101.439 70.0944 99.7434C70.1597 99.4172 70.2902 99.1236 70.3554 98.7975C70.6489 97.2971 70.4859 95.9598 69.0507 95.1117C67.7786 94.3615 66.4087 94.6551 65.104 95.9272C62.0054 98.9606 59.9831 102.581 58.9068 106.756C56.5583 115.758 60.7007 124.402 69.2138 128.186C73.715 130.175 78.4118 130.893 83.6958 130.795C86.5009 130.925 89.6974 130.567 92.796 129.784C100.2 127.892 105.908 123.978 107.8 116.182C109.235 110.605 108.42 105.06 105.81 99.8412ZM102.744 112.138C102.516 117.291 100.07 121.075 95.3401 122.999C87.3816 126.261 79.2273 126.261 71.3013 122.967C63.6036 119.77 62.6577 111.29 65.1366 105.745C65.5933 104.734 65.8868 105.19 66.3761 105.647C68.4636 107.669 71.0077 108.159 73.7476 107.604C78.2814 106.691 80.4667 102.32 79.0968 97.3297C78.6402 95.6336 77.9552 94.068 76.9441 92.6655C72.5734 86.6313 73.6171 80.6297 77.2376 74.302C77.8573 79.0315 80.4015 82.228 83.4675 85.033C87.3816 88.6209 91.7849 91.6869 95.5685 95.4053C100.233 100.004 103.07 105.386 102.744 112.138Z" fill="#8CCBF0"/>
<path d="M97.1993 16.5695C97.0036 13.6013 94.753 11.4486 91.7522 11.4486C86.1094 11.4159 80.4666 11.3833 74.8239 11.4486C71.8231 11.4812 69.5399 13.8622 69.442 16.8304C69.4094 18.4939 69.4094 20.19 69.4094 21.8534C69.442 25.9958 71.5295 28.1159 75.7045 28.1812C78.2161 28.2138 80.695 28.1812 83.2065 28.1812H90.8715C90.9694 28.1812 91.0999 28.1812 91.1977 28.1812C94.9813 28.0507 97.134 25.9632 97.2319 22.2448C97.3297 20.353 97.3297 18.4612 97.1993 16.5695ZM91.3934 22.2448C90.7411 23.0929 88.8493 22.4405 87.512 22.5058C86.1094 22.5384 84.6743 22.5058 83.2717 22.5058C80.8907 22.5058 78.477 22.4732 76.0959 22.5384C75.2805 22.5384 74.9217 22.4079 74.987 21.4946C75.0848 20.353 75.0522 19.2114 74.987 18.0698C74.9217 17.1566 75.3457 17.0261 76.1286 17.0261C80.9233 17.0587 85.6854 17.0587 90.4801 17.0261C91.3934 17.0261 91.7522 17.2544 91.687 18.2003C91.5891 19.5702 92.0784 21.3316 91.3934 22.2448Z" fill="#8CCBF0"/>
</g>
<defs>
<clipPath id="clip0_159_39">
<rect width="167" height="167" fill="white"/>
</clipPath>
</defs>
</svg>
