<svg width="133" height="133" viewBox="0 0 133 133" fill="none" xmlns="http://www.w3.org/2000/svg">
<g clip-path="url(#clip0_159_115)">
<path d="M14.3044 21.8896C13.0229 17.1446 14.9624 12.1224 19.0494 9.45551C23.0671 6.85786 28.401 7.1003 32.1762 10.1829C32.8343 10.7024 33.4578 10.9102 34.2544 10.9102C36.852 10.9102 39.4151 11.2219 41.8395 12.1917C42.9132 12.6073 44.2294 13.0922 44.2294 14.443C44.264 15.7938 42.9479 16.3133 41.8742 16.6943C38.5492 17.9758 35.0856 18.2183 31.5874 17.9758C30.1328 17.8719 28.6781 17.7334 27.258 17.3524C25.9072 17.006 24.5565 16.5904 23.3789 15.7245C23.8984 16.8329 24.8682 17.387 25.8726 17.8719C28.7127 19.2573 31.7606 19.9847 34.9124 20.1925C36.0554 20.2618 36.2632 20.6081 36.0208 21.6125C34.8778 26.323 30.3406 29.9943 25.5262 30.0636C20.227 30.1675 15.6205 26.8079 14.3044 21.8896Z" fill="white"/>
<path d="M48.732 50.9834C47.9007 46.4462 46.6192 42.0128 43.8484 38.2029C41.5624 35.0857 38.6877 32.8691 34.6007 32.8691C28.5395 32.8344 22.5129 32.9037 16.4518 32.9037C15.4127 32.9037 14.3736 32.8344 13.3692 33.1115C10.1135 33.9774 7.75826 36.0555 5.99186 38.8264C2.63222 43.9524 1.52389 49.7712 0.831179 55.6938C0.0345646 62.6555 0.138471 69.6519 0.51946 76.6482C0.623367 78.4839 2.00878 80.1118 3.70592 80.3889C5.6455 80.7006 7.37727 79.8001 8.17389 78.0683C8.58951 77.1678 8.55488 76.2326 8.48561 75.2628C8.10462 68.9592 8.06998 62.6555 8.79732 56.3865C9.21295 52.6113 9.90566 48.9399 11.6374 45.4417V46.8618C11.6374 71.0373 11.6374 95.2475 11.6374 119.423C11.6374 122.332 13.6463 124.895 16.3478 125.45C19.3265 126.073 22.3051 124.584 23.4827 121.847C23.933 120.808 24.0023 119.665 24.0023 118.557C24.0023 104.357 24.0023 90.156 23.9676 75.9209C23.9676 75.055 24.0369 74.6394 25.1106 74.6394C26.2882 74.6394 26.1843 75.1936 26.1843 75.9555C26.1843 82.1899 26.1843 88.3897 26.1843 94.624C26.1843 102.833 26.1843 111.041 26.1843 119.25C26.1843 123.302 29.44 126.073 33.4577 125.484C36.471 125.034 38.5838 122.402 38.5838 119.007C38.5838 95.005 38.5838 71.0027 38.5838 46.9657V45.6149C38.9301 45.8574 39.034 46.1691 39.1379 46.4462C40.8351 50.8449 41.32 55.4514 41.701 60.0925C42.1166 65.461 41.9781 70.7949 41.6663 76.1287C41.5278 78.5532 43.6059 80.4235 45.3723 80.4235C47.7622 80.4581 49.5632 78.8995 49.6671 76.4058C50.1866 67.8855 50.2559 59.3998 48.732 50.9834ZM34.0465 47.7623C34.4968 50.36 33.527 51.9532 31.0333 52.8191C30.2713 53.0962 29.7864 53.0962 29.0244 52.8191C26.5999 51.8839 25.457 50.36 25.9765 47.6584C26.1497 46.7925 26.0804 45.8574 25.9765 44.9568C25.8726 43.8831 26.3228 43.6407 27.2926 43.71C28.1932 43.7792 29.0937 43.71 29.9942 43.71V43.7792C31.2757 43.7792 33.0075 43.2597 33.7348 43.9178C34.6007 44.6798 33.8387 46.4462 34.0465 47.7623Z" fill="white"/>
<path d="M56.8366 71.6607C53.4077 72.3188 52.4033 72.873 52.6457 76.2672C52.7496 77.7219 52.2994 79.1073 51.4335 80.2503C50.9832 80.8738 51.0179 81.3587 51.3296 81.9821C52.8189 84.9607 56.1439 86.554 59.4343 85.792C62.69 85.03 65.0452 82.1206 65.0452 78.7956C65.0799 74.4662 61.0968 70.7948 56.8366 71.6607ZM57.7371 82.848C55.5551 82.8133 53.6848 80.943 53.6848 78.7956C53.6848 76.6136 55.659 74.6394 57.8411 74.674C60.0577 74.7087 61.9627 76.6829 61.8934 78.8649C61.7895 81.0816 59.9192 82.8826 57.7371 82.848Z" fill="white"/>
<path d="M74.9858 71.5567C71.0027 71.5913 67.8509 74.8124 67.8855 78.8301C67.8855 82.8132 71.1413 86.0343 75.1243 86.0343C79.0381 86.0343 82.3631 82.7093 82.3631 78.7955C82.3631 74.7778 79.0381 71.522 74.9858 71.5567ZM75.1243 82.8478C72.873 82.8824 71.0374 81.0121 71.0374 78.7262C71.0374 76.5442 72.9077 74.6739 75.0897 74.6739C77.3064 74.6739 79.142 76.5442 79.142 78.8301C79.1074 81.0468 77.341 82.8478 75.1243 82.8478Z" fill="white"/>
<path d="M105.984 119.042C106.158 119.146 106.331 119.25 106.573 119.423C105.257 121.051 103.491 121.951 101.655 122.644C95.4206 124.999 88.9092 125.484 82.3284 125.068C77.999 124.791 73.7735 124.099 69.7904 122.367C68.6475 121.882 67.5391 121.259 66.5693 120.462C64.0756 118.418 64.0756 115.994 66.5347 113.951C68.5782 112.253 71.0027 111.388 73.4964 110.729C75.1589 110.279 76.856 110.037 78.5532 109.69C80.7352 109.205 82.0514 111.318 82.467 112.981C82.6055 113.535 82.6402 114.089 82.7441 114.643C82.8826 115.405 83.5061 115.474 84.0256 115.371C84.649 115.267 84.2334 114.747 84.1988 114.435C83.8178 110.833 81.5665 109.032 78.3107 108.097C74.9511 107.127 71.4876 107.301 68.024 107.231C65.4956 107.197 62.9326 107.301 60.4042 106.816C59.9886 106.746 59.5383 106.642 59.1574 106.539C57.7027 106.054 56.3865 105.292 56.1441 103.664C55.9363 102.14 56.906 101.066 58.049 100.2C59.3998 99.1266 61.0623 98.7456 62.6555 98.2953C64.0756 97.9143 65.4956 97.6026 66.8118 96.9445C67.3659 96.6674 68.0933 96.3904 68.024 95.5937C67.9547 94.8318 67.2274 94.7971 66.6732 94.624C63.7639 93.7581 60.7506 93.4464 57.7373 93.3424C52.8191 93.1693 47.9008 93.6195 42.9826 93.6195C41.8743 93.6195 41.4933 93.4117 41.5626 92.2341C41.6665 90.4331 41.5972 90.3638 43.4329 90.3292C50.0136 90.156 56.5597 89.9828 63.1058 90.537C65.3225 90.7102 67.5391 91.0911 69.6172 92.0263C70.1368 92.2688 70.6563 92.4766 71.1066 92.7883C74.0159 94.7971 73.8774 97.568 70.8295 99.2997C68.9245 100.373 66.8464 100.858 64.7683 101.343C63.7292 101.586 62.6902 101.863 61.8589 102.625C61.6165 102.867 61.2701 103.11 61.4087 103.491C61.5472 103.802 61.9282 103.664 62.2053 103.698C64.6297 103.906 67.0196 103.941 69.4441 103.976C73.8081 104.01 78.1376 104.357 82.2245 106.054C85.6881 107.508 88.2511 109.864 89.0131 113.743C89.0823 114.02 89.0477 114.435 89.498 114.332C89.9482 114.262 89.9136 113.916 89.9136 113.535C89.8097 112.115 89.3941 110.764 88.6321 109.413C90.2599 109.309 91.68 109.552 93.1001 109.656C93.481 109.69 93.7235 109.864 93.9659 110.106C97.2909 113.951 101.482 116.687 105.984 119.042Z" fill="white"/>
<path d="M114.955 71.5569C110.972 71.5569 107.716 74.8126 107.716 78.7957C107.716 82.7441 111.006 86.0345 114.955 86.0345C118.938 86.0345 122.159 82.7788 122.159 78.7957C122.159 74.778 118.973 71.5569 114.955 71.5569ZM114.886 82.848C112.669 82.8134 110.903 81.0124 110.903 78.7957C110.903 76.5444 112.773 74.6394 114.99 74.7087C117.172 74.7433 118.973 76.6137 118.973 78.7957C119.007 81.047 117.137 82.8827 114.886 82.848Z" fill="white"/>
<path d="M129.294 64.803C129.294 63.0019 128.913 61.3048 128.082 59.7116C126.038 55.8324 123.995 51.9532 121.951 48.0741C121.085 46.4462 119.769 45.615 117.899 45.6496C113.154 45.6842 108.409 45.6496 103.664 45.6496C101.378 45.6496 100.616 46.3769 100.616 48.6282C100.616 54.447 100.616 60.3004 100.65 66.1191C100.65 66.9504 100.443 67.1928 99.6114 67.1582C94.3468 67.1235 89.0823 67.1235 83.8177 67.1582C82.9171 67.1582 82.744 66.8465 82.7786 66.0498C82.8132 65.3571 82.6401 64.7337 83.783 64.7683C87.2812 64.8376 90.7794 64.803 94.2776 64.803C96.8406 64.803 98.2606 63.3829 98.2953 60.8199C98.2953 54.8972 98.2953 48.9746 98.2953 43.0866C98.2953 40.4196 96.806 38.965 94.1044 38.965C93.1692 38.965 92.1994 38.9303 91.2643 38.965C90.7794 38.965 90.6408 38.7918 90.6062 38.3069C90.4677 36.5751 90.4677 36.5751 88.7013 36.5751C88.1471 36.5751 87.5583 36.6444 87.0041 36.5751C86.0343 36.4712 85.5841 36.7483 85.688 37.822C85.7226 38.203 86.069 39.1035 85.2031 38.9303C84.4065 38.7918 83.125 39.8308 82.8479 38.203C82.744 37.5795 82.3976 37.6142 82.0166 37.6834C81.5664 37.7873 80.7351 37.3025 80.7351 38.0644C80.7351 39.1381 80.1463 38.965 79.4882 38.965C78.6224 38.965 77.7565 38.9303 76.8906 38.965C76.2671 38.9996 75.9208 38.861 76.0247 38.1337C76.094 37.5795 75.8862 36.9907 76.8213 37.0946C77.6872 37.1985 78.4145 36.8522 78.4145 35.8478C78.4145 34.7741 77.6872 34.497 76.752 34.5316C74.6046 34.5316 72.4226 34.5316 70.2752 34.5316C69.3747 34.5316 68.5781 34.6702 68.5434 35.7785C68.5088 36.8868 69.2362 37.1985 70.1713 37.0946C71.0718 37.0254 70.864 37.6142 70.864 38.0991C70.8987 38.584 70.9333 38.9996 70.1713 38.9996C68.4742 38.9303 66.8117 38.9303 65.1145 38.9996C64.2833 39.0342 64.3526 38.584 64.3526 38.0298C64.3526 37.4756 64.2833 36.9907 65.1145 37.0946C66.0843 37.1985 66.777 36.8176 66.7078 35.7439C66.6731 34.7394 65.9112 34.5316 65.0453 34.5316C62.8979 34.5316 60.7158 34.5316 58.5685 34.5316C57.6679 34.5316 56.8713 34.6702 56.802 35.7785C56.7674 36.8868 57.4948 37.1985 58.4299 37.0946C59.2958 37.0254 59.1226 37.5795 59.1573 38.0644C59.1919 38.6532 59.1226 39.0342 58.3606 38.965C57.4255 38.8957 56.4557 38.9303 55.5205 38.965C55.0356 38.965 54.6546 38.965 54.7586 38.3069C54.8278 37.7873 54.5507 37.5795 54.0658 37.6834C53.5463 37.7873 52.6458 37.3371 52.6112 38.0298C52.5419 39.242 51.7799 38.965 51.1218 38.965C50.2906 38.965 49.494 38.9996 48.6627 38.965C48.0393 38.9303 47.9007 39.1035 48.1778 39.6923C48.6974 40.766 49.1822 41.8743 49.5979 42.9827C52.1955 50.1176 52.7843 57.5642 52.9575 65.0801C52.9921 67.1928 52.9575 69.2709 52.9575 71.4183C58.9494 68.2319 64.5604 71.0373 66.5 76.8907C66.7078 76.4405 66.8117 76.1634 66.9156 75.8863C68.2664 72.3535 71.4875 70.0676 75.1242 70.0329C78.6916 70.0329 81.9474 72.2496 83.2635 75.7478C83.5752 76.5444 83.9908 76.7176 84.7528 76.7176C91.6106 76.6829 98.5031 76.6829 105.361 76.7176C106.227 76.7176 106.573 76.4405 106.919 75.6439C108.305 72.215 110.937 70.2754 114.609 70.1022C118.072 69.929 121.016 71.3837 122.471 74.5355C123.406 76.5444 124.549 76.9254 126.454 76.7522C128.393 76.579 129.363 75.7478 129.363 73.7389C129.329 70.7603 129.329 67.7816 129.294 64.803ZM79.5229 67.1582C71.5914 67.1235 63.6599 67.1235 55.7283 67.1582C54.6893 67.1582 54.7239 66.7079 54.6893 65.9459C54.6546 65.1147 54.7932 64.7683 55.763 64.7683C59.6768 64.8376 63.6252 64.803 67.539 64.803C71.5567 64.803 75.5744 64.8376 79.5575 64.7683C80.5966 64.7683 80.5966 65.2186 80.5966 65.9806C80.6658 66.8465 80.4927 67.1928 79.5229 67.1582ZM108.132 53.685C108.132 55.2782 108.097 56.8715 108.132 58.4647C108.132 59.0881 107.959 59.2959 107.335 59.2613C106.158 59.2267 105.015 59.2267 103.837 59.2613C103.213 59.2613 102.902 59.1574 102.902 58.4301C102.936 55.2436 102.936 52.0571 102.902 48.8707C102.902 48.178 103.144 47.9702 103.802 48.0048C105.188 48.1087 107.023 47.416 107.889 48.2819C108.582 48.9746 108.062 50.8103 108.097 52.1264C108.132 52.6459 108.132 53.1655 108.132 53.685ZM123.995 59.2959C121.743 59.2613 119.492 59.2959 117.275 59.2959C115.024 59.2959 112.773 59.2613 110.556 59.3306C109.794 59.3306 109.483 59.192 109.483 58.3261C109.517 55.209 109.517 52.0918 109.483 49.0092C109.483 48.178 109.76 48.0048 110.522 48.0048C112.877 48.0394 115.267 48.0394 117.656 48.0048C118.661 48.0048 119.388 48.3511 119.873 49.2517C121.466 52.2996 123.06 55.3475 124.687 58.3608C125.138 59.2959 124.757 59.2959 123.995 59.2959Z" fill="white"/>
<path d="M131.788 116.825C132.931 119.458 131.961 121.536 129.225 122.332C126.8 123.06 124.341 122.956 121.917 122.506C113.085 120.912 105.118 117.31 98.1567 111.595C96.6328 110.348 95.2473 108.894 94.139 107.231C91.5067 103.144 93.1 100.062 97.9489 99.7847C98.5377 99.75 99.1612 99.7847 99.75 99.7847C106.331 99.9925 112.357 102.175 118.141 105.119C122.609 107.404 126.8 110.141 130.056 114.054C130.749 114.92 131.337 115.821 131.788 116.825Z" fill="white"/>
<path d="M132.965 87.6277H42.9479C42.6015 87.6277 42.2551 87.6277 41.9088 87.6277C41.4239 87.6277 41.4932 87.2813 41.4932 87.0043C41.4932 86.6925 41.4585 86.3808 41.9088 86.3462C42.2898 86.3462 42.6708 86.3462 43.0864 86.3462C73.046 86.3462 103.006 86.3462 133 86.3462C132.342 86.9004 131.511 86.7618 130.749 86.7618C119.527 86.7618 108.305 86.7618 97.083 86.7618C79.5229 86.7618 61.9281 86.7618 44.3679 86.7618C43.7445 86.7618 43.0864 86.6925 42.3244 86.9696C43.1557 87.316 43.8484 87.2121 44.5064 87.2121C73.1846 87.2121 101.828 87.2121 130.506 87.2121C131.337 87.2121 132.238 87.0043 132.965 87.6277Z" fill="white"/>
<path d="M132.965 86.3115V87.593H42.9479C42.6015 87.593 42.2551 87.593 41.9088 87.593C41.4239 87.593 41.4932 87.2467 41.4932 86.9696C41.4932 86.6579 41.4585 86.3462 41.9088 86.3115C42.2898 86.3115 42.6708 86.3115 43.0864 86.3115C73.046 86.3462 103.006 86.3115 132.965 86.3115Z" fill="#8CCBF0"/>
<path d="M48.732 50.9834C47.9007 46.4462 46.6192 42.0128 43.8484 38.2029C41.5624 35.0857 38.6877 32.8691 34.6007 32.8691C28.5395 32.8344 22.5129 32.9037 16.4518 32.9037C15.4127 32.9037 14.3736 32.8344 13.3692 33.1115C10.1135 33.9774 7.75826 36.0555 5.99186 38.8264C2.63222 43.9524 1.52389 49.7712 0.831179 55.6938C0.0345646 62.6555 0.138471 69.6519 0.51946 76.6482C0.623367 78.4839 2.00878 80.1118 3.70592 80.3889C5.6455 80.7006 7.37727 79.8001 8.17389 78.0683C8.58951 77.1678 8.55488 76.2326 8.48561 75.2628C8.10462 68.9592 8.06998 62.6555 8.79732 56.3865C9.21295 52.6113 9.90566 48.9399 11.6374 45.4417V46.8618C11.6374 71.0373 11.6374 95.2475 11.6374 119.423C11.6374 122.332 13.6463 124.895 16.3478 125.45C19.3265 126.073 22.3051 124.584 23.4827 121.847C23.933 120.808 24.0023 119.665 24.0023 118.557C24.0023 104.357 24.0023 90.156 23.9676 75.9209C23.9676 75.055 24.0369 74.6394 25.1106 74.6394C26.2882 74.6394 26.1843 75.1936 26.1843 75.9555C26.1843 82.1899 26.1843 88.3897 26.1843 94.624C26.1843 102.833 26.1843 111.041 26.1843 119.25C26.1843 123.302 29.44 126.073 33.4577 125.484C36.471 125.034 38.5838 122.402 38.5838 119.007C38.5838 95.005 38.5838 71.0027 38.5838 46.9657V45.6149C38.9301 45.8574 39.034 46.1691 39.1379 46.4462C40.8351 50.8449 41.32 55.4514 41.701 60.0925C42.1166 65.461 41.9781 70.7949 41.6663 76.1287C41.5278 78.5532 43.6059 80.4235 45.3723 80.4235C47.7622 80.4581 49.5632 78.8995 49.6671 76.4058C50.1866 67.8855 50.2559 59.3998 48.732 50.9834ZM34.0465 47.7623C34.4968 50.36 33.527 51.9532 31.0333 52.8191C30.2713 53.0962 29.7864 53.0962 29.0244 52.8191C26.5999 51.8839 25.457 50.36 25.9765 47.6584C26.1497 46.7925 26.0804 45.8574 25.9765 44.9568C25.8726 43.8831 26.3228 43.6407 27.2926 43.71C28.1932 43.7792 29.0937 43.71 29.9942 43.71V43.7792C31.2757 43.7792 33.0075 43.2597 33.7348 43.9178C34.6007 44.6798 33.8387 46.4462 34.0465 47.7623Z" fill="#8CCBF0"/>
<path d="M129.294 64.803C129.294 63.0019 128.913 61.3048 128.082 59.7116C126.038 55.8324 123.995 51.9532 121.951 48.0741C121.085 46.4462 119.769 45.615 117.899 45.6496C113.154 45.6842 108.409 45.6496 103.664 45.6496C101.378 45.6496 100.616 46.3769 100.616 48.6282C100.616 54.447 100.616 60.3004 100.65 66.1191C100.65 66.9504 100.443 67.1928 99.6114 67.1582C94.3468 67.1235 89.0823 67.1235 83.8177 67.1582C82.9171 67.1582 82.744 66.8465 82.7786 66.0498C82.8132 65.3571 82.6401 64.7337 83.783 64.7683C87.2812 64.8376 90.7794 64.803 94.2776 64.803C96.8406 64.803 98.2606 63.3829 98.2953 60.8199C98.2953 54.8972 98.2953 48.9746 98.2953 43.0866C98.2953 40.4196 96.806 38.965 94.1044 38.965C93.1692 38.965 92.1994 38.9303 91.2643 38.965C90.7794 38.965 90.6408 38.7918 90.6062 38.3069C90.4677 36.5751 90.4677 36.5751 88.7013 36.5751C88.1471 36.5751 87.5583 36.6444 87.0041 36.5751C86.0343 36.4712 85.5841 36.7483 85.688 37.822C85.7226 38.203 86.069 39.1035 85.2031 38.9303C84.4065 38.7918 83.125 39.8308 82.8479 38.203C82.744 37.5795 82.3976 37.6142 82.0166 37.6834C81.5664 37.7873 80.7351 37.3025 80.7351 38.0644C80.7351 39.1381 80.1463 38.965 79.4882 38.965C78.6224 38.965 77.7565 38.9303 76.8906 38.965C76.2671 38.9996 75.9208 38.861 76.0247 38.1337C76.094 37.5795 75.8862 36.9907 76.8213 37.0946C77.6872 37.1985 78.4145 36.8522 78.4145 35.8478C78.4145 34.7741 77.6872 34.497 76.752 34.5316C74.6046 34.5316 72.4226 34.5316 70.2752 34.5316C69.3747 34.5316 68.5781 34.6702 68.5434 35.7785C68.5088 36.8868 69.2362 37.1985 70.1713 37.0946C71.0718 37.0254 70.864 37.6142 70.864 38.0991C70.8987 38.584 70.9333 38.9996 70.1713 38.9996C68.4742 38.9303 66.8117 38.9303 65.1145 38.9996C64.2833 39.0342 64.3526 38.584 64.3526 38.0298C64.3526 37.4756 64.2833 36.9907 65.1145 37.0946C66.0843 37.1985 66.777 36.8176 66.7078 35.7439C66.6731 34.7394 65.9112 34.5316 65.0453 34.5316C62.8979 34.5316 60.7158 34.5316 58.5685 34.5316C57.6679 34.5316 56.8713 34.6702 56.802 35.7785C56.7674 36.8868 57.4948 37.1985 58.4299 37.0946C59.2958 37.0254 59.1226 37.5795 59.1573 38.0644C59.1919 38.6532 59.1226 39.0342 58.3606 38.965C57.4255 38.8957 56.4557 38.9303 55.5205 38.965C55.0356 38.965 54.6546 38.965 54.7586 38.3069C54.8278 37.7873 54.5507 37.5795 54.0658 37.6834C53.5463 37.7873 52.6458 37.3371 52.6112 38.0298C52.5419 39.242 51.7799 38.965 51.1218 38.965C50.2906 38.965 49.494 38.9996 48.6627 38.965C48.0393 38.9303 47.9007 39.1035 48.1778 39.6923C48.6974 40.766 49.1822 41.8743 49.5979 42.9827C52.1955 50.1176 52.7843 57.5642 52.9575 65.0801C52.9921 67.1928 52.9575 69.2709 52.9575 71.4183C58.9494 68.2319 64.5604 71.0373 66.5 76.8907C66.7078 76.4405 66.8117 76.1634 66.9156 75.8863C68.2664 72.3535 71.4875 70.0676 75.1242 70.0329C78.6916 70.0329 81.9474 72.2496 83.2635 75.7478C83.5752 76.5444 83.9908 76.7176 84.7528 76.7176C91.6106 76.6829 98.5031 76.6829 105.361 76.7176C106.227 76.7176 106.573 76.4405 106.919 75.6439C108.305 72.215 110.937 70.2754 114.609 70.1022C118.072 69.929 121.016 71.3837 122.471 74.5355C123.406 76.5444 124.549 76.9254 126.454 76.7522C128.393 76.579 129.363 75.7478 129.363 73.7389C129.329 70.7603 129.329 67.7816 129.294 64.803ZM79.5229 67.1582C71.5914 67.1235 63.6599 67.1235 55.7283 67.1582C54.6893 67.1582 54.7239 66.7079 54.6893 65.9459C54.6546 65.1147 54.7932 64.7683 55.763 64.7683C59.6768 64.8376 63.6252 64.803 67.539 64.803C71.5567 64.803 75.5744 64.8376 79.5575 64.7683C80.5966 64.7683 80.5966 65.2186 80.5966 65.9806C80.6658 66.8465 80.4927 67.1928 79.5229 67.1582ZM108.132 53.685C108.132 55.2782 108.097 56.8715 108.132 58.4647C108.132 59.0881 107.959 59.2959 107.335 59.2613C106.158 59.2267 105.015 59.2267 103.837 59.2613C103.213 59.2613 102.902 59.1574 102.902 58.4301C102.936 55.2436 102.936 52.0571 102.902 48.8707C102.902 48.178 103.144 47.9702 103.802 48.0048C105.188 48.1087 107.023 47.416 107.889 48.2819C108.582 48.9746 108.062 50.8103 108.097 52.1264C108.132 52.6459 108.132 53.1655 108.132 53.685ZM123.995 59.2959C121.743 59.2613 119.492 59.2959 117.275 59.2959C115.024 59.2959 112.773 59.2613 110.556 59.3306C109.794 59.3306 109.483 59.192 109.483 58.3261C109.517 55.209 109.517 52.0918 109.483 49.0092C109.483 48.178 109.76 48.0048 110.522 48.0048C112.877 48.0394 115.267 48.0394 117.656 48.0048C118.661 48.0048 119.388 48.3511 119.873 49.2517C121.466 52.2996 123.06 55.3475 124.687 58.3608C125.138 59.2959 124.757 59.2959 123.995 59.2959Z" fill="#8CCBF0"/>
<path d="M106.573 119.423C105.257 121.051 103.491 121.951 101.655 122.644C95.4206 124.999 88.9092 125.484 82.3284 125.068C77.999 124.791 73.7735 124.099 69.7904 122.367C68.6475 121.882 67.5391 121.259 66.5693 120.462C64.0756 118.418 64.0756 115.994 66.5347 113.951C68.5782 112.253 71.0027 111.388 73.4964 110.729C75.1589 110.279 76.856 110.037 78.5532 109.69C80.7352 109.205 82.0514 111.318 82.467 112.981C82.6055 113.535 82.6402 114.089 82.7441 114.643C82.8826 115.405 83.5061 115.474 84.0256 115.371C84.649 115.267 84.2334 114.747 84.1988 114.435C83.8178 110.833 81.5665 109.032 78.3107 108.097C74.9511 107.127 71.4876 107.301 68.024 107.231C65.4956 107.197 62.9326 107.301 60.4042 106.816C59.9886 106.746 59.5383 106.642 59.1574 106.539C57.7027 106.054 56.3865 105.292 56.1441 103.664C55.9363 102.14 56.906 101.066 58.049 100.2C59.3998 99.1266 61.0623 98.7456 62.6555 98.2953C64.0756 97.9143 65.4956 97.6026 66.8118 96.9445C67.3659 96.6674 68.0933 96.3904 68.024 95.5937C67.9547 94.8318 67.2274 94.7971 66.6732 94.624C63.7639 93.7581 60.7506 93.4464 57.7373 93.3424C52.8191 93.1693 47.9008 93.6195 42.9826 93.6195C41.8743 93.6195 41.4933 93.4117 41.5626 92.2341C41.6665 90.4331 41.5972 90.3638 43.4329 90.3292C50.0136 90.156 56.5597 89.9828 63.1058 90.537C65.3225 90.7102 67.5391 91.0911 69.6172 92.0263C70.1368 92.2688 70.6563 92.4766 71.1066 92.7883C74.0159 94.7971 73.8774 97.568 70.8295 99.2997C68.9245 100.373 66.8464 100.858 64.7683 101.343C63.7292 101.586 62.6902 101.863 61.8589 102.625C61.6165 102.867 61.2701 103.11 61.4087 103.491C61.5472 103.802 61.9282 103.664 62.2053 103.698C64.6297 103.906 67.0196 103.941 69.4441 103.976C73.8081 104.01 78.1376 104.357 82.2245 106.054C85.6881 107.508 88.2511 109.864 89.0131 113.743C89.0823 114.02 89.0477 114.435 89.498 114.332C89.9482 114.262 89.9136 113.916 89.9136 113.535C89.8097 112.115 89.3941 110.764 88.6321 109.413C90.2599 109.309 91.68 109.552 93.1001 109.656C93.481 109.69 93.7235 109.864 93.9659 110.106C97.3602 113.951 101.586 116.687 106.054 119.042C106.158 119.146 106.331 119.25 106.573 119.423Z" fill="#8CCBF0"/>
<path d="M129.19 122.332C126.766 123.06 124.306 122.956 121.882 122.506C113.05 120.912 105.084 117.31 98.122 111.595C96.5981 110.348 95.2127 108.894 94.1043 107.231C91.4721 103.144 93.0653 100.062 97.9142 99.7847C98.503 99.75 99.1265 99.7847 99.7153 99.7847C106.296 99.9925 112.323 102.175 118.107 105.119C122.575 107.404 126.766 110.141 130.021 114.054C130.714 114.886 131.303 115.786 131.718 116.791C132.896 119.423 131.926 121.536 129.19 122.332Z" fill="#8CCBF0"/>
<path d="M44.2641 14.4776C44.2988 15.8284 42.9826 16.348 41.9089 16.729C38.5839 18.0105 35.1204 18.2529 31.6222 18.0105C30.1675 17.9066 28.7128 17.768 27.2928 17.387C25.942 17.0407 24.5912 16.625 23.4136 15.7592C23.9331 16.8675 24.9029 17.4217 25.9074 17.9066C28.7475 19.292 31.7954 20.0193 34.9472 20.2271C36.0902 20.2964 36.298 20.6428 36.0555 21.6472C34.9126 26.3576 30.3753 30.0289 25.561 30.0982C20.2618 30.1675 15.6899 26.8079 14.3391 21.8896C13.023 17.1446 14.9626 12.1224 19.0495 9.45551C23.0672 6.85786 28.4011 7.1003 32.1764 10.1829C32.8344 10.7024 33.4579 10.9102 34.2545 10.9102C36.8521 10.9102 39.4152 11.2219 41.8396 12.1917C42.948 12.642 44.2295 13.1269 44.2641 14.4776Z" fill="#8CCBF0"/>
<path d="M74.9858 71.5567C71.0027 71.5913 67.8509 74.8124 67.8855 78.8301C67.8855 82.8132 71.1413 86.0343 75.1243 86.0343C79.0381 86.0343 82.3631 82.7093 82.3631 78.7955C82.3631 74.7778 79.0381 71.522 74.9858 71.5567ZM75.1243 82.8478C72.873 82.8824 71.0374 81.0121 71.0374 78.7262C71.0374 76.5442 72.9077 74.6739 75.0897 74.6739C77.3064 74.6739 79.142 76.5442 79.142 78.8301C79.1074 81.0468 77.341 82.8478 75.1243 82.8478Z" fill="#8CCBF0"/>
<path d="M114.955 71.5569C110.972 71.5569 107.716 74.8126 107.716 78.7957C107.716 82.7441 111.006 86.0345 114.955 86.0345C118.938 86.0345 122.159 82.7788 122.159 78.7957C122.159 74.778 118.973 71.5569 114.955 71.5569ZM114.886 82.848C112.669 82.8134 110.903 81.0124 110.903 78.7957C110.903 76.5444 112.773 74.6394 114.99 74.7087C117.172 74.7433 118.973 76.6137 118.973 78.7957C119.007 81.047 117.137 82.8827 114.886 82.848Z" fill="#8CCBF0"/>
<path d="M56.8366 71.6607C53.4077 72.3188 52.4033 72.873 52.6457 76.2672C52.7496 77.7219 52.2994 79.1073 51.4335 80.2503C50.9832 80.8738 51.0179 81.3587 51.3296 81.9821C52.8189 84.9607 56.1439 86.554 59.4343 85.792C62.69 85.03 65.0452 82.1206 65.0452 78.7956C65.0799 74.4662 61.0968 70.7948 56.8366 71.6607ZM57.7371 82.848C55.5551 82.8133 53.6848 80.943 53.6848 78.7956C53.6848 76.6136 55.659 74.6394 57.8411 74.674C60.0577 74.7087 61.9627 76.6829 61.8934 78.8649C61.7895 81.0816 59.9192 82.8826 57.7371 82.848Z" fill="#8CCBF0"/>
</g>
<defs>
<clipPath id="clip0_159_115">
<rect width="133" height="133" fill="white"/>
</clipPath>
</defs>
</svg>
