<svg width="130" height="158" viewBox="0 0 130 158" fill="none" xmlns="http://www.w3.org/2000/svg">
<g clip-path="url(#clip0_159_5)">
<path d="M40.8284 24.1564C40.8671 23.0392 41.4094 22.3457 42.4553 22.0374C43.7723 21.6522 45.0894 21.7292 46.4064 21.9219C47.7235 22.1145 48.537 22.8465 48.537 24.272C48.4982 25.7361 47.5685 26.314 46.2902 26.5837C45.7479 26.6992 45.1669 26.5837 44.5858 26.5837C43.8111 26.5837 43.0364 26.6607 42.3004 26.391C41.3319 25.9672 40.8284 25.2352 40.8284 24.1564Z" fill="white" stroke="#8CCBF0" stroke-miterlimit="10"/>
<path d="M53.3789 35.7146C54.2699 36.6007 54.3861 37.641 53.5726 38.7583C52.4105 40.3379 50.4737 41.879 49.5053 41.879C48.7306 41.7248 47.9558 41.4937 47.5297 40.6846C47.0649 39.7985 47.0649 38.8738 47.7234 38.1033C48.5369 37.1786 49.3891 36.2925 50.3575 35.522C51.3646 34.6744 52.488 34.8285 53.3789 35.7146Z" fill="white" stroke="#8CCBF0" stroke-miterlimit="10"/>
<path d="M47.5686 10.0555C47.0263 9.28499 47.065 8.43739 47.5686 7.62832C48.0335 6.85778 48.7694 6.54956 49.6217 6.54956C51.0162 6.58809 54.0376 9.63174 54.0764 11.0958C53.9989 11.8278 53.6503 12.5598 52.9143 13.0221C52.1395 13.4845 51.3261 13.6 50.5901 13.0607C49.428 12.2516 48.4208 11.2114 47.5686 10.0555Z" fill="white" stroke="#8CCBF0" stroke-miterlimit="10"/>
<path d="M62.637 5.85612C62.4433 4.66178 62.4433 3.39038 62.637 2.19604C62.8694 0.963171 63.6441 0.192627 64.9612 0.192627C66.3169 0.192627 67.0142 1.0017 67.2466 2.23457C67.3628 2.81248 67.3241 3.46744 67.3628 4.1224C67.3241 4.70031 67.3241 5.31674 67.2079 5.89465C66.9367 7.12752 66.2395 7.89806 64.8837 7.85954C63.5666 7.85954 62.8694 7.08899 62.637 5.85612Z" fill="white" stroke="#8CCBF0" stroke-miterlimit="10"/>
<path d="M67.1306 42.0716C67.5567 43.42 67.4405 44.807 67.2468 46.1554C67.0531 47.3883 66.3171 48.1589 64.9613 48.1589C63.6055 48.1589 62.8695 47.3883 62.6371 46.1554C62.5209 45.5775 62.5597 44.9226 62.4822 44.3447C62.5209 43.5741 62.4822 42.8036 62.7533 42.0716C63.1407 41.0313 63.838 40.4919 64.9613 40.4919C66.0459 40.4919 66.8207 41.0313 67.1306 42.0716Z" fill="white" stroke="#8CCBF0" stroke-miterlimit="10"/>
<path d="M65.0388 12.5213C58.7248 12.4443 53.2242 17.9151 53.2629 24.2336C53.3016 30.5906 58.6085 35.8303 65.0001 35.8303C71.3529 35.8303 76.6985 30.552 76.6985 24.1951C76.6985 17.9536 71.3916 12.5984 65.0388 12.5213ZM64.9613 31.1685C61.1652 31.1685 58.0275 28.0478 57.9888 24.2336C57.9888 20.4194 61.049 17.3372 64.9226 17.3372C68.7963 17.3372 71.8565 20.3423 71.8565 24.1951C71.8952 28.0092 68.7963 31.1299 64.9613 31.1685Z" fill="white" stroke="#8CCBF0" stroke-miterlimit="10"/>
<path d="M82.2766 38.2575C82.8577 39.028 82.8189 39.8756 82.3928 40.6847C81.9667 41.4938 81.192 41.7635 80.4173 41.879C78.984 41.879 75.8076 38.7198 75.8076 37.3328C75.8076 36.4467 76.2725 35.7532 77.0085 35.3294C77.8219 34.8286 78.7129 34.8286 79.4489 35.4065C80.5335 36.2541 81.5019 37.1787 82.2766 38.2575Z" fill="white" stroke="#8CCBF0" stroke-miterlimit="10"/>
<path d="M76.2336 9.86286C77.0084 8.70704 78.0155 7.74386 79.1389 6.93479C80.6496 5.89456 82.6639 6.97332 82.7414 8.78409C82.8189 10.2867 79.6424 13.4459 78.1317 13.4074C76.3498 13.3303 75.2265 11.3269 76.2336 9.86286Z" fill="white" stroke="#8CCBF0" stroke-miterlimit="10"/>
<path d="M82.935 22.0374C84.2908 21.6522 85.6853 21.7292 87.0411 21.9219C88.3194 22.1145 89.0554 22.8465 89.0554 24.195C89.0554 25.6205 88.1644 26.314 86.8861 26.5451C86.3438 26.6607 85.7628 26.5451 85.1817 26.5451C84.3683 26.5451 83.5548 26.6607 82.7413 26.314C81.7342 25.8516 81.2306 25.1196 81.3081 24.0023C81.4243 23.0006 81.9666 22.3071 82.935 22.0374Z" fill="white" stroke="#8CCBF0" stroke-miterlimit="10"/>
<path d="M129.535 128.835C129.497 129.76 128.799 130.414 127.87 130.569C127.172 130.684 126.436 130.723 125.739 130.723C108.385 130.723 91.0311 130.761 73.6383 130.684C72.36 130.684 71.9727 130.954 72.0114 132.264C72.1276 135.654 72.0889 139.045 72.0114 142.396C72.0114 143.437 72.3213 143.668 73.3284 143.668C78.4804 143.629 83.6324 143.629 88.7843 143.668C91.5734 143.668 92.2319 144.323 92.2706 147.097C92.2706 148.638 92.3481 150.179 92.2319 151.72C92.1544 152.837 92.5805 153.068 93.6264 153.068C100.483 153.03 107.339 153.068 114.196 153.03C115.358 153.03 116.365 153.184 116.946 154.34C117.721 155.881 116.83 156.844 115.706 157.692C115.629 157.152 116.055 156.844 116.249 156.459C116.985 155.149 116.481 153.993 115.009 153.646C114.35 153.492 113.692 153.531 112.995 153.531C106.797 153.531 100.638 153.531 94.4399 153.531C91.9995 153.531 91.7283 153.223 91.6896 150.757C91.6896 149.562 91.6896 148.407 91.6896 147.212C91.6509 144.785 91.2248 144.323 88.8231 144.284C84.2522 144.246 79.6425 144.284 75.0716 144.284C71.7015 144.284 71.624 144.207 71.624 140.855C71.624 138.197 71.624 135.539 71.624 132.842C71.624 130.376 71.9339 130.106 74.3743 130.106C88.5519 130.106 102.73 130.106 116.868 130.106C120.006 130.106 123.144 130.145 126.281 130.106C128.606 130.106 128.954 129.605 129.109 127.294C129.458 121.129 128.489 115.158 127.172 109.186C123.763 93.7751 120.587 78.3257 117.333 62.8378C117.217 62.2214 117.062 61.6434 116.907 61.027C116.287 58.7154 115.706 58.176 113.227 58.176C108.191 58.1375 103.117 58.176 98.0811 58.176H17.8964C13.829 58.176 13.5192 58.4072 12.6669 62.3755C8.9095 80.175 5.15205 98.0131 1.35586 115.813C0.464919 119.935 0.929758 124.096 0.891022 128.218C0.891022 129.451 1.62702 130.068 2.86659 130.106C3.52511 130.145 4.22237 130.145 4.88089 130.145H54.9673C58.2599 130.145 58.3761 130.26 58.3761 133.497C58.3761 136.309 58.4149 139.122 58.3761 141.973C58.3374 143.976 57.9888 144.323 56.0132 144.323C51.1711 144.361 46.329 144.323 41.487 144.323C38.6592 144.323 38.3106 144.708 38.3106 147.559C38.3106 148.638 38.3106 149.717 38.3106 150.795C38.2718 153.261 38.0394 153.569 35.599 153.569C30.9119 153.569 26.2248 153.569 21.5376 153.569C19.8332 153.569 18.1288 153.569 16.4244 153.569C15.8433 153.569 15.301 153.569 14.7587 153.762C13.5966 154.186 13.1705 155.226 13.7516 156.343C13.984 156.806 14.4488 157.114 14.3714 157.692C13.3642 156.921 12.4733 156.074 13.0156 154.61C13.5579 153.184 14.72 153.03 16.037 153.03C22.7772 153.068 29.5174 153.03 36.2963 153.068C37.4584 153.068 37.9619 152.876 37.8457 151.604C37.7295 149.986 37.807 148.33 37.807 146.673C37.8457 144.477 38.6205 143.745 40.9447 143.706C45.9804 143.706 51.0549 143.629 56.0907 143.745C57.6401 143.783 58.105 143.437 58.0275 141.857C57.8725 138.621 57.9113 135.384 58.0275 132.187C58.0662 131.031 57.7176 130.761 56.5942 130.761C39.279 130.8 21.9637 130.8 4.64847 130.8C4.1449 130.8 3.60258 130.838 3.09901 130.8C1.0847 130.607 0.387446 129.837 0.271236 127.91C-0.116129 121.476 0.929759 115.196 2.28554 108.916C5.7331 93.1202 9.06444 77.2855 12.3958 61.4893C13.1318 58.0604 13.4417 57.7522 16.9667 57.7522H113.421C116.287 57.7522 116.868 58.2145 117.488 61.027C121.478 79.9824 125.584 98.9378 129.458 117.932C130.155 121.476 129.651 125.213 129.535 128.835Z" fill="white" stroke="#8CCBF0" stroke-miterlimit="10"/>
<path d="M129.419 117.932C125.545 98.9378 121.478 79.9824 117.449 61.027C116.868 58.2145 116.287 57.7522 113.382 57.7522H16.9279C13.4029 57.7522 13.093 58.0604 12.357 61.4893C9.02562 77.324 5.73301 93.1587 2.24672 108.916C0.89094 115.196 -0.154948 121.438 0.232418 127.91C0.348628 129.798 1.04589 130.607 2.94398 130.723C3.44756 130.761 3.98987 130.723 4.49344 130.723C21.8087 130.723 39.124 130.723 56.4392 130.684C57.6013 130.684 57.9112 130.954 57.8725 132.11C57.795 135.346 57.7563 138.582 57.8725 141.78C57.9499 143.36 57.4851 143.706 55.9356 143.668C50.8999 143.552 45.8254 143.629 40.7896 143.629C38.4654 143.629 37.6907 144.4 37.652 146.596C37.6132 148.253 37.5358 149.871 37.6907 151.527C37.7682 152.799 37.3033 153.03 36.1412 152.991C29.4011 152.953 22.6609 152.991 15.882 152.953C14.565 152.953 13.4029 153.107 12.8605 154.533C12.3182 155.997 13.2092 156.844 14.2163 157.615H115.629C116.752 156.767 117.643 155.804 116.868 154.263C116.287 153.146 115.28 152.953 114.118 152.953C107.262 152.991 100.405 152.953 93.5489 152.991C92.503 152.991 92.0769 152.799 92.1544 151.643C92.2706 150.102 92.1931 148.561 92.1931 147.02C92.1931 144.284 91.5346 143.591 88.7068 143.591C83.5548 143.591 78.4029 143.552 73.2509 143.591C72.2438 143.591 71.9339 143.36 71.9339 142.319C72.0113 138.929 72.0113 135.539 71.9339 132.187C71.8951 130.877 72.2825 130.607 73.5608 130.607C90.9148 130.646 108.308 130.646 125.662 130.646C126.398 130.646 127.095 130.646 127.792 130.492C128.76 130.337 129.419 129.682 129.458 128.758C129.651 125.213 130.155 121.476 129.419 117.932ZM121.672 125.984C83.3612 125.984 45.0119 125.984 6.70143 126.022C5.34565 126.022 4.88081 125.753 4.95828 124.327C5.07449 121.399 4.99702 121.399 7.941 121.399C10.5364 121.399 13.093 121.399 15.6883 121.399C17.4702 121.399 18.4774 120.474 18.3999 119.01C18.3611 117.623 17.354 116.776 15.6496 116.776C12.3182 116.776 8.98689 116.776 5.53933 116.776C6.54648 111.998 7.55363 107.375 8.48331 102.713C8.63826 101.943 9.02563 101.789 9.76162 101.789C20.4917 101.827 31.183 101.827 41.913 101.789C42.9976 101.789 43.0751 102.213 42.9976 103.06C42.6877 107.298 42.3391 111.536 42.1067 115.774C42.0679 116.737 41.6031 116.814 40.8671 116.814C36.025 116.776 31.183 116.814 26.3409 116.814C25.1013 116.814 24.2491 117.392 23.9005 118.548C23.5906 119.704 24.0554 120.667 25.14 121.245C25.7986 121.63 26.5346 121.438 27.2706 121.438C47.5685 121.438 67.8665 121.438 88.1645 121.438C99.9791 121.438 111.755 121.438 123.57 121.399C124.732 121.399 125.042 121.669 125.003 122.825C124.887 125.984 124.964 125.984 121.672 125.984ZM62.6758 131.84C62.6758 130.954 62.947 130.723 63.7992 130.723C67.208 130.646 67.208 130.607 67.208 133.997V137.388C67.208 139.16 67.1693 140.971 67.208 142.743C67.2467 143.475 66.9756 143.668 66.2396 143.706C62.6758 143.899 62.6758 143.938 62.6758 140.432C62.6758 137.581 62.7145 134.691 62.6758 131.84ZM14.1001 82.217C18.1287 82.1784 22.1186 82.217 26.1472 82.217C31.764 82.217 37.3808 82.2555 42.9976 82.1784C44.0435 82.1784 44.4309 82.3711 44.3147 83.4884C43.966 87.6493 43.6949 91.8488 43.4237 96.0482C43.385 96.7417 43.2688 97.0885 42.4166 97.0885C31.7253 97.0499 20.9952 97.0499 10.3039 97.0499C10.149 97.0499 9.99404 96.9729 9.76162 96.9344C10.7688 92.234 11.7759 87.5722 12.7056 82.8719C12.8993 81.9087 13.5578 82.217 14.1001 82.217ZM14.1001 76.2067C15.0685 72.0843 15.882 67.9234 16.6955 63.801C16.8892 62.9148 17.199 62.5681 18.2062 62.5681C26.9994 62.6066 35.8313 62.6066 44.6246 62.5681C45.7867 62.5681 45.8254 62.9919 45.7479 63.9165C45.438 68.0004 45.0894 72.0843 44.8957 76.1682C44.857 77.2855 44.4309 77.4781 43.4237 77.4781C38.7366 77.4396 34.0495 77.4396 29.3623 77.4396C24.6365 77.4396 19.8719 77.4396 15.146 77.4396C14.2163 77.4396 13.829 77.4011 14.1001 76.2067ZM113.227 63.878C114.041 68.0004 114.815 72.0843 115.822 76.1297C116.132 77.4396 115.667 77.4396 114.699 77.4396C110.012 77.4011 105.325 77.4396 100.638 77.4396C95.9505 77.4396 91.2634 77.4011 86.5763 77.4781C85.4529 77.4781 85.1043 77.247 85.0268 76.0911C84.8331 72.0458 84.5232 68.039 84.1746 63.9936C84.0971 62.9534 84.2134 62.6066 85.3755 62.6066C94.1299 62.6452 102.884 62.6452 111.639 62.6066C112.685 62.5296 113.033 62.9148 113.227 63.878ZM118.728 97.0885C108.501 97.0885 98.236 97.0885 88.0095 97.127C86.9249 97.127 86.5376 96.9729 86.4601 95.7785C86.2664 91.6561 85.9565 87.4952 85.6079 83.3728C85.5304 82.3325 85.879 82.217 86.77 82.217C96.4541 82.2555 106.138 82.2555 115.784 82.217C116.83 82.217 117.139 82.5252 117.333 83.5269C118.224 88.0346 119.231 92.5037 120.2 97.127H118.728V97.0885ZM121.517 103.137C122.369 107.298 123.144 111.459 124.112 115.582C124.422 116.814 123.996 116.776 123.066 116.776C117.411 116.737 111.716 116.776 106.061 116.776C100.444 116.776 94.8272 116.737 89.2104 116.814C88.1645 116.814 87.8159 116.583 87.7771 115.504C87.5834 111.459 87.2735 107.414 86.9249 103.407C86.8474 102.29 86.9249 101.789 88.2807 101.789C98.7783 101.866 109.315 101.866 119.812 101.789C121.013 101.75 121.323 102.174 121.517 103.137ZM50.1252 82.1784C60.003 82.217 69.8808 82.217 79.7586 82.1784C80.5721 82.1784 80.7658 82.4481 80.8045 83.2187C81.0757 87.4567 81.3468 91.6947 81.6955 95.9326C81.7729 96.8958 81.5405 97.127 80.5721 97.127C75.3814 97.0885 70.1907 97.0885 64.9613 97.0885C59.8093 97.0885 54.6573 97.0499 49.5441 97.127C48.3433 97.1655 48.1108 96.8188 48.1883 95.7015C48.5369 91.5405 48.8468 87.3411 49.0793 83.1416C49.1567 82.4096 49.3892 82.1784 50.1252 82.1784ZM49.5054 76.1297C49.8927 72.0073 50.1639 67.8848 50.3963 63.7239C50.435 62.7607 50.7449 62.5296 51.6746 62.5296C60.5453 62.5681 69.3772 62.5681 78.2092 62.5296C79.1389 62.5296 79.4488 62.7993 79.4875 63.7239C79.7199 67.8463 80.0298 72.0073 80.3784 76.1297C80.4559 77.0928 80.3397 77.4396 79.2163 77.4396C74.4517 77.3625 69.6484 77.4011 64.8451 77.4011C60.1579 77.4011 55.4708 77.3625 50.7837 77.4396C49.8153 77.4396 49.4279 77.2855 49.5054 76.1297ZM49.2342 101.75C59.7318 101.789 70.2294 101.827 80.7271 101.75C82.0054 101.75 82.2378 102.174 82.3153 103.33C82.5477 107.375 82.8188 111.382 83.1675 115.427C83.2449 116.468 83.09 116.814 81.9279 116.814C76.1949 116.776 70.5006 116.776 64.8063 116.776C59.1895 116.776 53.5727 116.737 47.9559 116.814C46.7938 116.814 46.6389 116.468 46.7551 115.427C47.1037 111.421 47.4136 107.375 47.6073 103.33C47.6847 102.174 47.9559 101.75 49.2342 101.75ZM84.1359 153.03C70.733 153.03 57.3689 152.991 43.966 153.068C42.7265 153.068 42.3004 152.837 42.3391 151.527C42.4553 148.445 42.3778 148.445 45.4768 148.445H64.9225C72.0113 148.445 79.1389 148.445 86.2277 148.445C87.1961 148.445 87.5447 148.599 87.506 149.678C87.5447 153.03 87.5834 153.03 84.1359 153.03Z" fill="#8CCBF0" stroke="#8CCBF0" stroke-miterlimit="10"/>
<path d="M65.0388 12.5213C58.7248 12.4443 53.2242 17.9151 53.2629 24.2336C53.3016 30.5906 58.6085 35.8303 65.0001 35.8303C71.3529 35.8303 76.6985 30.552 76.6985 24.1951C76.6985 17.9536 71.3916 12.5984 65.0388 12.5213ZM64.9613 31.1685C61.1652 31.1685 58.0275 28.0478 57.9888 24.2336C57.9888 20.4194 61.049 17.3372 64.9226 17.3372C68.7963 17.3372 71.8565 20.3423 71.8565 24.1951C71.8952 28.0092 68.7963 31.1299 64.9613 31.1685Z" fill="#8CCBF0" stroke="#8CCBF0" stroke-miterlimit="10"/>
<path d="M89.0942 24.1949C89.0942 25.6204 88.2033 26.3139 86.9249 26.5451C86.3826 26.6607 85.8016 26.5451 85.2205 26.5451C84.4071 26.5451 83.5936 26.6607 82.7801 26.3139C81.773 25.8516 81.2694 25.1196 81.3469 24.0023C81.3856 22.962 81.9667 22.2686 82.9351 21.9989C84.2909 21.6136 85.6854 21.6907 87.0412 21.8833C88.3195 22.1145 89.0555 22.885 89.0942 24.1949Z" fill="#8CCBF0" stroke="#8CCBF0" stroke-miterlimit="10"/>
<path d="M48.5757 24.272C48.5369 25.7361 47.6073 26.314 46.329 26.5837C45.7866 26.6992 45.2056 26.5837 44.6245 26.5837C43.8498 26.5837 43.0751 26.6607 42.3391 26.391C41.3319 25.9672 40.7896 25.2737 40.8284 24.1564C40.8671 23.0392 41.4094 22.3457 42.4553 22.0374C43.7723 21.6522 45.0894 21.7292 46.4064 21.9219C47.7622 22.076 48.5757 22.8465 48.5757 24.272Z" fill="#8CCBF0" stroke="#8CCBF0" stroke-miterlimit="10"/>
<path d="M67.4016 4.12235C67.3628 4.70026 67.3628 5.3167 67.2466 5.8946C66.9755 7.12747 66.2782 7.89802 64.9224 7.85949C63.5666 7.85949 62.8306 7.05042 62.637 5.81755C62.4433 4.62321 62.4433 3.35181 62.637 2.15747C62.8694 0.924596 63.6441 0.154053 64.9612 0.154053C66.3169 0.154053 67.0142 0.963124 67.2466 2.19599C67.4016 2.85096 67.3628 3.46739 67.4016 4.12235Z" fill="#8CCBF0" stroke="#8CCBF0" stroke-miterlimit="10"/>
<path d="M67.2468 46.194C67.0531 47.4269 66.3171 48.1974 64.9613 48.1974C63.6055 48.1974 62.8695 47.4269 62.6371 46.194C62.5209 45.6161 62.5597 44.9611 62.4822 44.3832C62.5209 43.6127 62.4822 42.8422 62.7533 42.1101C63.1407 41.0699 63.838 40.5305 64.9613 40.5305C66.0459 40.5305 66.8207 41.0699 67.1306 42.1101C67.5567 43.4201 67.4792 44.807 67.2468 46.194Z" fill="#8CCBF0" stroke="#8CCBF0" stroke-miterlimit="10"/>
<path d="M53.5726 38.7583C52.4105 40.3379 50.4737 41.879 49.5053 41.879C48.7306 41.7249 47.9558 41.4937 47.5297 40.6847C47.0649 39.7985 47.0649 38.8739 47.7234 38.1033C48.5369 37.1787 49.3891 36.2926 50.3575 35.522C51.3646 34.6359 52.488 34.79 53.4177 35.7147C54.2699 36.6393 54.3861 37.6795 53.5726 38.7583Z" fill="#8CCBF0" stroke="#8CCBF0" stroke-miterlimit="10"/>
<path d="M82.3928 40.6847C81.9667 41.4938 81.192 41.7635 80.4173 41.879C78.984 41.879 75.8076 38.7198 75.8076 37.3328C75.8076 36.4467 76.2725 35.7532 77.0085 35.3294C77.8219 34.8286 78.7129 34.8286 79.4489 35.4065C80.5335 36.2155 81.4632 37.1402 82.2766 38.219C82.8577 39.028 82.8577 39.8756 82.3928 40.6847Z" fill="#8CCBF0" stroke="#8CCBF0" stroke-miterlimit="10"/>
<path d="M54.1151 11.0958C54.0376 11.8278 53.689 12.5598 52.953 13.0221C52.1783 13.4845 51.3648 13.6 50.6288 13.0607C49.428 12.2516 48.4208 11.2114 47.5686 10.0555C47.0263 9.28499 47.065 8.43739 47.5686 7.62832C48.0335 6.85778 48.7694 6.54956 49.6217 6.54956C51.0549 6.58809 54.0764 9.63174 54.1151 11.0958Z" fill="#8CCBF0" stroke="#8CCBF0" stroke-miterlimit="10"/>
<path d="M82.7414 8.78409C82.8189 10.2867 79.6425 13.4459 78.1318 13.4074C76.3499 13.3688 75.2265 11.3654 76.1949 9.86285C76.9697 8.70704 77.9768 7.74386 79.1002 6.93479C80.6496 5.93308 82.664 6.97331 82.7414 8.78409Z" fill="#8CCBF0" stroke="#8CCBF0" stroke-miterlimit="10"/>
<path d="M124.964 122.786C124.887 126.022 124.964 126.022 121.672 126.022C83.3612 126.022 45.012 126.022 6.70152 126.061C5.34574 126.061 4.8809 125.791 4.95837 124.366C5.07458 121.438 4.99711 121.438 7.94109 121.438C10.5364 121.438 13.0931 121.438 15.6884 121.438C17.4703 121.438 18.4774 120.513 18.4 119.049C18.3612 117.662 17.3541 116.814 15.6497 116.814C12.3183 116.814 8.98698 116.814 5.53942 116.814C6.54657 112.037 7.55372 107.414 8.4834 102.752C8.63835 101.982 9.02572 101.827 9.76171 101.827C20.4917 101.866 31.183 101.866 41.9131 101.827C42.9977 101.827 43.0752 102.251 42.9977 103.099C42.6878 107.337 42.3392 111.575 42.1068 115.813C42.068 116.776 41.6032 116.853 40.8672 116.853C36.0251 116.814 31.183 116.853 26.341 116.853C25.1014 116.853 24.2492 117.431 23.9006 118.587C23.5907 119.743 24.0555 120.706 25.1401 121.284C25.7987 121.669 26.5347 121.476 27.2706 121.476C47.5686 121.476 67.8666 121.476 88.1646 121.476C99.9792 121.476 111.755 121.476 123.57 121.438C124.693 121.361 125.003 121.63 124.964 122.786Z" stroke="#8CCBF0" stroke-miterlimit="10"/>
<path d="M81.9279 116.776C76.1949 116.737 70.5006 116.737 64.8063 116.737C59.1895 116.737 53.5727 116.699 47.9559 116.776C46.7938 116.776 46.6388 116.429 46.7551 115.389C47.1037 111.382 47.4136 107.337 47.6073 103.291C47.6847 102.136 47.9172 101.75 49.1955 101.75C59.6931 101.789 70.1907 101.827 80.6883 101.75C81.9666 101.75 82.199 102.174 82.2765 103.33C82.5089 107.375 82.7801 111.382 83.1287 115.427C83.2449 116.468 83.09 116.814 81.9279 116.776Z" stroke="#8CCBF0" stroke-miterlimit="10"/>
<path d="M123.105 116.776C117.449 116.737 111.755 116.776 106.099 116.776C100.483 116.776 94.8658 116.737 89.249 116.814C88.2031 116.814 87.8545 116.583 87.8158 115.504C87.6221 111.459 87.3122 107.414 86.9636 103.407C86.8861 102.29 86.9636 101.789 88.3193 101.789C98.817 101.866 109.353 101.866 119.851 101.789C121.013 101.789 121.323 102.213 121.517 103.176C122.369 107.337 123.144 111.498 124.112 115.62C124.422 116.776 123.996 116.776 123.105 116.776Z" stroke="#8CCBF0" stroke-miterlimit="10"/>
<path d="M80.572 97.0885C75.3813 97.05 70.1906 97.05 64.9612 97.05C59.8092 97.05 54.6573 97.0114 49.544 97.0885C48.3432 97.127 48.1108 96.7803 48.1882 95.663C48.5369 91.502 48.8468 87.3026 49.0792 83.1031C49.1179 82.3711 49.3503 82.1785 50.0863 82.1785C59.9642 82.217 69.842 82.217 79.7198 82.1785C80.5333 82.1785 80.727 82.4482 80.7657 83.2187C81.0369 87.4567 81.308 91.6947 81.6567 95.9327C81.8116 96.8959 81.5405 97.127 80.572 97.0885Z" stroke="#8CCBF0" stroke-miterlimit="10"/>
<path d="M44.3148 83.4884C43.9661 87.6494 43.695 91.8488 43.4238 96.0483C43.3851 96.7418 43.2689 97.0885 42.4167 97.0885C31.7254 97.05 20.9953 97.05 10.304 97.05C10.1491 97.05 9.99414 96.973 9.76172 96.9344C10.7689 92.2341 11.776 87.5723 12.7057 82.872C12.8994 81.8703 13.5966 82.1785 14.139 82.1785C18.1676 82.14 22.1574 82.1785 26.186 82.1785C31.8028 82.1785 37.4196 82.217 43.0364 82.14C44.0436 82.1785 44.3922 82.3712 44.3148 83.4884Z" stroke="#8CCBF0" stroke-miterlimit="10"/>
<path d="M120.238 97.0885H118.766C108.54 97.0885 98.2748 97.0885 88.0484 97.1271C86.9638 97.1271 86.5764 96.973 86.4989 95.7786C86.3052 91.6562 85.9953 87.4953 85.6467 83.3729C85.5692 82.3326 85.9179 82.217 86.8088 82.217C96.493 82.2556 106.177 82.2556 115.823 82.217C116.868 82.217 117.178 82.5253 117.372 83.527C118.224 87.9961 119.231 92.4653 120.238 97.0885Z" stroke="#8CCBF0" stroke-miterlimit="10"/>
<path d="M79.2552 77.4396C74.4906 77.3625 69.6872 77.401 64.8839 77.401C60.1968 77.401 55.5096 77.3625 50.8225 77.4396C49.7766 77.4396 49.3893 77.324 49.5055 76.1296C49.8928 72.0072 50.164 67.8848 50.3964 63.7239C50.4352 62.7607 50.745 62.5295 51.6747 62.5295C60.5454 62.5681 69.3773 62.5681 78.2093 62.5295C79.139 62.5295 79.4489 62.7992 79.4876 63.7239C79.72 67.8463 80.0299 72.0072 80.3785 76.1296C80.456 77.0928 80.3398 77.4396 79.2552 77.4396Z" stroke="#8CCBF0" stroke-miterlimit="10"/>
<path d="M45.748 63.878C45.4381 67.9619 45.0894 72.0458 44.8958 76.1296C44.857 77.2469 44.4309 77.4396 43.4238 77.4396C38.7366 77.401 34.0495 77.401 29.3624 77.401C24.6365 77.401 19.8719 77.401 15.1461 77.401C14.2164 77.401 13.829 77.3625 14.1002 76.1682C15.0686 72.0458 15.882 67.8848 16.6955 63.7624C16.8892 62.8763 17.1991 62.5295 18.2062 62.5295C26.9994 62.5681 35.8314 62.5681 44.6246 62.5295C45.7867 62.5295 45.8254 62.9533 45.748 63.878Z" stroke="#8CCBF0" stroke-miterlimit="10"/>
<path d="M114.66 77.4397C109.973 77.4011 105.286 77.4397 100.599 77.4397C95.9118 77.4397 91.2247 77.4011 86.5375 77.4782C85.4142 77.4782 85.0655 77.247 84.9881 76.0912C84.7944 72.0459 84.4845 68.039 84.1359 63.9937C84.0584 62.9534 84.1746 62.6067 85.3367 62.6067C94.0912 62.6452 102.846 62.6452 111.6 62.6067C112.646 62.6067 112.995 62.9534 113.188 63.9166C114.002 68.039 114.776 72.1229 115.784 76.1683C116.132 77.4397 115.629 77.4397 114.66 77.4397Z" stroke="#8CCBF0" stroke-miterlimit="10"/>
<path d="M87.5446 149.639C87.5059 153.03 87.5446 153.03 84.097 153.03C70.6942 153.03 57.33 152.991 43.9272 153.068C42.6876 153.068 42.2615 152.837 42.3002 151.527C42.4165 148.445 42.339 148.445 45.4379 148.445H64.8837C71.9725 148.445 79.1 148.445 86.1888 148.445C87.2347 148.407 87.5833 148.561 87.5446 149.639Z" stroke="#8CCBF0" stroke-miterlimit="10"/>
<path d="M67.2468 142.743C67.2855 143.475 67.0144 143.668 66.2784 143.706C62.7146 143.899 62.7146 143.938 62.7146 140.432C62.7146 137.581 62.7533 134.691 62.7146 131.84C62.7146 130.954 62.9858 130.723 63.838 130.723C67.2468 130.646 67.2468 130.607 67.2468 133.998V137.388C67.2468 139.16 67.208 140.932 67.2468 142.743Z" stroke="#8CCBF0" stroke-miterlimit="10"/>
<path d="M71.8952 24.1951C71.8952 28.0093 68.7963 31.13 64.9614 31.1685C61.1652 31.1685 58.0275 28.0478 57.9888 24.2336C57.9888 20.4195 61.049 17.3373 64.9226 17.3373C68.835 17.2987 71.8952 20.3424 71.8952 24.1951Z" stroke="#8CCBF0" stroke-miterlimit="10"/>
</g>
<defs>
<clipPath id="clip0_159_5">
<rect width="130" height="158" fill="white"/>
</clipPath>
</defs>
</svg>
