<svg width="163" height="123" viewBox="0 0 163 123" fill="none" xmlns="http://www.w3.org/2000/svg">
<g clip-path="url(#clip0_159_76)">
<path d="M81.6669 123C75.2404 123.125 69.9823 118.375 69.9406 111.458C69.8989 105.125 74.531 99.9166 81.4583 99.8333C87.8848 99.7083 92.8925 104.458 93.268 111.375C92.9759 117.667 88.6359 122.875 81.6669 123ZM114.759 89.7083C113.215 93.0833 110.545 94.875 106.789 94.9583C104.118 95.0416 102.031 93.8333 100.154 92.0833C96.5648 88.6666 92.35 86.3333 87.4675 85.3333C78.6623 83.5 70.8169 85.4166 63.9314 91.25C62.3039 92.625 60.8433 94.125 58.6733 94.6666C55.0428 95.625 51.2035 94.2916 49.0753 91.1666C46.947 88.0833 46.9887 83.875 49.4091 81C52.7058 77.125 56.8372 74.2916 61.3441 71.9583C69.0225 68 77.2017 66.5 85.7565 67.3333C96.2727 68.3333 105.328 72.6666 112.881 80.0833C115.51 82.6666 116.22 86.5 114.759 89.7083ZM132.453 71.1666C129.741 71.875 127.237 71.3333 124.983 69.5833C122.563 67.6666 120.435 65.4583 117.973 63.5833C110.586 57.9166 102.24 54.25 93.1011 52.4583C86.1321 51.0833 79.1213 51 72.0689 52.125C61.6362 53.7916 52.2885 57.9166 43.9841 64.4583C42.0645 65.9583 40.3536 67.7083 38.4757 69.25C33.009 73.75 25.3305 71 24.0786 64.0416C23.5361 61 24.5794 58.4166 26.7494 56.2916C36.5143 46.6666 47.9903 40.0416 61.2606 36.4583C67.8958 34.6666 74.6144 33.75 81.5 33.7916C102.616 34.0833 120.894 41.375 136.084 56.125C141.342 61.2083 139.38 69.3333 132.453 71.1666Z" fill="#8CCBF0"/>
<path d="M93.2262 111.375C92.9758 117.708 88.6358 122.917 81.6668 123C75.2403 123.125 69.9822 118.375 69.9405 111.458C69.8987 105.125 74.5308 99.9166 81.4581 99.8332C87.8429 99.7082 92.8506 104.417 93.2262 111.375Z" fill="#8CCBF0"/>
<path d="M114.759 89.7083C113.215 93.0833 110.544 94.875 106.789 94.9583C104.118 95.0417 102.031 93.8333 100.154 92.0833C96.5647 88.6667 92.3499 86.3333 87.4674 85.3333C78.6622 83.5 70.8169 85.4167 63.9313 91.25C62.3038 92.625 60.8432 94.125 58.6732 94.6667C55.0427 95.625 51.2034 94.2917 49.0752 91.1667C46.9469 88.0833 46.9886 83.875 49.409 81C52.7057 77.125 56.8371 74.2917 61.344 71.9583C69.0224 68 77.2016 66.5 85.7564 67.3333C96.2726 68.3333 105.328 72.6667 112.881 80.0833C115.51 82.6667 116.22 86.5 114.759 89.7083Z" fill="#8CCBF0"/>
<path d="M132.453 71.1666C129.741 71.875 127.237 71.3333 124.983 69.5833C122.563 67.6666 120.435 65.4583 117.973 63.5833C110.586 57.9166 102.24 54.25 93.1011 52.4583C86.1321 51.0833 79.1213 51 72.0689 52.125C61.6362 53.7916 52.2885 57.9166 43.9841 64.4583C42.0645 65.9583 40.3536 67.7083 38.4757 69.25C33.009 73.75 25.3305 71 24.0786 64.0416C23.5361 61 24.5794 58.4166 26.7494 56.2916C36.5143 46.6666 47.9903 40.0416 61.2606 36.4583C67.8958 34.6666 74.6144 33.75 81.5 33.7916C102.616 34.0833 120.894 41.375 136.084 56.125C141.342 61.2083 139.38 69.3333 132.453 71.1666Z" fill="#8CCBF0"/>
<path d="M163 40.5416C162.082 42.9999 160.83 45.2082 158.368 46.4999C155.113 48.2082 151.399 47.9166 148.645 45.3749C144.054 41.2082 139.464 37.0416 134.289 33.5832C123.105 26.0832 110.878 21.0832 97.5663 18.8749C76.9513 15.4582 57.2544 18.3749 38.6008 27.7916C30.213 31.9999 22.7432 37.4582 15.9828 43.9999C14.7726 45.1666 13.5207 46.3332 11.8932 46.9166C8.05398 48.3332 3.96438 47.0832 1.62746 43.7916C-0.625998 40.6249 -0.584267 36.1666 2.0865 33.2082C6.21783 28.6249 11.0169 24.7499 15.9828 21.1666C29.5035 11.3749 44.4849 4.99989 60.8433 1.91656C70.9421 -0.000110944 81.1244 -0.458444 91.3484 0.458222C112.381 2.33322 131.368 9.58322 148.352 22.0832C152.442 25.1249 156.24 28.4999 159.954 31.9999C161.456 33.4166 162.332 35.1666 163.042 37.0416C162.541 37.1249 162.457 36.7082 162.332 36.3749C161.539 34.1666 159.954 32.5832 158.243 30.9999C154.988 27.9166 151.649 25.0416 148.06 22.3749C132.829 11.1249 115.844 4.12489 97.1072 1.49989C93.2263 0.958222 89.3036 0.708222 85.4226 0.541556C71.6932 -0.0834442 58.4229 1.99989 45.4864 6.37489C33.0507 10.5832 21.6582 16.8749 11.4342 25.1666C8.67994 27.4166 6.09264 29.8332 3.50534 32.2499C1.04323 34.5416 -0.16696 37.4582 0.792845 40.8749C1.66919 44.0416 3.79745 46.0832 7.01071 46.8332C9.93186 47.5416 12.4357 46.6666 14.6057 44.6666C19.4047 40.2499 24.2872 35.9582 29.7957 32.4166C41.981 24.5416 55.2096 19.6666 69.6067 17.7916C73.5711 17.2916 77.5355 17.0416 81.5 17.0416C94.3947 17.0832 106.872 19.5416 118.765 24.6249C127.904 28.5416 136.251 33.7499 143.72 40.2916C145.306 41.6666 146.892 43.1249 148.436 44.5832C152.943 48.8332 159.62 47.4999 162.124 41.8332C162.291 41.3332 162.207 40.5832 163 40.5416Z" fill="#8CCBF0"/>
<path d="M163 37.0416V40.5416C162.082 42.9999 160.83 45.2082 158.368 46.4999C155.113 48.2082 151.399 47.9166 148.645 45.3749C144.054 41.2082 139.464 37.0416 134.289 33.5832C123.105 26.0832 110.878 21.0832 97.5663 18.8749C76.9513 15.4582 57.2544 18.3749 38.6008 27.7916C30.213 31.9999 22.7432 37.4582 15.9828 43.9999C14.7726 45.1666 13.5207 46.3332 11.8932 46.9166C8.05398 48.3332 3.96438 47.0832 1.62746 43.7916C-0.625998 40.6249 -0.584267 36.1666 2.0865 33.2082C6.21783 28.6249 11.0169 24.7499 15.9828 21.1666C29.5035 11.3749 44.4849 4.99989 60.8433 1.91656C70.9421 -0.000110944 81.1244 -0.458444 91.3484 0.458222C112.381 2.33322 131.368 9.58322 148.352 22.0832C152.442 25.1249 156.24 28.4999 159.954 31.9999C161.456 33.4166 162.291 35.1666 163 37.0416Z" fill="#8CCBF0"/>
<path d="M132.453 71.1666C129.741 71.875 127.237 71.3333 124.983 69.5833C122.563 67.6666 120.435 65.4583 117.973 63.5833C110.586 57.9166 102.24 54.25 93.1011 52.4583C86.1321 51.0833 79.1213 51 72.0689 52.125C61.6362 53.7916 52.2885 57.9166 43.9841 64.4583C42.0645 65.9583 40.3536 67.7083 38.4757 69.25C33.009 73.75 25.3305 71 24.0786 64.0416C23.5361 61 24.5794 58.4166 26.7494 56.2916C36.5143 46.6666 47.9903 40.0416 61.2606 36.4583C67.8958 34.6666 74.6144 33.75 81.5 33.7916C102.616 34.0833 120.894 41.375 136.084 56.125C141.342 61.2083 139.38 69.3333 132.453 71.1666Z" fill="#8CCBF0"/>
<path d="M114.759 89.7083C113.215 93.0833 110.544 94.875 106.789 94.9583C104.118 95.0417 102.031 93.8333 100.154 92.0833C96.5647 88.6667 92.3499 86.3333 87.4674 85.3333C78.6622 83.5 70.8169 85.4167 63.9313 91.25C62.3038 92.625 60.8432 94.125 58.6732 94.6667C55.0427 95.625 51.2034 94.2917 49.0752 91.1667C46.9469 88.0833 46.9886 83.875 49.409 81C52.7057 77.125 56.8371 74.2917 61.344 71.9583C69.0224 68 77.2016 66.5 85.7564 67.3333C96.2726 68.3333 105.328 72.6667 112.881 80.0833C115.51 82.6667 116.22 86.5 114.759 89.7083Z" fill="#8CCBF0"/>
<path d="M93.2262 111.375C92.9758 117.708 88.6358 122.917 81.6668 123C75.2403 123.125 69.9822 118.375 69.9405 111.458C69.8987 105.125 74.5308 99.9166 81.4581 99.8332C87.8429 99.7082 92.8506 104.417 93.2262 111.375Z" fill="#8CCBF0"/>
</g>
<defs>
<clipPath id="clip0_159_76">
<rect width="163" height="123" fill="white"/>
</clipPath>
</defs>
</svg>
